<svg xmlns="http://www.w3.org/2000/svg" width="427" height="653" viewBox="0 0 427 653">
  <defs>
    <style>
      .cls-1 {
        fill: #fff;
        fill-rule: evenodd;
      }
    </style>
  </defs>
  <path id="sobaken2.svg" class="cls-1" d="M1683,855.529C1683,870,1683,870,1668.53,870h-32.57c-10.22-2.908-17.52-8.3-20.16-19.55-4.78-20.312-7.03-21.734-27.57-21.949-2.11-.022-4.22,0-6.33-0.073-19.38-.679-29.08-6.978-35.01-25.4-7.67-23.843-21.12-45.036-29.88-68.484-5.28-14.15-6.78-25.395.71-38.184a35.49,35.49,0,0,0,4-27.882c-1.13-4.346-2.83-7.057-7.39-7.777-9.93-1.569-17.95-6.543-24.78-13.836-2.33-2.494-4.81-6.482-8.92-4.741-4.39,1.863-3.84,6.7-3.42,10.406,2.05,18.032,1.39,36.122,1.61,54.19,0.54,45.981,13.93,90.238,18.2,135.748,1.49,15.881-2.31,22.178-18.45,21.984-13.87-.167-27.72-0.925-41.58-1.061-7.27-.072-9.7-3.695-8.97-10.286a80.428,80.428,0,0,1,6.93-26.09c4.66-9.815,5.65-20.136,5-30.865-1.46-24.062-5.17-47.848-8.4-71.691-2.71-19.973-8.3-39.513-8.84-59.826a170.21,170.21,0,0,0-1.69-19.788c-0.99-6.786-4.52-8.762-10.66-4.537-6.52,4.5-12.68,9.441-16.49,16.466a83.938,83.938,0,0,1-18.6,23.117c-6.43,5.669-9.68,12.729-10.55,21.283-1.03,10.211-2.74,20.425-7.64,29.607-15.33,28.681-32.76,56.281-43.33,87.357-2.84,8.365-9.72,11.8-18.62,11.27-13.28-.786-26.37-2.543-39.13-6.439V808.5c28.81-27.189,56.12-55.193,69.9-93.947,3.43-9.642,5.98-18.6,5.71-28.553-0.54-20.258,2.88-39.612,12.97-57.456a182.288,182.288,0,0,0,18.17-46.1c3.36-13.57,8.53-26.369,17.57-37.3a132.05,132.05,0,0,0,21.58-36.357,101.614,101.614,0,0,1,11.81-22.327c2.73-3.8,3.52-7.543.97-11.717-8.22-13.413-17.25-25.929-30.07-35.672-16.27-12.363-30.73-26.938-48.41-37.671-9.02-5.479-8.52-13.528.49-19.584,11.78-7.92,24.55-11.022,38.17-3.906,20.7,10.819,38.87,25.079,55.95,40.852,1.66,1.534,3.17,4.558,5.83,3.206,2.58-1.312,1.37-4.345.96-6.585a74.426,74.426,0,0,1,1.46-33.118c1.57-5.907,1.12-11.963.26-17.959-1.5-10.425-3.07-20.84-4.54-31.269-0.34-2.415-.26-5-3.36-5.653-7.21-1.519-7.42-7.374-7.3-12.743,0.24-9.879-3.37-17.909-9.14-25.76-9.74-13.244-13.79-28.763-14.47-44.956-0.56-13.452,5.45-19.783,18.83-22.052a150.612,150.612,0,0,1,27.02-1.695c9.06,0.105,18.1.089,26.76-3.183h18.09c5.41,3.06,9.71,7.215,11.98,13.074,1.88,4.883,5.57,6.86,10.42,7.3,19.3,1.756,36.72,9.335,53.82,17.683,9.1,4.443,18.3,7.351,28.58,7.234,8.87-.1,17.24,2.113,24.41,8,15.39,12.629,30.45,25.629,44.71,39.516,9.52,9.277,9.98,17.31,2.21,28.108-7.99,11.116-19.42,17.992-31.35,23.866-8.89,4.373-16.19,9.164-16.29,20.471-0.02,3.181-1.72,6.991-5.77,6.969-3.58-.02-4.47-3.651-5.36-6.465-2.49-7.892-1.82-16.115-2.32-24.222-0.17-2.861.09-6.807-3.84-7.109-3.13-.241-4.24,3.22-4.95,5.724-1.14,4.036-2.28,8.24-2.32,12.384a102.349,102.349,0,0,1-4.43,29.4c-2.98,9.656-.31,17.049,7.59,23.024,8.2,6.2,16.57,12.578,21.87,21.42,26.31,43.9,40.92,90.482,29.85,142.208-5.02,23.443-7.43,46.922-5.36,70.9a268.261,268.261,0,0,1-.02,43.36c-1.56,20.4-4.06,40.774-.89,61.295,4.5,29.1,9.79,57.74,31.11,80.411C1678.46,845.377,1680.33,850.829,1683,855.529Zm-83.82-102.3c2.63-23.912-6.17-46.288-9.26-69.429-0.23-1.768-.55-3.821-2.56-4.318-0.8-.2-2.36.713-2.88,1.55-7.47,12.17-12.93,25.767-24.88,34.744a1.49,1.49,0,0,0-.33.826c-3.53,14.26-5.75,28.507,3.39,41.629,8.24,11.817,16.78,23.427,25.36,35a17.966,17.966,0,0,0,5.55,4.474c2.34,1.344,5.21,2.5,7.67.79,2.33-1.627,1.24-4.415.81-6.722A161.887,161.887,0,0,1,1599.18,753.229Z" transform="translate(-1256 -217)"/>
</svg>
