<svg xmlns="http://www.w3.org/2000/svg" width="481" height="292" viewBox="0 0 481 292">
  <defs>
    <style>
      .cls-1 {
        fill: #fff;
        fill-rule: evenodd;
      }
    </style>
  </defs>
  <path class="cls-1" d="M345.489,863.726l-0.529-61.172,36.147-.024L381.4,835.2a7.946,7.946,0,0,0,7.925,7.9,7.774,7.774,0,0,0,7.779-7.919l-0.279-32.651,29.8-.028,0.279,32.651a8,8,0,0,0,7.945,7.924,7.823,7.823,0,0,0,7.8-7.939L442.37,802.5l19.571-.01,0.546,61.138ZM23.2,783.22l92.808-45.931a16.6,16.6,0,0,1,22.209,7.677l18.062,36.569,29.268-14.484,22.956,7.9a16.428,16.428,0,0,0,20.961-10.373l7.662-23.059,6.683-3.308,19.26,6.633a16.392,16.392,0,0,0,20.933-10.36l6.422-19.343,12.633-6.252,22.956,7.906a16.392,16.392,0,0,0,20.934-10.36l7.662-23.059,27.06-13.393,47.134,9.591,0.862,1.745-21,43.32L183.279,836.191l18.062,36.569a16.619,16.619,0,0,1-7.391,22.327l-25.633,12.686a94.789,94.789,0,0,1,3.888,31.8c7.829-6.414,13.827-17.391,16.443-30.679l11.594-5.738A26.647,26.647,0,0,0,212.1,867.47l-13.625-27.585,12.232-6.054a81.7,81.7,0,0,1,22.165,35.514l231.31-.149A16.8,16.8,0,0,1,480.9,885.864l0.11,13.332a16.445,16.445,0,0,1-16.426,16.677l-231.3.177a79.912,79.912,0,0,1-68.617,57.4A107.268,107.268,0,0,1,112.8,1028.67c-51.735,25.6-113.608,6.35-137.954-42.943-24.332-49.263-2.054-110.174,49.681-135.778a117.735,117.735,0,0,1,10.867-4.678L15.78,805.563A16.689,16.689,0,0,1,23.2,783.22h0ZM78.927,933.344l-36.06-73.009a97.01,97.01,0,0,0-10.945,4.588c-43.564,21.56-62.494,72.463-42.23,113.49s72.149,56.847,115.714,35.287a91.11,91.11,0,0,0,41.12-40.488,80.832,80.832,0,0,1-45.876-21.9,25.01,25.01,0,0,0,6.785-2.23L135.8,935.047c5.433,6.261,12.107,10.069,19.308,10.48a79.331,79.331,0,0,0-1.855-30.3l-52.109,25.789a16.612,16.612,0,0,1-22.216-7.674h0ZM139.57,887.2c-13.123-17.072-32.585-27.879-53.9-30.989l15.481,31.342a16.618,16.618,0,0,0,22.206,7.67Zm39.1-67.829,3.457,7L389.474,723.757l-3.457-7ZM73.781,794.851a16.638,16.638,0,0,0-7.391,22.326l10.639,21.541c30.011,1.277,58.276,15.24,76.258,39.224a16.648,16.648,0,0,0,1.189-16.778l-34.761-70.378a16.612,16.612,0,0,0-22.237-7.663Zm0,0" transform="translate(0 -670)"/>
</svg>
