<?xml version="1.0" encoding="utf-8"?>
<!-- Generator: Adobe Illustrator 21.0.2, SVG Export Plug-In . SVG Version: 6.00 Build 0)  -->
<svg version="1.1" id="Слой_1" xmlns="http://www.w3.org/2000/svg" xmlns:xlink="http://www.w3.org/1999/xlink" x="0px" y="0px"
	 viewBox="0 0 1190 395" style="enable-background:new 0 0 1190 395;" xml:space="preserve">
<style type="text/css">
	.st0{fill:#005592;}
</style>
<path class="st0" d="M85,77c1,0.5,2,0.9,3.1,1.4c-0.3,1.3-0.5,2.2-0.7,3.2c2.1,1.2,4.4,2.5,7.4,4.3c-2.1,0.7-3.2,1-4.7,1.5
	c-0.1,1.1-0.2,2.4-0.3,3.9c1,0.6,2,1.2,3.2,1.9c1.1-0.7,2.1-1.5,3.6-2.5c0.9,0.9,1.6,1.8,2.1,2.3c0.3,4.5,0.3,4.5-1.5,7
	c-1.8-0.4-3.6-0.9-5.1-1.3c-2.5,1.4-2.5,3.1-1.7,5.5c1.2,0.4,2.7,0.8,4.5,1.3c-1.2,1-2.3,2-3.3,2.7c0.6,2.1,1.3,4.2,2.1,6.6
	c3.1,0.3,6.5,0.9,9.9,1c3.4,0,6.6,0.7,9.5,2.9c2.2,2.7,2.1,5.7,1,9.1c-1.7,5.3-4.7,9.9-8.1,14.1c-3.2,4.1-4.7,8.2-4.3,13.3
	c0.1,1.6,0,3.3,0,5.3c2.1,1,4.1,2,6.2,3c-0.2,1.4-0.4,2.7-0.5,4.1c2.9,1.1,6.4,1.4,8.1,4.8c0.1,6.4-2.1,8.2-10.8,8.5
	c-1.3,0.7-1.9,1.7-1.9,3.2c0.1,11.8-0.6,23.7,0.3,35.5c1.2,17.1,4.5,33.9,8.9,50.4c1,3.7,2.8,6.3,7.1,7.2c-0.4,1.9-0.7,3.7-1.1,5.4
	c0.8,3.3,3.1,5.4,5.7,7.2c3.5,2.4,7.2,4.7,10.6,7.3c3.9,3,6.9,6.7,6.7,12.1c-0.1,2.5-0.8,4.5-2.3,6.4c-0.9,1.1-1.7,2.4-2.9,4
	c2.1,1.1,3.9,2.1,5.4,2.9c7.7-0.6,15.1-1.2,22.6-1.8c0-0.7,0.1-1.3-0.1-1.6c-3.9-6.3-0.8-12,4-16.1c2.6-2.2,5.5-4.2,8.1-6.6
	c5.1-4.6,5.1-4.9,5.3-11.9c0.9-0.6,2-1.2,3.5-2.1c2.2-3.7,3.1-8.2,4.2-12.7c1.9-7.7,3.2-15.4,4.4-23.2c1.6-11.1,2-22.1,1.7-33.2
	c-0.1-3.3-0.8-6.5-1.2-10.1c-2.4-0.5-4.6-1.1-6.8-1.5c-4-0.8-5.5-2.8-5.7-7.3c1.3-2.4,3.6-3.2,6.4-3.8c0.6-1.2,1.2-2.5,1.9-4
	c0.9-0.4,1.9-0.9,2.9-1.5c0.8-0.5,1.6-1.1,2.6-1.7c-0.6-1.5-1.1-2.8-1.6-4.1c0.6-1,1.1-2,1.6-2.8c-0.7-3.4-3.1-5.3-5.3-7.4
	c-2.1-2-3.7-4.3-4.1-7.2c-0.2-1.3-0.5-2.7-0.2-3.9c1.4-4.9,0.8-9.2-3-12.7c-0.2-0.2-0.2-0.6-0.5-1.2c0.3-0.6,0.8-1.4,1.3-2.4
	c1.5,0.3,2.7,0.6,3.8,0.9c2.4-0.3,4.6-0.7,7.6-1.1c3-3.1,6.3-6.9,12-7.6c-1.2-1.9-1.9-3-2.7-4.3c0.1-1.1,0.2-2.4,0.3-3.5
	c2.4-2.6,5.1-2.6,8.3-2.2c0.7,0.6,1.5,1.4,2.1,2c0.9,3-0.3,5.2-1.8,7.6c1.2,0.5,2.3,0.8,3.2,1.4c2.2,1.5,4.4,2.9,6.3,4.8
	c2.2,2.1,4.5,3.3,7.5,3.1c2.2-0.1,4.3,0,6.7,0c0.2,0.8,0.4,1.5,0.6,2.3c-1.5,1.9-2.8,3.7-4.2,5.4c0,4.8,0,9.5,0,14.7
	c-2.8,3.2-5.8,6.7-9.1,10.4c0.3,1.1,0.9,2.3,1,3.6c0.1,1.3-0.2,2.6-0.4,4.6c0.6,1.8,3,1.8,5.1,2.6c0.3,1.3,0.5,2.6,0.8,4
	c1.8,0.6,3.6,1.2,5.7,1.8c0.6,1.1,1.2,2.2,1.8,3.3c-0.5,1.4-0.9,2.7-1.3,4c-3.1,2.8-7.3,2.6-11.5,3.5c-0.3,2.4-0.9,4.8-1,7.2
	c-0.1,6.3-0.5,12.7,0.1,19c0.7,7.7,1.3,15.4,2.6,23.1c1.5,8.3,3.4,16.4,5.6,24.5c0.9,3.1,2,5.9,5.1,7c0.2,0.6,0.4,0.9,0.3,1.2
	c-0.6,6.4,2.9,10.2,8,13.2c2.4,1.4,4.7,3.1,6.8,5c3.3,2.9,5.3,6.5,4.5,11.7c6.9-0.3,13.6,0.7,20.5-1.2c4.3-6.4,12.6-8.2,17.4-14.4
	c0-2,0-4,0-6.1c1.1-0.7,2.2-1.5,3.7-2.5c0.7-2.8,1.8-5.9,2.2-9.1c0.9-7.9,2.6-15.7,2.3-23.7c-0.1-1.5,0.3-2.9,0.5-4.4
	c0.1-1.1,0.3-2.3,0.2-3.5c-0.2-3-0.5-5.9-0.9-8.9c-0.2-1.7-0.7-3.5-0.9-4.5c-3.5-1.4-6.2-2.5-8.8-3.6c-0.2-1.8-0.3-3.1-0.4-4.8
	c1.5-1,3.1-2.1,5-3.3c0.1-0.7,0.2-1.8,0.3-2.7c1.8-2.4,5.4-1.4,6.8-4.2c-2.8-6.8-5.9-13.5-8.4-20.4c-1.6-4.3-2.6-8.8-3.2-13.4
	c-0.3-2.1,0.5-4.6,1.5-6.6c1.7-3.2,3.7-6.3,6.1-9c3.7-4.3,7.8-8.2,11.9-12.5c-0.7-0.8-1.7-1.9-2.7-3.1c0-1.1,0-2.3,0-4.1
	c0.5-0.5,1.3-1.3,2-1.9c2.3,0,4.1,0,5.9,0c0.2-0.2,0.4-0.4,0.6-0.7c1.2,1.3,2.4,2.6,3.7,3.9c0,3-2.4,4.1-3.6,6.1
	c1.5,1.2,2.9,2.3,4.2,3.4c0.2,3.6,0.3,6.6-0.6,9.8c-1.1,3.9-1.7,8-2.3,12.1c-0.3,1.9,0,3.9,0,6.3c1.5-0.3,2.5-0.4,3.5-0.6
	c1.6-7.5,3.2-14.7,4.8-22c6.7,4.4,10.2,10.7,10.4,18.2c0.1,4.1-1.2,8.4-2.4,12.5c-1.3,4.6-3.1,9-4.7,13.5c-1,2.8-1.9,5.5-2.9,8.1
	c1.4,3.1,4.9,2.2,6.8,4.4c0.2,0.9,0.5,2,0.7,2.9c3.8,1.7,3.8,1.7,5.3,4.3c-0.4,3.1-2.5,4.6-5.1,5.4c-1.9,0.5-3.4,1.2-4.4,3.1
	c0,7-0.4,14.2,0.1,21.3c0.6,9.5,2.7,18.9,5,28.1c0.6,2.3,2.2,4,4.8,5c0,2.5,0,4.9,0,7.4c6.1,4.1,12,8.1,18.6,12.6
	c5.4-0.3,11.7-0.7,18.3-1.1c3.5-6.7,11.1-10.2,14.3-17c-0.5-3.1-0.9-5.9-1.3-9c-3,0-6.1,0-9.1,0c-1.8-3.9,1.2-7.1,0.3-10.5
	c7.6-5.4,9.1-13.2,9.2-21.4c-2-4-4-7.9-6-11.8c0.3-3.7-0.4-7.4-2-11c-2.2-5.1-0.8-10,1-15c-2.8-7.8-0.9-14.3,5.6-19.4
	c0.2-1.3,0.4-2.4,0.6-3.7c2.5-2.4,4.9-5.2,8.6-6.1c1.4-0.4,3.1-0.8,4-1.7c2.8-3,6.2-3.6,10-3.3c0.7,0,1.3,0,2,0
	c6.3-3.1,9.9-4.2,17.8-1.9c5.9-2,11.9-1.2,18.4,0.4c0.7,1.4,1.7,3.1,2.8,5.3c-2.4,2.7-4.7,5.4-7.3,8.4c0.4,1.4,0.8,3,1.3,4.8
	c-0.5,0.8-1.1,1.7-1.7,2.7c3.4,5.9,5.2,12.4,6.9,18.9c1.1,4.4,2.2,8.9,4.9,12.8c0.9,1.2,0.9,3.1,1.5,5.3c5.2,6,4.2,12-2.8,17.3
	c-1.3-0.5-2.8-1.1-4.5-1.8c-0.6,0.8-1.3,1.7-2.3,2.9c-1.8-0.5-3.6-1-5.4-1.4c-1.6-1.4-3.1-2.6-4.7-4c-1.4,1.8-1.2,3.2-0.1,4.7
	c2.1,3,4.1,6,6.1,9c0.6,0.8,1.1,1.7,1.6,2.5c2.8,4.8,3.1,9.6,0.6,14.6c-0.4,0.9-0.8,1.8-1.2,2.8c1.1,1.1,2.1,2.2,3,3.2
	c0.1,0.4,0.1,0.5,0.1,0.7c-1.2,6.3,1.5,10.9,6.2,14.8c1.3,1,2.1,2.6,3.2,3.8c1,1.1,2.1,2.2,3.2,3.3c6.2,0,12.3,0,17.8,0
	c5.4-4.5,10.5-8.7,15.5-12.9c-0.1-0.1-0.3-0.2-0.4-0.3c0.8-1.8,1.5-3.5,2.4-5.3c1.8-3.4,2.6-7.1,3.1-10.8c0.6-4.6,0.6-9.2,1.2-13.8
	c1.4-10.5,1.5-21.1,2.2-31.7c0.5-7.5,0.2-14.9,0.7-22.4c-0.9-1.1-1.8-2.1-2.7-3.3c-0.1-1.3-0.2-2.7-0.4-4c-1.8-1.3-3.3-2.5-4.8-3.6
	c0-5.6,0-10.9,0-16.6c5.5-2,11.4-1.2,16.7-2.4c1.3,0.9,2.2,1.6,3.1,2.2c1.8,0,3.4,0,5.2,0c0.5-0.6,1-1.2,1.6-1.9
	c6.1,0,12.2,0,18.4,0c0.7,0.5,1.3,1,2.3,1.6c4-3.4,8.2-0.2,12.9-0.5c0.2,1.5,0.5,2.8,0.5,4c0.1,2.7,0,5.3,0,8c0.1,3.6-1,6.5-4.6,8
	c-0.4,0.2-0.8,0.6-1.2,1c-0.1,1.3-0.2,2.6-0.3,3.9c-0.9,0.7-1.8,1.4-2.6,2c-0.1,0.7-0.2,1.2-0.2,1.7c0,5.7-0.1,11.3,0.1,17
	c0.2,8.8,0.5,17.6,1,26.4c0.4,7.6,1,15.2,2,22.7c0.7,5,0.7,10.2,3.7,14.7c0.9,1.3,0.9,3.1,1.4,4.9c5,4.3,10.2,8.6,15.7,13.3
	c6.7,0,13.9,0,21.4,0c3.6-4.1,10-4.5,13.7-9.6c0.1-1.4,0.1-3,0.2-4.9c3.5-1.4,5-4.4,5.9-7.9c2.3-8.9,4.7-17.8,5.1-27.1
	c0.1-2.8,0.7-5.6,0.7-8.4c0-1.6-0.5-3.2-0.8-4.7c-3.8-0.9-7.3-1.7-10.8-2.5c-0.1-1.4-0.2-2.4-0.2-3.4c5.2-3,11.2-4.1,16.6-7.4
	c-1.5-1.4-2.6-2.6-3.8-3.6c-10-8-10.4-22.2-0.7-30c0.9-0.7,1.9-1.4,2.9-1.8c8.2-3.2,16.3-3.5,24.2,1.1c4.7,2.7,7,7.1,7.5,12.2
	c0.8,8-2.1,14.6-8.6,19.4c-1.1,0.8-2.1,1.6-3.5,2.6c0.5,0.7,0.8,1.7,1.4,2c4.8,2.1,9.7,4,14.8,6.1c-0.2,1.2-0.3,2.1-0.5,3.6
	c-1.9,0.4-3.8,0.9-5.7,1.3c-1.9,0.4-3.8,0.7-5.4,1c-3.1,8.2-0.7,16-0.3,23.7c0.5,7.7,2.3,15.3,5.4,22.6c0.9,0.6,2,1.4,3.2,2.2
	c0.1,2,0.2,4,0.3,6.5c4.6,3.2,9.5,6.6,14.7,10.2c1,0,2.3,0,3.6,0c8.8,0.3,17.6,0.3,26.3,1.2c5.6,0.6,11.2,0.6,16.9,0.8
	c6.1,0.3,12.2,0.7,18.4,1c4.6,0.3,9.2,0.6,13.9,1c6.2,0.5,12.5,1.2,18.7,1.8c0.3,0,0.7,0,1,0c7.1,0.4,14.2,0.7,21.3,1.2
	c5.6,0.4,11.1,1.2,16.7,1.8c4.1,0.4,8.2,0.7,12.3,1c5.3,0.4,10.6,0.7,15.8,1.2c4.7,0.5,9.5,1.2,14.2,1.7c3.8,0.4,7.6,0.8,11.3,1.1
	c4.4,0.4,8.9,0.6,13.3,1.2c6.9,0.8,13.7,1.9,20.5,2.8c3.4,0.4,6.9,0.7,10.3,1.1c9.3,1.3,18.6,2.6,27.9,3.9c7.8,1.1,15.7,2,23.5,3.2
	c6.3,1,12.6,2.1,18.9,3.3c7.9,1.5,15.8,2.9,23.7,4.7c11.9,2.6,23.8,5.1,35.5,8.1c9.8,2.6,19.5,5.7,29.2,8.9
	c7.7,2.5,15.1,5.8,22.2,9.7c8.8,4.8,12.9,8.9,17.7,17.2c0,0.5,0,1,0,1.8c-340,0-680,0-1020,0C85,289,85,183,85,77z"/>
</svg>
