<?xml version="1.0" encoding="utf-8"?>
<!-- Generator: Adobe Illustrator 21.0.2, SVG Export Plug-In . SVG Version: 6.00 Build 0)  -->
<svg version="1.1" id="Слой_1" xmlns="http://www.w3.org/2000/svg" xmlns:xlink="http://www.w3.org/1999/xlink" x="0px" y="0px"
	 viewBox="0 0 1190 395" style="enable-background:new 0 0 1190 395;" xml:space="preserve">
<style type="text/css">
	.st0{fill:#005592;}
</style>
<path class="st0" d="M659,389c0,2,0,4,0,6c-191.3,0-382.7,0-574,0c0-20,0-40,0-60c3.2,0,6.3,0,9.5,0c0.5-0.5,0.9-0.9,1.6-1.6
	c0-12.9,0-26.1,0-39.2c1.8-0.6,4,0.6,4.9-2.2c0-0.5,0-1.5,0-3c1.2-0.5,2.5-0.9,3.9-1.5c0.1-1.1,0.2-2.4,0.4-3.8c1,0,1.8,0,2.6,0
	c0.5-4.3,1-8.4,1.5-12.8c0.8-0.5,1.7-1,2.7-1.6c0-10.6,0-21.3,0-32c0-0.1,0.2-0.3,0.3-0.3c0.1,0,0.2,0.1,0.5,0.2
	c0,10.4,0,20.8,0,31.4c1,0.6,1.9,1.2,2.7,1.7c0.4,4.2,0.9,8.3,1.3,12.4c1.2,0.7,2.1,1.3,3,1.8c0.5,3,0.5,3,4,3.8c0,1.4,0,2.9,0,4.4
	c1.7,0.6,3.3,1.2,5.1,1.8c0,16.4,0,32.8,0,49.2c2.6,1.7,2.6,1.7,5.1-0.5c0-19.9,0-40,0-60.1c2.4-0.6,4.4,2,6.6,0.5
	c1.4-2.4,2.1-4.6,2.1-6.6c0-5.7,0-11.3,0-17c0-4,0-7.9,0-11.9c0.8,0,1.2,0,1.9,0c0,10.5,0,21,0,30.9c1.5,3.1,4.1,1.4,6.1,2.3
	c0,1.5,0,2.9,0,4.8c5.6,1.9,11.2,3.6,16.6,5.9c5.6,2.4,10.5,6.2,15.5,9.7c0,1.3,0,2.6,0,3.9c0.5,0.5,1,1,1.3,1.3c4.3,0,8.4,0,12.6,0
	c0-8.6,0-17.1,0-25.7c-2.2,0-4.3,0-6.3,0c-0.6-0.6-1.1-1.1-1.6-1.6c0.2-1.8-0.9-4,1.7-5.6c4.5,0,9.3,0,14.4,0c0-2.7,0-5.3,0-8.1
	c1.5,0,2.6,0,3.7,0c0.6-1,1.2-2,1.5-2.5c1.5-0.5,2.7-1,4.1-1.5c1.2,1.2,2.3,2.9,3.8,3.6c1.7,0.8,1.8,2.8,2.8,3.2c3.1,0,5.5,0,8.1,0
	c0-3.4,0-6.5,0-9.8c1.6,0,3.1,0,4.4,0c2.8-2.7,0.3-6.2,1.9-9.1c2.7,0.6,5.9-1.1,8.5,1.5c0,2.1,0,4.2,0,6.8c1.7,0.4,3.3,0.9,5.1,1.3
	c0,4.8,0,9.5,0,14.4c2.6,0,5.1,0,7.9,0c0-2,0-3.9,0-5.7c2.1-0.6,4.4,0.7,5.9-1.8c0-48.5,0-97.3,0-146.1c4.9-3.7,9.8-7.4,15.1-11.4
	c10.8,0,22.3,0,34,0c0.3-0.9,0.7-1.8,0.9-2.7c0.3-1,0.6-2.1,0.9-3.3c2.6,0,4.9,0,7.1,0c0-1.2,0-2,0-2.9c8.3,0,16.7,0,25,0
	c0,0.8,0,1.7,0,2.5c1.3,0.7,2.7,1.4,3.5,1.8c0.6,1.9,1.1,3.4,1.5,4.7c2.5,0,4.5,0,6.2,0c4.4,3.9,8.7,7.7,12.8,11.4
	c0,66,0,131.6,0,196.4c1.6,1.7,2.7,2.9,3.9,4.1c0.5,0,1.1-0.1,1.9-0.1c0-50.9,0-101.7,0-152.7c4.8-3.8,9.6-7.5,14.4-11.3
	c3.2,0,6.3,0,9.9,0c0.3-2.7,2.9-3.3,4.5-4.8c1.7,0,3.4,0,5.3,0c1.8,1.5,3.8,3.2,5.8,5c10.5,0,21.1,0,31.8,0
	c4.1,3.7,8.3,7.5,12.4,11.2c0,31.3,0,62.4,0,93.3c0.5,0.5,0.9,0.9,1.3,1.3c2,0,4.2,0,6.5,0c0.1-0.9-0.2-2,0.2-2.4
	c2.4-2.4,1.9-5.4,1.9-8.2c0-4.7,0-9.3,0-14c0-0.8,0.1-1.5,0.2-2.3c0.2,0,0.5,0,0.7,0c0,7.6,0,15.2,0,23c1.4,0.5,2.5,0.8,4,1.3
	c0.6-1,1.1-1.9,1.3-2.2c2.2,0,3.9,0,5.3,0c0.8,0.6,1.3,1.5,2.5,1.9c0.5-1.5,0.8-2.7,1.3-4.1c1.2,0.1,2.4,0.1,3.8,0.2
	c0,1.5,0,2.6,0,2.8c1.4,1.7,2.4,2.8,3.2,3.8c3.6,0,7,0,10.5,0c0.1-0.9,0.2-1.7,0.3-2.9c1.6,0,3.2,0,4.4,0c0.6-1.6,1-2.7,1.4-3.9
	c3.1,0,5.9,0,8.7,0c1-1.4,1.8-2.8,2.6-3.9c2,0,3.8,0,5.4,0c1.7,1.4,1.6,4.3,4.4,4.1c0,2,0,3.6,0,5.3c0.5,0.5,0.9,0.9,1.6,1.6
	c2.3,0,4.7,0,7.4,0c0,22.3,0,44.4,0,66.8c6.6,2.9,13,6,20.5,5c1.5,2.3,4,2.5,6.3,3c0.7,0.2,1.6-0.8,2.5-1.3c0-3.3,0-6.4,0-9.7
	c2.6,0,5.1,0,7.9,0c0-7.4,0-14.7,0-21.9c0.3,0,0.6,0,0.9,0c0,6.9,0,13.8,0,20.2c0.7,0.8,1.1,1.4,1.3,1.6c2.1,0,3.9,0,5.8,0
	c0-1.7,0-3.1,0-4.7c1.3-0.1,2.4-0.1,3.5-0.2c1.4-1.8,1.5-3.9,1.4-6c-0.1-5.3,0-10.7,0-16c0-2.6,0-5.2,0-8.3c0.9,0.9,1.4,1.3,2,1.9
	c0,7.3,0,14.8,0,22.3c0,2.2-0.3,4.5,1.6,6.2c2,0,4,0,6.1,0c0.2-0.6,0.4-1.2,0.7-1.9c1.4,0,2.9,0,4.3,0c0.2,0.6,0.5,1.2,0.7,1.8
	c0.8,0.1,1.6,0.2,2.5,0.3c0,1.2,0,2.3,0,3.2c0.6,0.6,1.1,1.1,1.8,1.8c2.3,0,4.7,0,7.4,0c0,13,0,25.7,0,38.8c1.6,0,3.1,0,4.5,0
	c0.1,0,0.2-0.2,0.4-0.3c0.1-0.8,0.2-1.6,0.3-2.8c1.8,0.9,3.3,0,3.7-1.4c0.7-2.6,3.1-2.3,4.5-3.5c2.1-1.7,3.8-0.8,5.7,0
	c0.5,0.2,1.2,0.1,1.3,0.2c2.4,2,3.8,4.4,6.4,5.3c0.1,0.8,0.2,1.6,0.3,2.7c2,0,3.9,0,6,0c0,4.1,0,7.9,0,11.3c1.2,2.4,3.2,1.2,4.8,1.9
	c0,2.8,0,5.5,0,8.2c0.6,0.6,1.1,1.1,1.6,1.6C656.7,389,657.8,389,659,389z"/>
</svg>
