<?xml version="1.0" encoding="utf-8"?>
<!-- Generator: Adobe Illustrator 21.0.2, SVG Export Plug-In . SVG Version: 6.00 Build 0)  -->
<svg version="1.1" id="Слой_1" xmlns="http://www.w3.org/2000/svg" xmlns:xlink="http://www.w3.org/1999/xlink" x="0px" y="0px"
	 viewBox="0 0 1190 395" style="enable-background:new 0 0 1190 395;" xml:space="preserve">
<style type="text/css">
	.st0{fill:#FFFFFF;}
</style>
<path class="st0" d="M279,6c3.7,0,7.3,0,11,0c0,1.4,1.1,1,1.8,1c3.6-0.4,6.8,1.3,10.7,1.3c-1.2,2.5-3.1,3.6-4.4,5.3
	c0.5,0.5,0.9,0.9,1.2,1.2c4.3,0.9,8.3,0,12-0.9c1,1,1.8,1.7,2.5,2.3c3.3-0.8,6.1-1.6,9.1-2.3c0.6,4,0.2,7.4-1,10.9
	c1.9,0.6,3.5,1.2,5,1.7c1.1,12.1-1.3,23.3-8.9,33.2c4,3.5,7.2,7.8,11.7,10.7c2.3,1.5,4.4,3.3,6.3,5.3c7.1,7.3,14.1,14.8,21.3,22.2
	c3.1,3.3,6,6.7,8.4,10.5c4.4,6.8,8,14,7.3,22.5c-0.3,3.4,0.2,6.8,1.1,10.1c0.5,1.7,1.2,3.5,2.1,5.1c2.5,4.5,6.7,7.1,10.4,10
	c2.9,2.2,6,4.5,9.4,6.1c3.5,1.6,6.2,4.2,9.4,6.1c3.7,2.2,7.2,4.7,10.4,7.4c2.9,2.5,5.8,5.1,7.1,9.9c0,0.7,0,2.4,0,4.1
	c-1.2,1.8-2.1,3.9-3.6,5.4c-1.5,1.5-3.7,2.3-5.4,3.6c-3.5,2.8-8,4.6-9.5,9.4c-0.1,0.3-0.3,0.5-0.4,0.6c-0.6,4.5,0.1,8.4,2.8,12
	c1.2,1.6,1.8,3.6,2.5,5.4c0.9,2.5,2.2,5,1.6,6.9c-2,2.6-3.6,4.6-5.1,6.6c4.8,3.4,4.8,3.4,6.8,6.8c1.5,7.5-2.4,13.8-3.2,20.5
	c0,0.4-0.4,0.8-0.5,0.9c0.4,1.2,0.7,2.1,0.9,3c0.3,0.9,0.4,1.9,0.9,2.6c2.4,3.1,4.2,6.6,5.9,10.1c1.3,2.6,2.5,5.4,2.3,8.6
	c-0.1,1,0.6,2.1,0.9,3.1c-1.8,2.3-0.5,5-1,7.1c-0.8,1.5-1.5,2.5-1.9,3.7c-1.5,4-4.6,6.7-7.8,9.1c-6.3,4.7-13.8,7-21.3,8.9
	c-6,1.6-11.9,3.5-17.7,5.6c-8.9,3.3-17.5,7.6-26.3,11.2c-9.6,3.9-16,11-21,19.9c-5.3,9.3-6.7,19.5-7.8,29.8
	c-0.3,3.2,0.8,4.6,0.8,4.6l-206.5,0.3c0,0,0.8-0.7,0.7-5.9c-0.1-3.3,0-6.6,0-10.3c1.5-0.7,3-1.8,4.7-1.9c3-0.4,6-0.1,9.1-1
	c2.5-0.7,5.3,0,7.9-0.2c2.5-0.2,5.1-0.6,7.6-1c1.8-0.3,3.7-0.6,5.4-0.8c2.2-5.2,2.6-10.4,3.3-15.5c0.6-4.3-0.5-8.7,0.9-13.1
	c0.7-2.1,0-4.6,0.2-6.9c0.2-2.2,0.9-4.4,0.9-6.6c0.1-6.3,0.1-12.6,0-19c-0.1-2.4-0.6-4.7-1-7.1c-0.1-0.6-0.9-1-0.9-1.6
	c-0.5-3.5-2.4-6.4-3.6-9.5c-1.3-3.3-2.9-6.5-4.4-9.6c-1.6-3.3-2.9-6.8-4.5-10.1c-3.7-8-8.1-15.7-12.6-23.2
	c-3.2-5.3-6.8-10.3-10.7-15c-2.8-3.3-5.7-6.5-8-10.2c-2.9-4.8-5.7-9.5-6.4-15.4c-0.2-2.2-0.1-4.6-1-6.5c-1.3-3-1.6-6.3-2.9-9.3
	c-1.3-3-2.7-5.9-3.8-8.9c-1.4-3.8-2.9-7.6-3.1-11.7c-0.1-1.4-0.7-2.7-0.9-4.1c-0.2-1.5-0.1-3-0.2-4.4c0-0.1-0.5-0.2-0.8-0.4
	c0-6.7,0-13.3,0-20c0.3-0.4,0.9-0.9,1-1.3c0.1-2.3-0.6-4.9,0.2-7c1.8-5.1,2.3-10.5,4.7-15.6c2.8-6,5.6-12,9.2-17.7
	c2.8-4.3,6.2-8.5,7.8-13.2c2.2-6.3,5.7-11.6,9.9-16.4c7-8,15.4-14.5,24.6-20c7.1-4.2,10.6-7.2,14.3-13.3c2.2-3.6,5.2-4.7,8.6-5.8
	c0.8,1.2,1.5,2.2,2.1,3.2c2.6-2,5.7-2.9,8.2-4.9c2.9-2.2,6.4-3.6,9.8-5.1c3.4-1.5,7.1-2.4,10.8-2.9c4.3-0.6,8.5-1.2,12.6-2.2
	c4.8-1.1,9.6-2.3,14.2-4.4c1.5-0.7,3.2-1.3,4.8-1.5c2.5-0.3,5.1,0,7.6-1c2-0.8,4.8-0.1,6.4-1.2c2.2-1.5,4.6-0.4,6.9-1.7
	c2.2-1.2,5.3-0.9,8-1.2c3.2-0.4,6.4-0.5,9.6-1.1c1.9-0.4,4.1-1.1,5.5-2.3c1.8-1.7,4-1.7,6-2.6C278.2,6.8,278.6,6.3,279,6z"/>
</svg>
