<?xml version="1.0" encoding="utf-8"?>
<!-- Generator: Adobe Illustrator 21.0.2, SVG Export Plug-In . SVG Version: 6.00 Build 0)  -->
<svg version="1.1" id="Слой_1" xmlns="http://www.w3.org/2000/svg" xmlns:xlink="http://www.w3.org/1999/xlink" x="0px" y="0px"
	 viewBox="0 0 1190 395" style="enable-background:new 0 0 1190 395;" xml:space="preserve">
<style type="text/css">
	.st0{fill:#005592;}
</style>
<path class="st0" d="M86,349c3,0.4,5.3-1.7,8.2-2.1c1.9-0.3,3.7-1.4,5.3-2c3.6-6.6,7.1-13,10.7-19.5c2.5-0.9,5.2-1.6,7.7-2.8
	c9-4.3,18.6-7.3,27.7-11.5c3.7-1.7,8.1-2.2,12.2-3.1c4.6-1,9-2.5,13.5-3.7c5.7-1.5,11.4-3,17.2-4.3c2.9-0.7,5.6-1.9,8.6-2.1
	c1.4-0.1,2.8-1.3,3.9-2.4c5.3-5.1,10.8-10,15.5-15.6c3.8-4.5,8.2-8.6,12.1-12.9c3.4-3.8,7.6-6.5,11.6-9.5c4.5-3.4,9.3-6.5,13.9-9.8
	c5.5-3.9,11.1-7.8,16.6-11.6c0.8-0.5,1.7-0.9,2.3-1.6c2.4-2.6,5.4-2.6,8.5-2.4c1.1,1.6,2.7,1,4.1,0.9c4.6-0.1,9,1.7,13.6,1.1
	c0.5-0.1,1,0.6,1.7,1.1c1.7-1.5,3.9-1.4,5.9-1c2.3,0.4,4-0.9,6.1-1.1c2.1-0.2,4.1,0.3,6.3-0.5c1.9-0.7,4.2-0.4,6.2-0.9
	c3.3-1.2,6.6-2.6,10-3.5c4.2-1.2,8.1-3,12.2-4.4c3.9-1.3,7.9-2.5,11.7-4.2c3-1.3,6.3-2.8,10-2.5c1.8,0.1,3.6-0.9,5.6-1
	c1.9,0,3.7,0.5,5.7-0.7c1.5-0.9,4,0.2,5.9-0.3c2-0.6,4-1,5.9-0.9c2.9,2.1,5.5,4.1,8.3,6c2.7,1.9,5.6,3.5,8.3,5.4c2.7,1.9,5.3,4,8,6
	c2.2,1.6,4.2,3.6,6.6,4.5c4.4,1.7,6.6,5.4,9.2,8.6c1,1.2,2,2.5,3,3.7c0.9,1.1,1.6,2.4,2.5,3.5c4.5,5.6,9.1,11.1,13.1,17.1
	c0.4,0.5,0.9,1,1.4,1.4c3.8,3.6,5.6,8.1,5.3,13.3c-0.1,2.1,1.2,3.6,1.1,5.6c-0.1,2-0.6,4.3,0.1,5.9c1,2.3,0.6,4.4,0.9,6.6
	c0.2,1.9,0.7,3.7,1,5.6c0.3,1.9-0.6,3.9,1,5.6c0.1,0.1,0,0.3,0,0.5c-0.5,7.3,4.2,12.6,7.3,18.5c1.8,3.6,4.3,6.9,5.5,10.7
	c1.3,4.1,4.4,5.3,7.7,6.6c2.9,1.1,5.7,2.4,8.5,3.5c7,2.8,13.8,6.1,21,8.5c1.8,0.6,3.5,1.4,5.1,2.2c4.5,2.1,9.1,3.7,14,5.9
	c0.4-0.2,1.1-1.1,1.7-1c4.5,0.6,8.7-1,13.1-1.1c2.2,0,4.4-0.6,6.6-1c2-0.3,4.3,1,6.1-1c0.2-0.2,0.6,0,1,0c4.7-0.3,9.4-0.6,14.1-1
	c1.9-0.2,3.7-0.7,5.6-0.9c1.8-0.2,3.6-0.1,5.4-0.2c0.2,0,0.5-0.4,0.7-0.7c5.5,1.4,9.7,5.3,14.6,7.8c6.9,3.6,13.6,7.5,20.2,11.5
	c3.6,2.1,7.4,3.9,11,6c1.7,0.9,2.8,1.9,3.4,3.6c0.6,1.6,1,3.3,1.4,4.9c-183.3,0-366.7,0-550,0C86,380.3,86,364.7,86,349z M694,89
	c-0.4,0.3-0.8,0.9-1.3,1c-3,0.2-6,0.4-9.1,0.8c-5,0.8-9.8,2.1-14.7,3.1c-8.4,1.9-16.2,5.1-23.9,8.7c-2.9,1.4-5.8,2.9-8.6,4.6
	c-3.3,2.1-6.6,4.3-9.7,6.7c-3.6,2.7-7,5.5-10.6,8.3c-1.8-1.2-3.5-2.3-4.6-2.9c-5,0.4-5.6,5-8.4,7.3c-2.8,2.3-4.9,5.3-6.5,9.2
	c1.6,1.6,2.9,2.9,4.5,4.5c-1.7,3.1-3.8,6.4-5.5,9.8c-2.9,5.8-5.9,11.5-7.8,17.7c-1.1,3.4-1.6,7.1-2.8,10.4c-2.5,7.1-3,14.6-3.7,21.9
	c-0.7,8.1-0.2,16.3-0.2,24.4c0.7,1,1.4,1.9,2.6,3.4c8.3-26.1,20.1-49.7,36.4-71.2c1.8,1.4,3.4,2.6,5,3.9c2.4,2,4.6,4.1,6.9,6.1
	c5.5,4.9,11.2,9.5,16.6,14.4c5.2,4.7,10.6,9.1,15.8,13.8c5.9,5.3,12,10.5,17.9,15.9c4.9,4.5,10.1,8.6,15.1,13.1
	c5.4,4.9,10.9,9.8,16.5,14.4c3.8,3.1,7.2,6.6,10.5,9.6c1.4,0,2.4,0,3.7,0c5-5.9,10-11.9,15-17.9c0-0.7,0-1.3,0-2
	c-0.4-0.6-0.7-1.5-1.2-1.7c-3.3-1.2-4.6-4.9-8-6.1c-5.4-5.1-11.5-9.4-17.1-14.2c-3.9-3.4-7.8-6.7-11.9-9.9
	c-5.8-4.6-11.4-9.4-17.2-14.1s-11.6-9.3-17.1-14.2c-5.4-4.8-11.2-9.2-16.8-13.8c-5.1-4.2-10.1-8.7-15.1-13c-0.8-0.7-1.8-1.2-2.7-1.8
	c0-0.7,0-1.3,0-2.1c5.4-5,10.8-10.1,16.2-15.1c0.4-0.3,0.7-0.8,1.1-1c5.3-3.2,9.8-7.5,14.8-11.1c6.7-4.7,13.5-9.1,20.6-13.1
	c3.4-2,6.9-3.8,10.5-5.7c-0.5-0.9-0.8-1.6-1.2-2.3C696.7,89,695.3,89,694,89z M568.2,355.3c2.5-3.9,3.9-8.4,5.7-12.6
	c0.9-2.3,1.7-4.7,2-7.2c0.3-2.4,1.4-4.5,1.2-7.1c-0.2-2.5,0.6-5,0.9-7.6c0.3-2.3-0.7-4.4-0.9-6.6c-0.2-2.9-0.2-5.8-1.1-8.6
	c-0.7-2.2-1-4.6-1.7-6.8c-1.3-4.2-3.4-7.9-5.2-11.8c-2.5-5.6-6.8-9.9-10.4-14.7c-1.7-2.3-4.4-3.8-6.5-5.7c-3.4-3.2-7.4-5.4-11.3-7.7
	c-3.5-2.1-7.3-3.3-11.1-4.6c-5.5-1.8-11.3-3.2-17.1-3.3c-4.9-0.1-9.8-0.7-14.6,0.9c-1.6,0.5-3.4,0.3-5.1,0.9
	c-1.7,0.6-3.7,0.3-5.5,1.2c-1.5,0.7-3.1,1.4-4.7,2c-9.2,3.3-16.6,9.1-23.4,15.1c1,2.1,2.2,3.7,2.5,5.5c0.5,2.5,0,5,0.9,7.6
	c0.8,2.3,0.3,5,1,7.6c0.6,2.2,0.8,4.7,1,7.1c0.2,2.6,0.6,5.1,1.3,7.5c0.9,3.3,1.8,6.7,3.6,10c14.7-12.1,29.1-23.9,43.5-35.7
	c-2.2-2.4-4.6-4.1-5.1-6.7c2.2-1.9,4.1-3.5,6.2-5.3c3,3.6,5.8,7,8.7,10.5c2.8-2.1,5.5-4.3,7.7-5.9c1.9,1.9,3.5,3.5,5.4,5.3
	c0.1,1.7-1.5,2.5-3,3.5c-1.6,1.1-2.9,2.5-4.4,3.8c2.6,3.3,4.9,6.3,7.5,9.6c2.8-2.6,5.2-5.9,9.8-6.6c-0.6,3.1,4,3.2,3.1,6.4
	c-2.7,2.1-5.3,4.1-7.7,6c0.9,1.8,1.6,3.9,2.8,5.3c3.2,3.8,3.8,8.5,4.7,13c0.5,2.5,0,5.6-1.1,7.9c-1.3,2.7-2.7,5.7-5.6,7.5
	c-5.4,3.4-11.1,3.7-17.2,2.3c1,12.4,0.8,10.1-3,19.2c3.5,1.8,7.1,3.6,10.6,5.3c0.3-0.3,0.7-0.8,1.1-0.8c4.4-0.4,8.7-0.7,13.1-1
	c0.5,0,1.2,0.2,1.5,0c2-1.8,4.4-0.5,6.6-1c2.3-0.5,4.6-1,7.1-1c1.9,0,3.7-0.5,5.8-0.8C568,356.2,568,355.7,568.2,355.3z
	 M471.6,252.5c5-2.7,10.3-4.2,15.4-6.4c1.8-0.8,4-0.9,6.1-1c1.9-0.1,3.5-1.6,5.6-1.1c2.1,0.5,4.1-0.6,6.1-0.9
	c5.6-0.9,11,1.1,16.6,0.9c1.5,1.8,3.7,0.5,5.5,1.2c6.1,2.6,12.5,4.2,18.4,7.6c4.7,2.7,9.1,5.8,13.2,9.1c7.4,6.1,12.9,13.8,17.4,22.2
	c4.2,7.9,6.5,16.4,8.2,25.1c0.8,3.9,0.3,8,0.1,12c-0.2,4,0.1,8-0.8,12.1c-1.5,7.5-3.8,14.6-7.1,21.7c2.3,0,4.4,0.2,6.5-0.1
	c2.2-0.2,4.3-0.9,6.6-1.4c0.4-1.2,0.8-2.4,1.2-3.5c3.5-8.9,4.7-18.3,5.5-27.7c0.4-4.2-0.6-8.4-0.9-12.6c-0.3-4.6-1.3-9.2-2.5-13.5
	c-1.9-6.7-4.6-13.1-7.9-19.2c-3.6-6.4-7.8-12.3-12.8-17.7c-2.7-2.9-5.6-5.4-8.7-7.9c-4.5-3.6-9.1-6.8-14.1-9.4
	c-6.2-3.2-12.5-6.3-19.6-7.1c-4.1-2.5-8.9-1.7-13.3-2.8c-2.8-0.7-6-0.2-9-0.1c-3,0-6.3-0.7-8.8,0.4c-2.8,1.2-6-0.7-8.3,1.6
	c-8.2,1.2-15.9,4.2-23.1,8.1c-5.9,3.1-11.6,6.5-16.2,11.9c0.9,3.5,4.8,4.8,5.7,8.4C462.3,259.4,466.5,255.3,471.6,252.5z
	 M480.9,330.7c1.8,2,3.8,3.8,5,6c2,3.4,4.9,5.8,7.7,8.2c1.3,1.1,3,3,5.6,2.2c0.5-0.2,1.3,0.7,1.7,1c1-0.4,1.7-0.9,2.4-1
	c5.5-0.9,8.6-4.3,8.7-9.6c0-1.5,0.2-3-0.1-4.5c-0.4-1.8-0.9-3.6-1.8-5.2c-2.6-4.8-6.6-8.5-9.9-13.1
	C493.6,320.2,487.3,325.4,480.9,330.7z M510.6,314.1c0.7,0.9,1.9,1.5,2.3,2.5c1,2.7,3.3,4,5.2,5.8c1.9,1.9,4.9,2,7.4,2.3
	c1.6,0.2,3.7-0.9,5.5-2.1c1.9-1.2,2.3-3.3,3.9-4.2c0-3.2,0-6.1,0-8.5c-2.5-6.1-6.8-10.3-10.5-15.2c-5.9,4.9-11.7,9.6-17.7,14.6
	C508.2,311.2,509.4,312.7,510.6,314.1z M615.9,268.6c-1.8,2.6-2.6,5.7-1.8,8.6c0.7,2.6,1.5,5.3,3.8,7.4c2.1,1.9,4.7,3.1,7.1,3.2
	c6.9,0.5,11.6-3.1,14-10.4c1-9.4-4.3-15.8-16.6-14.4C617.8,265.9,617.8,265.9,615.9,268.6z M523.3,183c1.9,0,3.5,0,5.2,0
	c6.2-3.8,6.2-3.8,8.3-7.5c0.6-4,0.1-7.6-1.8-10.9c-2-3.5-6-3.2-8.7-4.4c-5.4,1-9.7,3.1-11.6,8.7c0.4,2.8,0.7,5.7,1.2,9.2
	C518.5,179.7,521,181.4,523.3,183z M620.6,242.9c1.8,0,3.5,0,5.6,0c1.6-1.5,3.3-3.3,4.6-4.6c0.8-5.5-0.5-9.3-5.8-11.3
	c-1.1,0-2.8,0-3.9,0c-5.3,2-6.6,5.8-5.8,10.5C616,240.4,618.3,241.8,620.6,242.9z M554.1,183.5c-0.7,1.1-1.2,2.7-1,4
	c0.5,3.7,3.1,5.5,6.3,6.6c2.9-0.8,4.9-2.6,6.6-4.7c0-1.4,0-2.7,0-4c-1.1-1.5-2.2-3.1-3.2-4.4c-2,0-3.6,0-5.3,0
	C556.3,181.8,554.9,182.5,554.1,183.5z M552.6,215.5c0.6,2.4,1.1,4.5,1.6,6.6c2.3,0.4,4.3,0.8,6.5,1.2c1.3-2,2.5-3.9,3.6-5.6
	c-1-3.1-2.5-5.1-6.3-5.9C556.4,212.9,554.6,214.1,552.6,215.5z M597.7,248.2c-0.1-0.3-0.2-0.6-0.3-0.9c1-0.6,1.9-1.2,2.5-1.6
	c0-2.2,0-3.8,0-5.6c-1.4-0.8-2.7-1.5-4.1-2.3c-1.7,1.2-3.4,2.4-5.2,3.7c0.5,1.9,1,3.5,1.5,5.5C594.2,247.4,596,247.8,597.7,248.2z"
	/>
</svg>
