<svg xmlns="http://www.w3.org/2000/svg" width="26" height="26" viewBox="0 0 26 26">
  <defs>
    <style>
      .cls-1 {
        fill: #000;
        fill-rule: evenodd;
      }
    </style>
  </defs>
  <path id="map-mark.svg" class="cls-1" d="M1075,9111.27a4.73,4.73,0,1,0,4.73,4.73A4.746,4.746,0,0,0,1075,9111.27Zm10.52,3.55a10.55,10.55,0,0,0-9.34-9.34V9103h-2.36v2.48a10.332,10.332,0,0,0-9.34,9.34H1062v2.36h2.48a10.569,10.569,0,0,0,9.34,9.34V9129h2.36v-2.48a10.55,10.55,0,0,0,9.34-9.34H1088v-2.36h-2.48Zm-10.52,9.45a8.27,8.27,0,1,1,8.27-8.27A8.216,8.216,0,0,1,1075,9124.27Z" transform="translate(-1062 -9103)"/>
</svg>
