<svg xmlns="http://www.w3.org/2000/svg" width="13" height="15" viewBox="0 0 13 15">
  <defs>
    <style>
      .cls-1 {
        fill: #a1a1a1;
        fill-rule: evenodd;
      }
    </style>
  </defs>
  <path id="share.svg" class="cls-1" d="M1646.56,5000a2.339,2.339,0,0,0-1.48.52l-4.24-2.61a2.828,2.828,0,0,0,.03-0.41,2.728,2.728,0,0,0-.03-0.41l4.24-2.61a2.4,2.4,0,0,0,1.48.52,2.5,2.5,0,1,0-2.44-2.5,2.845,2.845,0,0,0,.04.41l-4.24,2.61a2.339,2.339,0,0,0-1.48-.52,2.5,2.5,0,0,0,0,5,2.4,2.4,0,0,0,1.48-.52l4.24,2.61a2.713,2.713,0,0,0-.04.41A2.441,2.441,0,1,0,1646.56,5000Z" transform="translate(-1636 -4990)"/>
</svg>
