<svg xmlns="http://www.w3.org/2000/svg" width="872" height="779" viewBox="0 0 872 779">
  <defs>
    <style>
      .cls-1 {
        fill: #fff;
        fill-rule: evenodd;
      }
    </style>
  </defs>
  <path id="charity_dog.svg" class="cls-1" d="M1891,669.8c-3.31-5.391-8.7-4.671-13.21-3.325-22.35,6.67-40.57-1.805-56.36-16.147-15.9-14.442-27.38-32.3-35.07-52.57-5.83-15.382-9.22-31.341-12.95-47.283-4.14-17.657-9.42-35.043-14.14-52.563a371.339,371.339,0,0,0-20.21-56.15,60.5,60.5,0,0,0-13.5-18.464c-9.77-9.481-19.56-18.874-30.41-27.192-21.54-16.523-46.2-26.049-71.99-33.278-26.98-7.564-54.69-10.654-82.49-10.9-46.78-.415-93.57-0.607-140.35-1.221-4.53-.06-9.08-0.309-13.6-0.66-9.13-.709-17.66-2.6-25.17-8.736-8.25-6.736-17.66-11.891-27.33-16.431-15.56-7.306-25.07-20.061-31.34-35.472a309.556,309.556,0,0,0-47.42-80.641,206.7,206.7,0,0,0-40.62-37.691,50.675,50.675,0,0,1-16.72-18.958,61.694,61.694,0,0,0-11.88-15.453c-12.23-12.126-20.53-25.895-19.12-44.029-3.77-.021-5.77,2.4-7.24,4.805-6.67,10.989-10.5,22.415-5.34,35.364,3.72,9.335,3.65,12.9,1.22,21.172a3.77,3.77,0,0,1-1.06-.307c0.09-10.379-3.16-20.127-5.31-30.118-2.1-9.817,1.5-19.782.59-29.754-0.12-1.322.38-2.652-.65-3.8h-2.37c-13.56,9.383-17.2,20.4-11.96,36.343,0.92,2.806,2.12,5.524,2.96,8.354,0.72,2.437,1.72,5.031,1.51,7.46-0.64,7.28.1,15.553-6.48,20.459-4.43,3.3-9.45,6.01-14.19,8.982-7.2,4.51-13.85,9.735-20.9,14.417-5.95,3.953-10.39,9.048-8.48,17.277,0.66,2.878.24,6.856-2.68,7.873-7.68,2.674-12.78,9.267-20.05,12.341-13.27,5.621-23.18,16.084-34.93,23.877-4.28,2.837-7.31,7.549-12.76,8.614v1.186c2.21,3.377,4.91,6.952,6.17,10.32,2.94,7.9,9.24,13.245,13.34,20.209,8.9,15.118,23.28,27.624,44.19,18.824,4.19-1.762,8.48-2.317,13.28.984,3.79,2.6,9.53,2.528,13.99-.653,4.84-3.454,9.13-7.4,11.89-12.922,3.4-6.822,16.54-13.948,23.69-13.121,10.21,1.181,17.41,6.439,20.06,16.547,3.35,12.84,10.19,24.446,13.13,37.354,3.78,16.573,10.14,32.443,8.85,50.269-1.72,23.766,2.46,47.768-1.24,71.543-2.5,16.126.56,31.392,5.48,46.552a26.49,26.49,0,0,0,4.57,8.208c3.67,4.685,6.74,9.692,7.54,15.78a91.02,91.02,0,0,0,20.04,46.526c3.24,3.972,1.63,9.2,1.86,13.747,0.74,14.791.75,29.613,2.66,44.343a38.349,38.349,0,0,0,2.13,9.8c5.92,14.313,4.48,29.528,5.22,44.386,1.05,21.24,3.21,42.472.5,63.835-1.09,8.553,1.43,17.267,3.56,25.691,1.94,7.654,1.67,15.324.53,22.95-1.59,10.583-14.14,19.726-25.23,18.789-11.74-.993-17.36,5.692-14.15,17.105,0.99,3.5,1.15,6.637-1.51,9.338-4.29,4.368-1.15,9.2-.03,13.232,0.78,2.794,5.74,2.4,8.57,1.434,3.92-1.341,7.11-.55,10.56,1.072,7.42,3.484,14.75-.727,22.13-0.478,7.4,0.249,13.21-3.276,17.33-8.7,3.63-4.777,9.38-6.674,12.99-11.442a10.217,10.217,0,0,1,8.91-3.913c5.05,0.542,6.55-2.294,6.73-6.743,0.23-5.524.65-11.042,1.09-16.554,0.44-5.419,1.65-10.449,6.59-13.83,3.7-2.533,4.21-6.284,3.6-10.53-1.96-13.655-4.27-27.216-4.82-41.108-1.24-31.437,3.72-62.18,8.92-92.931,1.13-6.675,2.15-13.036-.18-19.765-3.3-9.536-2.08-19.992-5.31-29.614a1.658,1.658,0,0,1-.1-1.121c2.12-3.549,6.34-5.294,7.86-9.443,1.67-4.555,5.53-4.659,9.67-4.658,3.47,0,6.69-1.79,10.11-2.533,20.56-4.449,41.38-7.8,61.57-13.8,5.57-1.658,10.62-5.041,15.98-7.486,18.97-8.655,35.61-21,52.61-32.816,6.7-4.655,15.34-4.2,22.6-7.711,3.34-1.616,7.23-1.771,11-1.886,11.8-.362,23.6-0.628,36.09-3.091-8.97,7.018-1.8,13.755-.66,20.416,0.15,0.9,2.54,1.673,4,2.062a41.922,41.922,0,0,0,19.37.474c8.1-1.663,16.87-1.978,24.14-5.432,14.16-6.729,25.42-.651,36.02,6.64,7.95,5.468,12.91,14.448,16.69,23.28,2.43,5.677,8.24,8.162,10.21,14.036,2.99,8.936,5.49,18.044,10.03,26.484,5.76,10.706,14.41,18.7,23.24,26.536,2.86,2.544,5.47,5.073,7.25,8.4,5.89,11.024,13.71,20.726,21.56,30.314,3.78,4.627,8.98,8.219,13.9,11.768,10.1,7.277,17.69,17.328,27.71,24.677,3.2,2.349,4.32,6.088,4.98,9.806,2.86,16.289,6.93,32.4,8.19,48.921,0.52,6.823-.5,13.786-1.09,20.661-0.35,4.073-2.99,6.395-6.93,4.966-11.51-4.173-16.94,5.788-24.67,10.27-1.91,1.1-2.1,3.571-2.15,5.865-0.11,5.1.24,10.184-1.26,15.263-0.95,3.2-.09,5.681,4.49,6.491,4.74,0.842,9.4,2.122,14.28,2.626,9.74,1,17.79-2.206,24.88-8.6,1.39-1.252,2.59-4,4.4.051,1.28,2.874,4.12,2.265,6.71,1.1,3.79-1.71,9.5-1.912,9.04-7.616-0.96-11.672.93-23.312-.2-34.938-0.36-3.686-.25-7.5-2.62-10.786a4.1,4.1,0,0,1-.52-3.372c2.88-7.053,2.24-14.678,3.35-22.141,3.86,1,4.04,4.156,4.56,6.637,1.42,6.757,2.22,13.642,3.62,20.4q3.825,18.393,8.11,36.684a19.476,19.476,0,0,1-.62,11.021,3.151,3.151,0,0,1-3.45,2.456c-8.7.04-19.97,8.659-21.93,16.981-1.24,5.247-2.32,10.08-6.49,14.338-4.41,4.5-3.19,7.088,2.94,7.266,9.27,0.269,18.24,4.359,27.89,1.4,2.37-.728,6.06,2.841,9.15,4.435h15.4c5.88-3.867,9.53-8.989,9.64-16.326a5.686,5.686,0,0,1,2.14-4.73c7.19-4.682,5.42-11.1,4.07-17.833-2.43-12.175-4.73-24.4-6.4-36.7-2.53-18.643,1.54-36.9,4.25-55.2,0.35-2.374,1.13-4.3-1.3-6.306-6.37-5.267-12.33-11-19.78-14.9-12.86-6.718-21.83-17.14-28.34-30.039-5.13-10.184-9.75-20.948-16.67-29.835-9.06-11.633-10.82-24.938-12.9-38.451-1.45-9.349-1.32-18.87-3.07-28.227a25.847,25.847,0,0,1,1.15-14.521c2.71,6.938,5.36,12.546,6.89,18.63,2.68,10.652,7.92,20.167,14.16,29,8.24,11.68,15.68,23.869,26.76,33.548,13.32,11.633,27.93,21.383,44.76,25.262,16.49,3.8,33.71,2.717,48.1-9.015V669.8Z" transform="translate(-1019 -90)"/>
</svg>
