<svg xmlns="http://www.w3.org/2000/svg" width="313.062" height="401.094" viewBox="0 0 313.062 401.094">
  <defs>
    <style>
      .cls-1 {
        fill: #fff;
        fill-rule: evenodd;
        opacity: 0.1;
      }
    </style>
  </defs>
  <path id="charity-footprints-1.svg" class="cls-1" d="M288.285,868.03c-19.078,1.013-34.118-10.208-41.594-28.143-7.5-17.991-2.277-33.095,6.785-48.208,5.273-8.795,12.707-15.991,17.824-24.9,6.194-10.785,10.125-22.55,14.873-33.965a75.078,75.078,0,0,1,17.693-25.946c3.744-3.555,8.086-5.6,13.317-5.421,13.259,0.459,25.329,3.713,34.252,14.571,2.3,2.8,5.159,5.157,7.274,8.074,6.7,9.233,16.108,13.468,26.763,16.268,26.469,6.956,38.041,21.688,40.279,49.552,0.776,9.652-1.4,17.852-8.136,24.937a102.752,102.752,0,0,1-14.162,12.981c-8.455,6.087-17.675,9.241-28.221,7.892-8.96-1.145-17.967-1.924-26.914-3.161-6.048-.837-10.834.644-14.881,5.456-3.7,4.4-8,8.285-11.983,12.448-6.171,6.45-14.238,9.873-21.9,13.952Zm183.5-187.894c1.826,20.735-8.376,34.581-25.394,44.306-7.824,4.472-15.908,4.039-23.348-.967-12.139-8.169-19.251-19.875-21.18-34.29-2.456-18.349-1.139-36.318,8.438-52.79,7.952-13.679,30.179-15.463,40.194-3.276,5.39,6.56,9.054,14.136,12.506,21.828,0.671,1.494,1.448,2.939,2.176,4.406Q468.486,669.745,471.789,680.136ZM174.766,764.924c-1.23-11.462-2.481-22.9-2.158-34.486,0.49-17.576,13.789-28.531,26.857-32.977,5-1.7,8.985,1.038,12.658,3.823,12.01,9.107,20.746,21,28.105,34.02a39.91,39.91,0,0,1,5.127,16.883c1.8,23.778-12.831,39.136-32.619,44.289-12.657,3.3-23.083-3.83-31.963-12.658Q177.769,774.371,174.766,764.924ZM232.2,480.029c3.428,8.6,3.594,17.7,4.015,26.753,0.042,0.879.265,2.166-1.092,2.4-1,.175-1.161-0.932-1.706-1.477-2.136-2.138-1.2-7.558-5-6.916-2.135.361-3.58,4.767-5.36,7.334a4.173,4.173,0,0,1-2.008,1.638c1.422-10.031,5.193-19.343,8.337-28.832Zm35.108,102.89a346.5,346.5,0,0,1,12.715,42.643c1.647,7.117.323,13.555-2.878,19.61-6.444,12.191-12.226,25.042-25.749,31.443a17.684,17.684,0,0,1-6.015,2.026c-17.407,1.549-36.576-10.438-42.6-26.787a197.426,197.426,0,0,1-10.574-43.181c-2.317-17.959,4.475-33.008,14.434-47.053a82.537,82.537,0,0,1,16.792-18c9.789-7.525,20.974-6.906,30.03,1.488a12.019,12.019,0,0,1,3.519,5.272Q262.1,566.665,267.308,582.919Zm20.126,0.069c-2.368-9.339-7.589-18.038-5.987-28.287a79.308,79.308,0,0,1,4.541-17.166c3.03-7.64,8.755-11.422,16.507-12.2,19.19-1.922,35.786,3.156,48.221,18.859a125.056,125.056,0,0,1,21.218,38.867,34.2,34.2,0,0,1,1.041,18.056,59.122,59.122,0,0,1-14.349,28.346c-10.472,11.436-25.052,14.243-39.137,7.712-0.149-.069-0.29-0.159-0.443-0.217-11.143-4.143-17.9-11.964-21.019-23.6C295.252,603.017,290.229,593.384,287.434,582.988Zm119.939-11.157c7.788,8.5,15.242,17.16,20.294,27.573,0.86,1.772,1.445,4.073-.694,5.347-2.283,1.359-4.5.3-6.179-1.48a46.165,46.165,0,0,1-3.416-4.863c-0.541,3.889-1.052,6.864-1.343,9.862-0.254,2.609-1.466,3.857-4.115,3.755-2.716-.105-2.538-2.151-2.625-3.911C408.7,596.113,408.655,584.079,407.373,571.831ZM296.025,484.038c-1.736,3.24-.087,6.43-2.237,10.232-1.906-9.077-3.574-17.028-5.247-24.979-0.459-2.183.389-2.714,2.391-2.018,11.38,3.956,18.462,12.069,22.339,23.289,0.823,2.384-.21,3.111-2.407,2.51-3.779-1.035-7.682-1.769-10.427-5.081A41.708,41.708,0,0,0,296.025,484.038ZM164.78,665.622l0.546,17.413-1.3.067c-3.094-10.517-8.5-20.828-2.154-32.2,0.694-1.245,1.033-3.282,2.657-3.211,2.05,0.09,1.889,2.395,2.357,3.837a228.585,228.585,0,0,0,9.475,24.429L165.89,665.146Z" transform="translate(-158.938 -467)"/>
</svg>
