<svg xmlns="http://www.w3.org/2000/svg" width="334" height="242.031" viewBox="0 0 334 242.031">
  <defs>
    <style>
      .cls-1 {
        fill: #fff;
        fill-rule: evenodd;
        opacity: 0.1;
      }
    </style>
  </defs>
  <path id="charity-footprint-2.svg" class="cls-1" d="M567.437,764.516c5.54,13.875.066,29.127-12.226,34.015-10.391,4.166-22.355-.459-29.14-10.4a25.929,25.929,0,0,1-5.179,2.722,28.245,28.245,0,0,1-5.278,1.509,24.952,24.952,0,0,1-14.979,27.914c-12.718,5.084-27.206-1.443-32.451-14.564-5.212-13.12.885-27.848,13.57-32.932a1.707,1.707,0,0,0,.426-0.164h0c-6.391-16.04.558-33.883,15.6-39.886,14.16-5.642,30.287,1.246,37.5,15.416C547.574,743.425,561.931,750.707,567.437,764.516Zm-121.378-86.4c-10.817,5.576-11.932,24.9-3.8,40.641,8.129,15.711,23.47,23.944,34.254,18.368,10.817-5.576,12.98-22.862,4.851-38.574C473.265,682.809,456.875,672.542,446.059,678.118Zm42.677,15.941c3.77,17.287,16.488,29.193,28.354,26.6s18.454-18.729,14.651-36.015c-3.769-17.287-16.979-31.457-28.845-28.833C491.031,658.372,484.934,676.773,488.736,694.059Zm49.135,21.354c1.115,14.4,9.6,25.683,18.946,25.191s16.029-12.6,14.914-27-9.735-27.553-19.11-27.061C543.28,687.073,536.757,701.013,537.871,715.413ZM428.03,736.274c-7.113,6.069-4.359,21.551,4.753,32.769,9.08,11.218,22.257,15.383,29.37,9.315,7.146-6.068,5.539-20.107-3.54-31.325C449.5,735.815,435.176,730.206,428.03,736.274Zm218.633-63.535c7.211-14.17,23.338-21.058,37.5-15.417,15.045,6,21.994,23.847,15.6,39.886h0c0.492,0.2.295,0.1,0.426,0.164,12.718,5.085,18.815,19.812,13.571,32.933-5.212,13.12-19.733,19.615-32.451,14.563a24.952,24.952,0,0,1-14.98-27.913,28.257,28.257,0,0,1-5.277-1.509,26.833,26.833,0,0,1-5.179-2.723c-6.785,9.939-18.717,14.531-29.14,10.4-12.292-4.887-17.766-20.14-12.227-34.014C620.08,675.232,634.437,667.95,646.663,672.739Zm53.953-49.661c-8.129,15.712-5.933,33,4.852,38.574,10.817,5.576,26.157-2.624,34.253-18.369,8.129-15.711,7.015-35.031-3.8-40.64C725.135,597.1,708.746,607.334,700.616,623.078Zm-21.5-42.773c-11.866-2.591-25.076,11.546-28.845,28.833s2.786,33.424,14.652,36.015,24.583-9.315,28.353-26.6C697.076,601.3,690.979,582.93,679.114,580.3Zm-49.758,30.8c-9.342-.492-18,12.661-19.11,27.06s5.572,26.471,14.914,27c9.342,0.492,17.832-10.759,18.946-25.191C645.253,625.571,638.731,611.6,629.356,611.106ZM723.4,671.591c-9.08,11.218-10.686,25.257-3.541,31.325s20.29,1.9,29.37-9.316,11.866-26.7,4.753-32.768C746.834,654.731,732.51,660.373,723.4,671.591Z" transform="translate(-424 -580)"/>
</svg>
