<svg xmlns="http://www.w3.org/2000/svg" width="11.969" height="10.031" viewBox="0 0 11.969 10.031">
  <defs>
    <style>
      .cls-1 {
        fill: #fff;
        fill-rule: evenodd;
      }
    </style>
  </defs>
  <path id="check-mark.svg" class="cls-1" d="M761.583,509.17a0.922,0.922,0,0,0-1.281.227l-5.151,7.349-3.638-2.963a0.924,0.924,0,0,0-1.294.125,0.9,0.9,0,0,0,.131,1.285l4.4,3.592a0.936,0.936,0,0,0,.585.2c0.04,0,.08,0,0.125,0a0.943,0.943,0,0,0,.63-0.384l5.723-8.161a0.911,0.911,0,0,0-.235-1.271h0Zm0,0" transform="translate(-750.031 -508.969)"/>
</svg>
