<svg xmlns="http://www.w3.org/2000/svg" width="16" height="16" viewBox="0 0 16 16">
  <defs>
    <style>
      .cls-1 {
        fill: #005592;
        fill-rule: evenodd;
      }
    </style>
  </defs>
  <path id="checkbox.svg" class="cls-1" d="M1495.81,705.116a0.517,0.517,0,0,0-.73.08l-8.23,10.358-2.7-3.391a0.505,0.505,0,0,0-.72-0.08,0.526,0.526,0,0,0-.08.733l2.98,3.752a0.5,0.5,0,0,0,.44.258,0.558,0.558,0,0,0,.09-0.013,0.448,0.448,0,0,0,.05.011,0.531,0.531,0,0,0,.42-0.215l8.55-10.761A0.523,0.523,0,0,0,1495.81,705.116Zm-1.02,5.181a0.519,0.519,0,0,0-.52.521v8.619a0.517,0.517,0,0,1-.51.521h-12.21a0.519,0.519,0,0,1-.52-0.521V707.1a0.52,0.52,0,0,1,.52-0.521H1490a0.521,0.521,0,0,0,0-1.042h-8.45A1.555,1.555,0,0,0,1480,707.1v12.338a1.556,1.556,0,0,0,1.55,1.564h12.21a1.554,1.554,0,0,0,1.54-1.564v-8.619A0.516,0.516,0,0,0,1494.79,710.3Z" transform="translate(-1480 -705)"/>
</svg>
