<?xml version="1.0" encoding="utf-8"?>
<!-- Generator: Adobe Illustrator 21.0.2, SVG Export Plug-In . SVG Version: 6.00 Build 0)  -->
<svg version="1.1" id="Слой_1" xmlns="http://www.w3.org/2000/svg" xmlns:xlink="http://www.w3.org/1999/xlink" x="0px" y="0px"
	 viewBox="0 0 500 500" style="enable-background:new 0 0 500 500;" xml:space="preserve">
<style type="text/css">
	.st0{fill:#FFFFFF;}
</style>
<path class="st0" d="M577,315c0,31,0,62,0,93c-217.3,0-434.7,0-652,0c0-37.7,0-75.3,0-113c42.7,0.1,85.3,0.1,128,0.2
	c0.1,0,0.3,0.2,0.4,0.3c0.1,0.1,0.3,0.2,0.8,0.7c0,3.7,0,7.8,0,12.2c2.5,0,4.4,0,6.4,0c39,0,78,0,117,0c1.3,0,2.7,0.1,4,0
	c2-0.1,2.7,0.9,2.6,2.7c-0.1,1.2,0,2.3,0,3.5c0,24.2,0,48.3,0,72.5c0,1.6,0,3.3,0,4.9c1-2.4,1.6-4.8,1.7-7.2
	c0.6-13.8,1.2-27.6,1.4-41.5c0.2-11-0.2-22-0.4-33c-0.1-4.5-0.2-4.5-4.6-5.3c-3.5-0.6-4.2-1.4-4.4-4.9c-0.1-1.5-0.1-3-0.1-4.5
	c0-13.3,0-26.7,0-40c0-1.6-0.1-3.2-0.2-5.4c-2.1,0-3.9,0-5.7,0c-16.3,0-32.7,0-49,0c-4.8,0-4.8,0-5.1-5c0-0.5,0.2-0.9,0.4-1.9
	c1.8,0,3.6,0,5.3,0c31.5-0.2,63-0.5,94.5-0.7c8.3-0.1,8.9,0.4,8.9,8.6c0,23.8,0,47.7,0,71.5c0,1.7-0.5,3.6,0.7,5.1
	c2.6-0.7,2.1-2.7,2.2-4.2c0.1-5,0-10,0.1-15c0-1.8,0.2-3.5,0.3-5.6c2.2,0,3.8,0,5.5,0c9.7,0,19.3,0,29,0c2.3,0,4.7,0.1,6.2-2.4
	c-1.3-2.5-3.6-2.7-6-2.7c-9.8,0-19.7,0-29.5-0.1c-1.6,0-3.2-0.1-5-0.2c0-2.4,0-4.4,0-6.7c2,0,3.7,0,5.3,0c9.7,0,19.3,0,29,0
	c2.5,0,5-0.1,6.1-2.9c-1.5-2.2-3.7-2.1-5.9-2.1c-10.3,0-20.7,0-31,0c-1.2,0-2.4-0.3-4.4-0.5c2.9-2.4,5.6-2.3,8.1-2.3
	c8.8,0,17.7-0.1,26.5-0.1c2.6,0,5-0.4,6.7-2.7c-1.8-2.2-4.3-2.3-6.8-2.3c-9.7,0-19.3,0-29-0.1c-1.6,0-3.1-0.2-4.7-0.2
	c2.1-2.4,4.7-2.6,7.3-2.6c9,0,18-0.1,27-0.1c2.3,0,4.7,0,6.1-2.4c-1.9-2.2-4.3-2.5-6.9-2.5c-10,0-20,0-30-0.1
	c-1.1,0-2.3-0.3-3.4-0.5c0-0.4,0-0.8,0.1-1.2c1.9-0.2,3.8-0.4,5.7-0.4c10.5,0,21,0,31.5,0c1.5,0,3.2,0.2,3.4-2
	c0.1-2-1.5-2.5-2.9-2.8s-3-0.4-4.5-0.4c-9.7-0.1-19.3-0.1-29-0.2c-4.6,0-4.7-0.2-4.5-4.8c0-0.5,0.3-0.9,0.5-1.5
	c0.7-0.1,1.3-0.3,1.9-0.3c11.2,0,22.3,0,33.5,0.1c1,0,2.1,0.3,2.9-0.1c0.8-0.3,1.5-1.3,1.7-2.1c0.1-0.4-0.9-1.4-1.5-1.6
	c-2.4-0.5-4.9-1.1-7.3-1.2c-8.7-0.2-17.3-0.1-26-0.1c-1.7,0-3.6,0.5-5.3-1.3c1.9-1.8,4.1-1.6,6.2-1.6c9.2,0,18.3-0.1,27.5-0.1
	c2.5,0,4.9-0.2,6.5-2.5c-1.9-2.2-4.3-2.4-6.9-2.4c-9.2,0-18.3,0-27.5-0.1c-1.9,0-3.7-0.4-6.2-0.7c2.1-2.8,4.4-2.2,6.5-2.2
	c9.3-0.1,18.7-0.1,28-0.1c2.3,0,4.7,0.1,6.1-2.4c-1.6-2.2-3.8-2.5-6.3-2.5c-25,0-50-0.1-75,0c-1.4,0-3.1,0.4-4,1.3
	c-3.2,3.1-7,3.5-11.1,3.4c-3.5-0.2-6.9,0-10.4,0c-3.3,0-6.6,0-10,0c-0.1-1.8-0.3-2.9-0.3-4c-0.1-35.2-0.1-70.3-0.3-105.5
	c0-4.3,1.1-7.4,5.4-9c1.1-0.4,2-1.2,2.9-1.9c7.7-5.7,16.4-9,25.9-9.4c7.8-0.4,15.6-0.1,23.4-0.1c19.3,0.1,38.7,0.3,58,0.4
	c6.7,0,6.1-0.6,6.1,6.2c0,62.8,0,125.7,0,188.5c0,0.7,0,1.3,0,2c-0.1,4.2-0.1,4.3-4.5,4.3c-7.2,0-14.3,0-21.5,0c-1.6,0-3.3,0-4.8,0
	c-0.3,0.9-0.6,1.4-0.6,1.8c0,24.7-0.1,49.3-0.1,74c0,0.6,0.2,1.3,0.3,1.9c0,0.2,0.1,0.3,0.3,0.4c0.1,0.1,0.3,0.1,0.9,0.1
	c1.3-2.4,1.5-5.1,1.5-7.9c0-20.2,0-40.3,0.1-60.5c0-1.8,0.1-3.5,0.2-5.6c2.4,0,4.2,0,6,0c11.3,0,22.7,0,34,0c4.3,0,4.3-0.1,4.8-4.4
	c0.2-1.4,0.4-2.9,0.5-4.3c6.7,0,12.9,0,19.4,0c0.2,2,0.6,3.8,0.6,5.6c0.1,2.3,1.2,3.2,3.5,3.1s4.7-0.1,7,0c2.9,0,5.9,0.1,9.2,0.2
	c0,2.1,0,3.8,0,5.4c0,10.3,0,20.7,0,31c0,12.7,0,25.3,0,38c0,1.3-0.7,3,1.9,4.1c0-26.8,0-53.2,0-79.7c3.9-0.6,7.3-1.1,10.7-1.6
	c0.1-1,0.3-1.6,0.3-2.3c0.1-0.8,0.1-1.7,0.2-2.5c0.4-3.4,0.4-3.5,4-3.5c0.8,0,1.6,0.2,2.4,0.3c0.4,2.8,0.8,5.3,1.2,8.2
	c25.9,0,51.4,0,77.4,0c0,5,0,9.6,0,14.2c0,4.7,0,9.3,0,14c0,4.5,0,9,0,13.5c0,4.7,0,9.3,0,14s-0.1,9.3,0,14
	c0.1,4.5-0.6,9.1,0.7,14.3c1.2-4.6,1.3-83.2,0.2-88c-3.5,0-7.2,0.1-10.8,0c-3.6-0.1-4.4-0.9-4.5-4.4c0-1.7,0-3.3,0.1-5
	c0.1-1.9-0.7-2.8-2.6-2.7c-1.1,0.1-2.2,0.2-3.8,0.4c0,4,0,7.7,0,11.3c-0.9,0.2-1.2,0.4-1.5,0.4c-15.8,0-31.7,0.1-47.5,0.1
	c-4,0-4.8-1-5-5.1c-0.1-1.3,0-2.7,0-4c0-17.8-0.1-35.7-0.1-53.5c0-1.3,0.1-2.7,0.3-4c0.2-2.1,1.6-3.3,3.6-3.4c1.7-0.1,3.3,0,5,0
	c4.5,0,8.9,0,13.5,0c0.4-2.8,0.8-5,1.2-7.3c0.5-3.6,0.5-3.7,4.3-3.7c10.3,0,20.7,0,31,0c1.5,0,3.1-0.1,4.6-0.2c0-0.4,0-0.8,0-1.1
	c-3.7-1.2-7.7-0.4-11.5-0.5c-4.2-0.1-8.3,0.1-12.5-0.1c-3.9-0.1-7.8,0.6-12.2-0.7c1.9-1.8,3.8-1.5,5.5-1.5c6.2-0.1,12.3,0,18.5-0.1
	c6.2,0,12.3-0.2,18.1,2.4c0.2,0.1,0.5-0.2,1.2-0.5c0-1.8,0-3.8,0-5.7c0-13,0.1-26,0-39c0-6.6,3.2-10.8,9.2-14c0,2,0,3.5,0,5
	c0,17,0,34,0,51c0,2.2-0.1,4.3-0.1,6.5c0,2.6-1.1,4.4-3.5,5.6c-0.9,0.4-1.8,1-2.6,1.5c0.1,0.2,0.1,0.5,0.2,0.7c18.1,0,36.2,0,54.7,0
	c0,2.2,0,4,0,5.8c0,38.3,0,76.7,0,115c0,2.5,0.2,5,0.5,7.5c0.1,0.6,1.1,1.1,2.5,2.5c0-25.7,0-50.3,0-75.2c2.4-0.2,4.4-0.5,6.4-0.5
	c9.5-0.1,19,0,28.5,0c12.2,0,24.4,0.5,36.5-0.2c5.3-0.3,5.4,4.7,8.7,6c0.7,0.3,1.1,1.1,1.6,1.7c0.1,0.1,0.1,0.3,0.1,0.5
	c0,4.1,0,8.2,0,12.8c-5.9,0-11.2,0-16.5,0s-10.7,0-16,0c-5.5,0-11,0-16.5,0c-5.3,0-10.5,0-15.7,0.1c-1.1,12.3-0.6,84.3,1.1,87.6
	c0-28,0-56.1,0-84.6c3.1,0,5.5,0,8,0c18.5,0,37,0,55.5-0.1C571.4,315.9,574.2,315.3,577,315z M286.6,396c0.1-1.6,0.2-2.5,0.2-3.5
	c0-21.6,0-43.2,0-64.9c0-0.7,0-1.3,0-2c0.1-1.7-0.7-2.4-2.4-2.4c-2.9,0-5.9,0-8.9,0c0,24.6,0,48.6,0,72.8
	C279.3,396,282.7,396,286.6,396z M309.2,323.8c0,24.2,0,48,0,72.2c3.8,0,7.4,0,11.5,0c0-2.1,0-3.8,0-5.6c0-19.1,0-38.2,0-57.4
	C320.7,322.3,320.7,322.3,309.2,323.8z M303.7,395.8c0-1.8,0-3.6,0-5.4c0-19.1,0-38.3,0-57.4c0-10.4,0-10.4-10.6-9.6
	c-0.3,0-0.6,0.3-0.8,0.5c-0.9,7.7-0.6,68.7,0.5,72.3c2.8,0,5.6,0,8.4,0C301.8,396.2,302.4,396,303.7,395.8z M258.6,323.6
	c0,24.4,0,48.3,0,72.4c3.7,0,7.1,0,10.9,0c0.1-1.7,0.3-3.1,0.3-4.6c0-21,0-42,0-63c0-0.8,0-1.7,0-2.5c0-1.7-0.8-2.4-2.4-2.4
	C264.5,323.6,261.7,323.6,258.6,323.6z M185.7,174.9c1.8,2.7,4.3,2.8,6.8,2.8c6.8,0,13.7,0.1,20.5,0.1c17.2,0,34.3-0.1,51.5-0.1
	c2.6,0,5-0.1,6.5-2.9c-1.5-1.9-3.5-2.3-5.7-2.3c-4.5-0.1-9-0.1-13.5-0.1c-19.7,0-39.3,0.1-59,0.1
	C190.3,172.4,187.8,172.4,185.7,174.9z M185,182c2.6,3.2,5,3.4,7.5,3.4c21.1,0.1,42.3,0.2,63.4,0.2c3.2,0,6.3-0.2,9.5-0.2
	c2.3,0,4.2-0.7,5.5-2.8c-1.9-1.9-4-2.4-6.4-2.4c-24.1,0-48.2,0-72.4,0.1C189.9,180.3,187.8,181.3,185,182z M185.2,166.1
	c2.5,3.5,5.1,3.7,7.8,3.7c21,0,42,0.1,62.9,0.1c3,0,6-0.1,9-0.1c2.4,0,4.4-0.9,6-2.7c-1.5-2.1-3.5-2.4-5.5-2.4
	c-24.6,0-49.3,0-73.9,0.1C189.6,164.8,187.8,165.5,185.2,166.1z M271,131.6c-1.5-2.7-4.2-2.3-6.6-2.3c-24.6-0.1-49.2-0.1-73.8-0.1
	c-1.2,0-2.4-0.1-3.5,0.1c-0.7,0.1-1.7,0.7-1.9,1.3c-0.2,0.5,0.4,1.7,0.9,2c1.6,0.7,3.3,1.4,5.1,1.5c8.1,0.2,16.3,0.2,24.4,0.2
	c16.3,0,32.6,0,48.9-0.1C266.9,134.2,269.6,134.5,271,131.6z M271.5,138.6c-2.1-0.5-3.8-1.3-5.4-1.3c-25.6-0.1-51.3-0.1-76.9-0.1
	c-1.6,0-4-0.5-3.9,1.7c0.1,1.1,2.4,2.3,3.9,3.1c0.8,0.4,2,0.1,3,0.1c4.7,0,9.3,0,14,0c19.6,0,39.3,0,58.9,0
	C267.4,142.1,269.7,142.1,271.5,138.6z M271,229.7c-1.8-2.6-4.2-2.3-6.5-2.3c-24.8,0-49.7-0.1-74.5-0.1c-1.2,0-2.4,0-3.5,0.2
	c-1.7,0.4-2.1,2-0.7,2.9c1.5,0.9,3.3,1.7,5,1.7c25,0.1,50,0.1,75,0.1C267.8,232.2,269.7,232,271,229.7z M271,218.4
	c-1.5-2.5-3.6-2.5-5.8-2.5c-24.7,0-49.3,0-74,0c-1.2,0-2.5-0.1-3.4,0.4c-1.1,0.7-1.8,2-2.7,3.1c1.1,0.5,2.3,1.1,3.4,1.4
	c0.9,0.2,2,0,3,0c12.7,0,25.3,0,38,0c11.7,0,23.3-0.1,35-0.1C266.9,220.8,269.2,220.7,271,218.4z M185,158.3
	c2.6,3.1,4.9,3.7,7.5,3.6c8.5,0,17,0.1,25.5,0.1c15.3,0,30.7-0.1,46-0.1c2.7,0,5.2-0.3,6.9-2.8c-1.6-2.1-3.7-2.3-5.9-2.3
	c-24.5,0-49,0-73.5,0.1C189.6,156.8,187.8,157.6,185,158.3z M270.9,194.5c-2-2.5-4.7-2.2-7.4-2.2c-21.3,0-42.6-0.1-64-0.1
	c-2.8,0-5.7,0.1-8.5,0.1c-2.2,0-4.2,0.6-5.6,3.4c2.1,0.5,3.8,1.3,5.5,1.3c24.8,0.1,49.6,0,74.4,0.1
	C267.7,197.1,269.7,196.6,270.9,194.5z M271.6,146.6c-2.8-0.6-4.9-1.5-6.9-1.5c-24.3-0.1-48.6,0-72.9-0.1c-2.5,0-4.6,0.5-6.3,2.5
	c1.6,2,3.7,2.5,6.2,2.5c24.3,0,48.6,0,72.9,0C267.1,150,269.2,149.5,271.6,146.6z M227.7,121.6c0-0.1,0-0.2,0-0.3
	c-12.3,0-24.6,0-36.9,0c-1.3,0-2.7-0.1-4,0.1c-1.8,0.3-2.1,1.4-1.1,2.8c1.5,2.1,3.7,2,5.9,2c22.6,0,45.3,0,67.9,0.1
	c2.5,0,5,0,7.5-0.1c1.7,0,3.8-0.4,3.9-2.3c0.1-2.1-2-2.3-3.7-2.3c-0.7,0-1.3,0-2,0C252.6,121.6,240.1,121.6,227.7,121.6z
	 M185.6,210.4c1.6,1.9,3.7,2.5,6.1,2.5c24.3,0,48.6,0,72.8,0c2.4,0,4.6-0.4,6.3-2.4c-1.6-2.1-3.7-2.6-6.2-2.6c-24.4,0-48.9,0-73.3,0
	C189.1,207.9,187.1,208.4,185.6,210.4z M270.9,202.6c-1.9-2.1-4-2.7-6.5-2.6c-5.3,0.1-10.7,0-16,0c-18.7,0-37.3,0-56,0
	c-2.7,0-5.1,0.3-7.3,3.3c2.8,0.6,5,1.5,7.2,1.5c24,0.1,48,0.1,71.9,0.1C266.7,204.9,269,204.8,270.9,202.6z M512.8,336.1
	c1.6,0.3,2.7,0.6,3.7,0.6c17.6,0,35.3,0,52.9,0c1,0,2.1-0.5,3.2-0.8c-1-2.5-2.6-3.3-4.9-3.3c-16.6,0-33.3,0-49.9,0
	C515.8,332.7,514,333.3,512.8,336.1z M572.8,389c-0.5-0.5-0.8-0.9-1-0.9c-1.3-0.1-2.6-0.2-4-0.2c-18.1,0.1-36.1,0.2-54.2,0.3
	c-0.1,0-0.3,0.2-0.4,0.3c-0.1,0.1-0.1,0.3-0.1,0.6c1,2.1,2.9,2.7,5.2,2.7c16.3,0,32.5,0,48.8,0C569.5,391.9,571.4,391.2,572.8,389z
	 M572.8,372.6c-1.4-0.3-2.6-0.7-3.8-0.7c-17.7,0-35.3,0-53,0c-1,0-2,0.4-3.1,0.7c1.1,2.6,2.7,3.3,4.9,3.3c16.7,0,33.3,0,50,0
	C570,376,571.7,375.4,572.8,372.6z M572.5,380.8c-4-1.3-55.5-1.3-59.4,0c0.8,2.5,2.7,3.1,5,3.1c4.5,0,9,0,13.5,0
	c11.6,0,23.3-0.1,34.9,0C569.1,383.9,571.5,383.8,572.5,380.8z M572.9,396.3c-1.3-0.3-2.1-0.6-2.9-0.6c-18.1,0-36.3,0-54.4,0
	c-0.8,0-1.7,0.5-2.6,0.8c1.3,3,3.6,3.3,6,3.3c6.7,0,13.3,0.1,20,0.1c9.3,0,18.6-0.1,27.9-0.1C569.3,399.8,571.5,399.5,572.9,396.3z
	 M572.6,359.7c-1.1-3-3.2-3.5-5.7-3.5c-8.5,0-16.9-0.1-25.4-0.1c-7.6,0-15.3,0.1-22.9,0.1c-2.5,0-4.6,0.4-5.5,3.2
	C516.6,360.4,565.7,360.7,572.6,359.7z M512.7,343.8c1.2,0.3,1.8,0.6,2.4,0.6c18.3,0,36.5,0,54.8,0c0.9,0,1.7-0.5,2.8-0.9
	c-1.4-2.6-3.4-3.1-5.6-3.1c-16.3,0-32.5,0-48.8,0C516.1,340.4,514.2,341,512.7,343.8z M513,351.6c0.7,0.3,1.2,0.7,1.6,0.7
	c18.1,0.1,36.2,0.1,54.3,0.1c1,0,2-0.2,2.9-0.3c0.1,0,0.3-0.2,0.4-0.3c0.1-0.1,0.1-0.3,0.1-0.6c-0.9-2.3-2.8-2.8-5.1-2.8
	c-5.8,0-11.6-0.1-17.4-0.1c-10.3,0-20.6,0.1-30.9,0.1C516.5,348.3,514.3,348.5,513,351.6z M513.8,366.9c1.7,0.4,3.2,1.1,4.7,1.1
	c16.1,0.1,32.3,0.1,48.4,0c1.9,0,3.6-0.3,4.8-2.8c-1.8-0.4-3.5-1.1-5.2-1.1c-15.8-0.1-31.6,0-47.4-0.1
	C517.1,364.1,515.2,364.4,513.8,366.9z M513.8,327.9c1.7,0.4,3.2,1.1,4.7,1.1c16.1,0.1,32.3,0.1,48.4,0c1.6,0,3.2-0.8,5.1-1.3
	c-1.9-2.3-3.8-2.7-5.8-2.7c-15.6,0-31.3,0-46.9,0C517.2,325.1,515.3,325.4,513.8,327.9z M443.5,364.7c0-6.3,0-12.2,0-18.2
	c0-0.3-0.2-0.6-0.2-1c-0.4-1.7-1.8-1.7-3.2-1.6c-1.5,0.1-2.7,0.4-2.7,2.2c0,6.1,0,12.2,0,18.6C439.6,364.7,441.2,364.7,443.5,364.7z
	 M440.4,320.5c-2.2,1.2-3.3,2.7-3.3,4.9c0,4.3-0.1,8.6,0,12.9c0.1,2.3,1.4,3.4,3.5,3.4c2.1-0.1,3.1-1.1,3.1-3.5
	c0-4.1-0.1-8.3-0.1-12.4C443.6,323.4,442.8,321.6,440.4,320.5z M387.8,271c0-6.5,0-12.5,0-18.4c0-2-0.9-2.7-2.7-2.6
	c-0.8,0.1-1.6,0.2-2.5,0.3c0,7,0,13.7,0,20.7C384.3,271,385.7,271,387.8,271z M465.6,250c0,7.3,0,14,0,20.8c1.9,0,3.4,0,5.1,0
	c0-7,0-13.7,0-20.6C468.9,250.1,467.5,250.1,465.6,250z M437.7,250.2c0,7.1,0,13.9,0,20.7c1.9,0,3.5,0,5.1,0c0-7,0-13.7,0-20.7
	C441.1,250.2,439.6,250.2,437.7,250.2z M470.9,364.8c0-6.1,0-12,0-17.9c0-1.7-0.4-2.9-2.4-3s-3.4,0.6-3.4,2.6c-0.1,6,0,12.1,0,18.3
	C467.2,364.8,468.8,364.8,470.9,364.8z M465.3,367.2c0,6.7,0,12.7,0,18.6c0,1.9,0.9,2.7,2.8,2.6c0.8-0.1,1.6-0.2,2.6-0.3
	c0-6.9,0-13.6,0-20.5C468.9,367.4,467.4,367.3,465.3,367.2z M387.5,294.5c0-6.7,0-13.5,0-20.4c-1.7,0-3.1,0-5.1,0
	c0,5.7,0,11.2,0,16.6C382.5,294.7,382.5,294.7,387.5,294.5z M470.8,297.2c-2,0.1-3.5,0.2-5.4,0.3c0,6.3,0,12.1,0,17.9
	c0,1.7,0.9,2.4,2.5,2.3c0.9-0.1,1.9-0.3,2.9-0.5C470.8,310.6,470.8,304.3,470.8,297.2z M464.9,341.2c2.3-0.1,4-0.2,6-0.3
	c0-6.3,0-12.1,0-17.9c0-1.5-0.3-2.6-2.1-2.8c-1.9-0.2-3.3,0.4-3.8,2.4c-0.1,0.5-0.2,1-0.2,1.5C464.9,329.5,464.9,335,464.9,341.2z
	 M415.9,274.3c-2.3,0-4.1,0-6,0c0,6.1,0,11.9,0,17.7c0,1.4,0.2,2.6,2,2.9c1.7,0.2,3-0.3,3.6-1.9c0.3-0.7,0.4-1.6,0.4-2.4
	C415.9,285.2,415.9,280,415.9,274.3z M443.2,308L443.2,308c0-2.6,0-5.3,0-7.9c0-1.6-0.3-2.9-2.4-3c-2-0.1-3.2,0.7-3.6,2.6
	c-0.1,0.5-0.1,1-0.1,1.5c0,4.3,0,8.6,0,12.9c0,0.8,0.2,1.7,0.5,2.4c0.7,1.7,2.3,1.9,3.8,1.4c0.8-0.3,1.7-1.5,1.8-2.4
	C443.3,313,443.2,310.5,443.2,308z M465.1,273.7c0,6.1-0.1,11.7,0.1,17.3c0,1.1,1.1,2.3,2.1,3.1c2.4,1.8,3.6,1.2,3.7-1.8
	c0.1-4.1,0.1-8.3,0-12.5c0-1.9-0.1-3.8-0.1-5.8C468.8,273.8,467.3,273.8,465.1,273.7z M442.9,294.3c0-6.8,0-13.4,0-20.2
	c-1.8,0-3.3,0-5.3,0c0,5.6,0,10.9,0,16.2C437.6,294.7,437.7,294.7,442.9,294.3z M443.2,387.8c0-6.1,0-11.8,0-17.6
	c0-1.8-0.5-2.8-2.5-2.8s-3.1,0.5-3.1,2.8c0.1,4.6,0,9.3,0,13.9C437.7,388.4,437.8,388.4,443.2,387.8z M410.2,271.9
	c1.9-1.7,4.8,0.9,5-2.6c0.3-6.3,0.1-12.5,0.1-18.9c-2,0-3.4,0-5.1,0C410.2,257.1,410.2,263.7,410.2,271.9z M387.8,302.4L387.8,302.4
	c0-0.7,0-1.3,0-2c0.1-1.8,0-3.3-2.5-3.2c-2.5,0-2.9,0.3-3,3.2c-0.1,1.5,0,3,0,4.4c-0.1,2,1.1,2.4,2.8,2.5c1.9,0.1,2.8-0.6,2.7-2.5
	C387.8,304,387.8,303.2,387.8,302.4z M340.3,368.6c3-2.8,3.2-3.3,2-5c-1.4-1.9-2.3-1.9-6.4,0C337.4,365.4,338.9,367,340.3,368.6z
	 M352,345.7c3.3-4,3.3-4,0.4-7.2c-1.2,1-2.4,2-3.5,3C350,343,350.9,344.2,352,345.7z M336.2,342.2c2.5,1,3.6,4.3,5.9,1.6
	c1.8-2,1.3-3.1-1.8-5.1C339.2,339.7,338,340.6,336.2,342.2z M399.6,338.6c-1.2,1.1-2.4,2.3-3.9,3.7c1.9,1.2,3.2,2.1,4.5,2.9
	C402.8,341.8,402.8,341.8,399.6,338.6z M376.5,345.3c0.6-0.8,1.2-1.4,1.6-2.1c1.1-1.6,0.4-2.9-0.7-3.9c-1.5-1.4-2.3,0.4-3.2,1
	c-0.6,0.4-0.9,1.2-1.5,1.9C374.1,343.3,375.2,344.2,376.5,345.3z M395.5,365.8c2.6,0.8,3.5,3.9,5.8,1.5c1.9-2,0.5-3.6-1.3-5.2
	C398.7,363.2,397.4,364.2,395.5,365.8z M364.2,345.3c2.8-3.9,2.8-3.9-0.2-6.7c-1.1,1.1-2.3,2.1-3.6,3.3
	C361.9,343.2,362.9,344.2,364.2,345.3z M341.2,374.3c-3.2,3-3.3,4.4-0.6,6.1c0.5,0.3,1.8,0.4,2.1,0.1c0.5-0.6,0.9-1.7,0.7-2.4
	C343,376.7,342,375.5,341.2,374.3z M419.6,341.9c1.5,1.4,2.6,2.3,3.6,3.3c3-3.3,3-3.3,0.1-6.7C422.2,339.5,421.2,340.5,419.6,341.9z
	 M400.2,333c0.9-1.2,1.9-2.3,2.4-3.6c0.2-0.6-0.3-1.8-0.9-2.4c-0.3-0.3-1.6-0.2-2.1,0.1C397.3,328.9,397.4,330.2,400.2,333z
	 M395.6,377.6c2.2,0.9,3.2,4.1,5.8,1.6c1.5-1.5,1.1-2.5-2.2-5.5C398.1,374.9,397,376.1,395.6,377.6z M340.3,391.9
	c3.2-3.1,3.4-4,1.1-5.8c-0.6-0.5-1.9-0.8-2.5-0.4s-1,1.7-0.8,2.4C338.6,389.4,339.5,390.6,340.3,391.9z M399.9,392.3
	c1.2-1.9,2.2-3.1,2.9-4.6c0.2-0.5-0.3-1.6-0.8-2s-1.6-0.4-2.1-0.1C397.5,387.1,397.5,388.7,399.9,392.3z M341.4,326.4
	c-3.9,3.8-3.9,4.4,0,6.2C344.2,328.3,344.2,328.3,341.4,326.4z M340.8,357c0.7-1,1.2-1.6,1.7-2.3c0.4-0.5,0.9-1.1,0.9-1.7
	c0-0.8-0.2-2-0.8-2.3c-0.5-0.3-1.9-0.2-2.4,0.3C338.1,352.8,338.2,353.7,340.8,357z M400.4,351c-3,2.2-3.3,3.7-0.9,5.5
	c0.6,0.4,1.9,0.5,2.5,0.1c0.5-0.4,0.8-1.7,0.5-2.4C402.1,353,401.1,352,400.4,351z M387.7,338.6c-1.1,1.1-2.1,2.2-3.3,3.5
	c1.6,1.3,2.7,2.2,3.8,3.1C390.5,341.9,390.5,341.9,387.7,338.6z M412.4,345.6c0.6-1.9,1.5-3.2,1.4-4.5c-0.1-2-2-2.5-3.5-1.2
	C408.2,341.7,408.3,342.1,412.4,345.6z M-75,190c22.1,0,44.2,0,67,0c0,2.1,0,3.9,0,5.6c0,28.5,0,56.9,0,85.4c0,3.1,0.3,6.3,0.5,10
	c-17.2,0.3-34.5,0-52.3,0.2c0-33.3,0-66.2,0-99.5c-5.3-0.2-10.2-0.5-15.1-0.7C-75,190.7-75,190.3-75,190z M-55.3,250.9
	c1.6,0.6,3.2,1.7,4.9,1.7c11.1,0.1,22.3,0.1,33.4,0.1c2.1,0,3.8-0.8,5-3.5c-1.9-0.7-3.4-1.8-5.1-1.8c-11.1-0.1-22.3-0.1-33.4-0.1
	C-52.6,247.3-54.3,248.1-55.3,250.9z M-34.1,209.2c6.3,0,12.7,0,19,0c1.5,0,3.1,0.1,3.2-2.1c0.1-2.1-1.1-3-3-3.1c-0.8,0-1.7,0-2.5,0
	c-2,0-4,0-6,0c-9.5,0-19,0-28.5,0c-2.1,0-3.7,0.7-3.7,3.1c0,2.6,2,2.2,3.6,2.2C-46.1,209.3-40.1,209.2-34.1,209.2z M-33.1,267.1
	c-2.3,0-4.7,0-7,0c-4.3,0-8.6,0-13,0c-1.6,0-2.6,0.7-2.6,2.3c-0.1,1.5,0.8,2.5,2.3,2.7c1.3,0.2,2.6,0.2,4,0.2c10.5,0,21,0,31.4,0
	c1,0,2,0,3-0.1c1.9-0.1,3.2-0.9,3-3.1c-0.1-2.2-1.7-2.1-3.2-2.1C-21.2,267.1-27.2,267.1-33.1,267.1z M-12.1,225.8
	c-1.5-0.6-3-1.7-4.4-1.7C-28,224-39.5,224-51,224c-2,0-3.5,0.7-4.1,2.6c1.2,2,2.8,2.4,4.8,2.4c11,0,22,0,33,0
	C-15.2,229-13.5,228.2-12.1,225.8z M-75,195c3.7,0,7.3,0,11.3,0c0.2,1.6,0.4,2.9,0.4,4.2c0,29.3,0,58.6,0,88c0,4.6-0.1,4.6-4.8,4.6
	c-2.3,0-4.6,0.2-7,0.2C-75,259.7-75,227.3-75,195z M27,93c-0.1,0.3-0.1,0.6-0.2,1c-0.3,4.3-0.3,4.3-4.5,4.3
	c-13.4,0-26.8-0.1-40.2-0.1c-4.6,0-5.2-0.6-6.2-5.2C-7,93,10,93,27,93z M39.5,291c-15,0-29.6,0-44.5,0c-0.1-1.3-0.2-2.6-0.2-3.8
	c0-31.8,0-63.6,0-95.4c0-0.3,0-0.7,0-1c-0.1-4.4-0.1-4.5-4.4-4.5c-6.3,0-12.7,0.1-19,0.1c-1.2,0-2.3,0-3.5-0.1
	c-2.3-0.2-3.7-1.4-3.9-3.8c-0.1-1.2-0.1-2.3-0.1-3.5c0-17.3-0.1-34.6-0.1-52c0-8.8,2.6-13.1,10.7-15.9c4-1.4,6.4-3.1,5.9-7.5
	c-0.1-0.8,0.4-1.6,0.6-2.5c13.9,0,27.7,0,42,0c0.4,2.9,0.8,5.8,1.2,9.1c5,0,9.9,0,15.2,0C39.5,170.7,39.5,230.5,39.5,291z
	 M24.2,154.3c0,2.9,0,5.1,0,7.6c2,0,3.7,0,5.3,0c0.7,0,1.4,0.1,2-0.1c0.8-0.3,2-0.8,2.2-1.5c1.4-3.5-0.1-5.7-3.8-6
	C28.1,154.2,26.3,154.3,24.2,154.3z M13.8,231.7c0-2.1,0-4,0-6.4c-2.6,0-5,0.1-7.4,0s-3.3,1-3.2,3.2c0.1,1.1,0.2,2.2,0.3,3.2
	C7.1,231.7,10.3,231.7,13.8,231.7z M4.1,243.9c2.3,0,4.8,0,7.2,0c1.9,0.1,2.6-0.9,2.7-2.7c0.4-3.7-0.5-4.7-4.4-4.6
	C3.1,236.8,2.8,237.1,4.1,243.9z M3.8,178.3c-0.7,6.3-0.7,6.3,4.6,6.4c1.8,0,3.6,0,5.4,0c0-2.5,0-4.4,0-6.4
	C10.3,178.3,7.1,178.3,3.8,178.3z M-16,155.1c0.1,2.5,0.2,4.3,0.3,6.2c3.5,0,6.4,0,9.4,0c0.2-1,0.4-1.8,0.5-2.6
	c0.2-3.8-0.7-4.8-4.5-4.5C-12.1,154.3-13.8,154.8-16,155.1z M4,190.3c-1.1,6.4-1.1,6.5,4.8,6.5c1.6,0,3.2,0,5,0c0-2.5,0-4.4,0-6.5
	C10.5,190.3,7.4,190.3,4,190.3z M33.7,260.4c-2.6,0-4.7-0.1-6.8,0c-3.4,0.1-3.5,0.3-3.5,3.8c0,0.8,0.3,1.6,0.4,2.3
	c3.4,0,6.7,0,9.9,0C33.7,264.5,33.7,262.9,33.7,260.4z M23.3,231.4c3.7,0,7,0,10.7,0c-0.1-2.2-0.2-3.9-0.3-6c-2.7,0-5,0.1-7.4,0
	c-2.2-0.1-3,1-3,3C23.3,229.3,23.3,230.3,23.3,231.4z M13.7,119.5c-1-0.2-1.5-0.3-2-0.3c-1.5,0-3-0.1-4.5,0
	c-3.4,0.1-3.6,0.4-3.6,3.7c0,1.9,0.4,3.2,2.6,3.3c1.3,0.1,2.6,0.6,3.9,0.6c2.4,0,3.6-1.1,3.8-3.6C14.1,122,13.8,120.9,13.7,119.5z
	 M33.6,243.7c0-2.6,0-4.5,0-6.7c-2.6,0-4.9-0.1-7.2,0c-2,0.1-3.2,1.7-3.1,4.1c0,2.1,1.3,3,3.2,3C28.7,244.1,31,243.9,33.6,243.7z
	 M-15.9,184.7c2,0,3.5,0,4.9,0c5.3,0,5.3,0,5.3-5.4c0-0.3-0.3-0.5-0.5-0.8c-3.2,0-6.4,0-9.8,0C-15.9,180.5-15.9,182.3-15.9,184.7z
	 M24.1,196.6c3.3,0,6.4,0,9.6,0c0-2.2,0-4.1,0-6.2c-3.3,0-6.4,0-9.6,0C24.1,192.5,24.1,194.4,24.1,196.6z M23.9,178.3
	c-0.1,1.3-0.3,2.1-0.3,2.9c0.1,3.4,0.2,3.5,3.7,3.6c2.1,0,4.2-0.1,6.2-0.1c0-2.5,0-4.4,0-6.4C30.3,178.3,27.3,178.3,23.9,178.3z
	 M4,143.3c-0.5,6.3-0.5,6.3,4.7,6.3c1.6,0,3.2,0,5.1,0c0-2.4,0-4.2,0-6.3C10.4,143.3,7.4,143.3,4,143.3z M14,266.8
	c0-2.3,0-4.1,0-6.2c-3.4,0-6.7,0-10.1,0c0,2.2,0,4.1,0,6.2C7.3,266.8,10.4,266.8,14,266.8z M34.2,278.8c-0.6-2.5-1-4.3-1.4-6.1
	c-2.8,0-5.8-0.6-8.2,0.4c-1.8,0.8-1,3.7-0.4,5.8C27.3,278.8,30.2,278.8,34.2,278.8z M24.2,143.4c-1,6.2-1,6.3,4.6,6.2
	c1.6,0,3.2-0.1,4.9-0.2c0-2.3,0-4.1,0-6C30.3,143.4,27.2,143.4,24.2,143.4z M23.9,125.8c3.3,0,6.4,0,9.6,0c0-2.2,0-4,0-6.3
	c-2.6,0-5,0-7.3,0c-1.9,0-2.7,0.9-2.6,2.8C23.7,123.3,23.8,124.4,23.9,125.8z M14,214.2c-3.7,0-6.9,0-10.3,0c0,2,0,3.8,0,5.5
	c3.6,0,6.8,0,10.3,0C14,217.8,14,216.2,14,214.2z M13.8,166.8c-2.5,0-4.8,0-7.1,0c-3.3,0.1-3.3,0.1-3.6,3.3c-0.1,0.8,0,1.6,0,2.6
	c3.7,0,7.1,0,10.7,0C13.8,170.8,13.8,169,13.8,166.8z M13.8,131.6c-3.1,0-5.7,0-8.4,0c-2.2,0-2.2,1.6-2.2,3.1s-0.1,3.1,2.2,3.1
	c2.8,0,5.5,0,8.4,0C13.8,135.6,13.8,134,13.8,131.6z M3.4,255.1c3.6,0,6.9,0,10.4,0c0-2.1,0-3.8,0-5.7c-3.5,0-6.9,0-10.4,0
	C3.4,251.4,3.4,253.1,3.4,255.1z M13.8,202.1c-3.7,0-6.8,0-10.1,0c0,2.1,0,3.9,0,5.7c3.5,0,6.7,0,10.1,0
	C13.8,205.9,13.8,204.2,13.8,202.1z M3.7,155c0,2.1,0,4,0,6c3.6,0,6.8,0,10,0c0-2.2,0-4.1,0-6C10.1,155,7,155,3.7,155z M33.5,208.1
	c0-2.4,0-4.1,0-6c-3.4,0-6.5,0-9.9,0c-0.1,2.1-0.2,4-0.4,6C27,208.1,30.1,208.1,33.5,208.1z M24.3,214.1c-0.2,0.8-0.5,1.4-0.5,2
	c-0.2,3.7,0.6,4.6,4.1,4.4c1.9-0.1,3.9-0.6,5.7-0.8c0-2.1,0-3.8,0-5.6C30.3,214.1,27.4,214.1,24.3,214.1z M-5.8,137.8
	c0-2.2,0-3.9,0-5.6c-3.4,0-6.6,0-9.8,0c0,2.1,0,3.8,0,5.6C-12.4,137.8-9.4,137.8-5.8,137.8z M13.7,278.8c0-2.3,0-4.1,0-6.2
	c-2.4,0-4.5-0.1-6.6,0c-3.3,0.1-3.3,0.1-3.4,3.3c0,0.9,0.2,1.8,0.3,2.9C7.4,278.8,10.5,278.8,13.7,278.8z M-15.6,167.1
	c0,2.1,0,3.9,0,5.7c3.4,0,6.5,0,9.6,0c0-2,0-3.7,0-5.7C-9.4,167.1-12.4,167.1-15.6,167.1z M-15.7,149c0.7,0.2,1.2,0.4,1.7,0.4
	c1.5,0.1,3,0.1,4.5,0.1c3.8-0.1,3.8-0.1,3.8-3.9c0-0.6-0.2-1.3-0.3-2.1c-3.3,0-6.5,0-9.6,0C-15.7,145.5-15.7,147.2-15.7,149z
	 M33.9,131.7c-2.3,0-4,0-5.8,0c-4.3,0.1-4.3,0.1-4.2,4.4c0,0.5,0.2,0.9,0.3,1.5c3.2,0,6.4,0,9.7,0C33.9,135.6,33.9,134,33.9,131.7z
	 M-15.8,125.6c3.4,0,6.6,0,9.7,0c0.4-6,0.4-6-4.8-6c-1.6,0-3.2,0.2-4.9,0.3C-15.8,122-15.8,123.7-15.8,125.6z M33.5,172.9
	c0-1.8,0-3.7,0-5.8c-3.2,0-6.2,0-9.5,0c0,2,0,3.8,0,5.8C27.2,172.9,30.2,172.9,33.5,172.9z M24.2,249.3c-0.9,6.1-0.9,6.1,4.7,6
	c1.6,0,3.1-0.2,4.7-0.3c0-2.2,0-3.9,0-5.8C30.3,249.3,27.2,249.3,24.2,249.3z M144.2,303.8c0-8.6,0-16.9,0-25.8
	c-25-0.1-49.7,0-75.2-0.1c1.9-2.9,3-5.4,4.7-7.3c4.3-4.4,8.8-8.6,13.3-12.8c3.1-2.9,6.7-4,10.9-4c22.5,0,44.9-0.3,67.4-0.4
	c3,0,5.9,0.3,9.2,0.4c0,16.7,0,33.1,0,49.5C171,304.4,152.3,304.6,144.2,303.8z M143.9,259.4c-10.5,0-21.1,0-31.9,0
	c-0.1,1.8-0.2,3.2-0.2,4.7c0,3.6,0.1,3.7,3.6,3.7c7.5,0.1,14.9,0,22.4,0C145.3,267.8,145.8,267.2,143.9,259.4z M166.7,267.6
	c0-3,0-5.5,0-8.1c-3.9,0-7.5,0-11.3,0c0,2.8,0,5.4,0,8.1C159.3,267.6,162.8,267.6,166.7,267.6z M166.7,275.3c-4.1,0-7.6,0-11.2,0
	c0,2.7,0,5.1,0,7.9c2.6,0,4.9,0,7.1,0c1.3,0,2.5-0.1,4.1-0.2C166.7,280.3,166.7,277.9,166.7,275.3z M155.3,299c1.9,0,3.4,0,4.9,0
	c7.3,0,7.3,0,6.6-7.3c0-0.3-0.4-0.5-0.5-0.6c-3.7,0-7.3,0-11,0C155.3,293.7,155.3,296,155.3,299z M140.6,281.6c0,7.6,0,14.9,0,22.4
	c-1.6,0.1-3.1,0.3-4.5,0.3c-24,0-48,0-72,0c-0.8,0-1.7,0-2.5,0c-1.6,0-2.4-0.8-2.4-2.4c0-6,0-12,0-18c0-2,1-2.6,2.8-2.6
	c0.8,0,1.7,0,2.5,0c23.7,0,47.3,0,71,0C137.2,281.3,138.8,281.5,140.6,281.6z M506.7,288.8c-3.5,0-6.7,0-10.1,0
	c-0.1-1.4-0.3-2.7-0.3-4c0-38.6,0-77.2,0-115.8c0-4.6,0-4.6,4.8-4.6c1.8,0,3.6,0,5.7,0C506.7,206,506.7,247.2,506.7,288.8z
	 M459.1,160.9c0-5.1,0-9.7,0-14.8c5.7-0.4,11.3-0.1,16.9-0.2c5.5,0,10.9,0,16.8,0c0.1-2,0.3-3.6,0.3-5.2c0-13,0-26,0-39
	c0-1.3-0.8-3.4,1.3-3.7c2.1-0.3,2.7,1.8,3.2,3.3c0.5,1.4,0.4,3,0.4,4.4c0,11.3,0,22.6,0,34c0,1.8,0,3.6,0,6.1
	c10.3,0.2,20.3,0,30.6,0.2c0,5.2,0,9.9,0,14.9C505.4,160.9,482.5,160.9,459.1,160.9z M534,164.3c0,41.8,0,82.9,0,124.3
	c-3.1,0-6,0-9.2,0c-0.1-1.2-0.3-2.5-0.3-3.8c0-38.6,0-77.3,0-115.9c0-0.8,0-1.7,0-2.5c0-1.4,0.7-2.2,2.1-2.2
	C528.9,164.3,531.2,164.3,534,164.3z M511.3,164.6c3,0,5.6,0,8.1,0c1,3.8,1.3,116.8,0.3,124.2c-2.7,0-5.4,0-8.2,0
	C510.7,285.2,510.4,172.2,511.3,164.6z M557.7,288.9c-2.5,0-4.7,0-6.8,0c-1-3.5-1.2-118.6-0.2-124.4c2.2,0,4.4,0,7,0
	C557.7,205.9,557.7,247.2,557.7,288.9z M545.6,288.8c-2.6,0-4.9,0-7.4,0c0-41.5,0-82.7,0-124.2c1.2-0.1,2.2-0.2,3.1-0.3
	c1.3,0,2.6,0,4.2,0C545.6,206,545.6,247.2,545.6,288.8z M482,164.9c10.2-0.9,10.2-0.9,10.2,8.3c0,36.4,0,72.9,0,109.3
	c0,2,0,3.9,0,6.1c-1.8,0-3.2,0-5.2,0c0-1.8,0-3.4,0-5c0-14.6,0-29.3,0-43.9c0-2.6,0.3-5.1-3.5-5.2c-0.6,0-1.4-1.3-1.6-2.1
	c-0.3-0.9-0.1-2-0.1-3c0-20,0-39.9,0-59.9C481.9,168.1,482,166.5,482,164.9z M477.7,233.9c-4,0-7.6,0-11.4,0c0-23.1,0-46,0-69.2
	c3.8,0,7.5,0,11.4,0C477.7,187.9,477.7,210.6,477.7,233.9z M452.6,234.9c-0.1-2-0.2-3.6-0.2-5.2c0-19.9,0-39.9,0-59.8
	c0-0.8,0.1-1.7,0-2.5c-0.1-1.9,0.8-2.8,2.7-2.7c0.3,0,0.7,0,1,0c7.9,0,6.7-0.5,6.7,6.6c0,18.8-0.1,37.6-0.1,56.4c0,0.8,0,1.7,0,2.5
	c-0.3,3.1-1.5,4.5-4.7,4.8C456.3,235,454.6,234.9,452.6,234.9z M440.2,164.8c8.4-1.1,8.4-1.1,8.4,6.7c0,18.9,0,37.9,0,56.8
	c0,1.8,0,3.6,0,5.7c-3,0-5.4,0-7.9,0C439.7,230.6,439.3,175.4,440.2,164.8z M268.6,104.9c-2.1,2.7-4,3.1-6.1,3.1
	c-23.8,0-47.6,0-71.4,0c-0.2,0-0.3,0-0.5,0c-1.3-0.3-3.5,0.5-3.4-1.6c0-0.8,2.1-1.7,3.3-2.4c0.7-0.3,1.6-0.2,2.5-0.2
	c23.1,0,46.3,0,69.4,0C264.3,103.9,266.2,104.5,268.6,104.9z M309.4,302c-4.8,0-8.8,0-12.9,0c-0.8-2.9-1.1-5.4,1.1-7.9
	c1.9-2,1.9-4.8,1.8-7.5c-0.2-6.6-0.1-13.3-0.1-19.9c0-1.7,0.1-3.4,2.6-3.2c3,0.2,3.5,0.5,3.6,3.4c0.1,4.3,0,8.6,0,13
	C305.6,287.2,305.3,294.6,309.4,302z"/>
</svg>
