<svg xmlns="http://www.w3.org/2000/svg" width="320" height="131.97" viewBox="0 0 320 131.97">
  <defs>
    <style>
      .cls-1 {
        fill: #f8f8f8;
        fill-rule: evenodd;
      }
    </style>
  </defs>
  <path id="footer-logo.svg" class="cls-1" d="M694.675,9323.34L722,9355.69l-41.086-10.08-22.265,36.03-0.024-.25c12.374-54.42,56.692-92.77,58.062-93.96-49.5,35.33-61.651,51.62-61.651,51.62-0.067.05-.118,0.11-0.184,0.16l-40.416-9.92,39.154-16.03L650.462,9271l27.325,32.35,39.154-16.04Zm-111.909,72.57c-1.336.87-2.465,1.63-3.62,2.36-3.889,2.43-7.96,4.37-12.644,4.64a15.605,15.605,0,0,1-7.339-1.12c-3.7-1.65-5.517-4.66-6-8.56a36.059,36.059,0,0,1-.226-4.39c-0.024-8.43-.064-16.87.011-25.31a4.774,4.774,0,0,0-2.834-4.77c-0.709-.35-1.353-0.85-2.086-1.13a1.635,1.635,0,0,1-1.077-2.09,0.9,0.9,0,0,1,.578-0.59c2.968-.34,5.94-0.65,8.913-0.95s5.95-.55,8.92-0.88c1.746-.19,2.264.23,2.264,2.02q0,15.765.013,31.54a20.1,20.1,0,0,0,.31,3.64,4.907,4.907,0,0,0,4.592,4.25,17.857,17.857,0,0,0,8.255-1.12c1.915-.63,1.648-0.24,1.65-2.32q0.01-13.44,0-26.87c0-.36-0.019-0.73-0.019-1.1a4.128,4.128,0,0,0-2.511-4.18c-1-.44-1.885-1.13-2.867-1.61-0.946-.47-0.726-1.28-0.613-1.98a1.54,1.54,0,0,1,1.085-.48q8.867-.945,17.738-1.85a1.466,1.466,0,0,1,1.735,1.67q0,17.835.008,35.67c0,1.25.086,2.5,0.2,3.74a3.118,3.118,0,0,0,2.14,2.62c0.868,0.38,1.742.75,2.639,1.04,1.094,0.35.656,1.22,0.705,1.92s-0.535.67-1.018,0.74q-8.51,1.2-17.019,2.42c-1.393.2-1.906-.26-1.873-1.68,0.032-1.44.066-2.88,0.09-4.31C582.86,9396.66,582.816,9396.42,582.766,9395.91Zm-140.63-40.82c-0.893,0-1.713.05-2.521-.03a1.177,1.177,0,0,1-.644-0.64,61.128,61.128,0,0,0-5.91-9.35,10.273,10.273,0,0,0-9.316-4.18,12.285,12.285,0,0,0-5.652,1.26,7.571,7.571,0,0,0-3.815,6.2c-0.6,5.07,1.94,8.27,6.209,10.34,2.434,1.19,4.978,2.15,7.474,3.2a52.972,52.972,0,0,1,10.565,5.6c5.912,4.26,8.112,10.05,7.143,17.19-1.294,9.54-8.2,15.6-16.941,17.56-5.02,1.12-10.071.8-15.119,0.27a37.978,37.978,0,0,1-9.865-2.24,1.281,1.281,0,0,1-.705-0.87c-0.375-5.55-.7-11.1-1.034-16.65a2.716,2.716,0,0,1,.059-0.41,23.167,23.167,0,0,1,2.5.03,1.4,1.4,0,0,1,.7.72c2.1,3.57,4.125,7.19,6.305,10.72a10.2,10.2,0,0,0,5.7,4.78,16.35,16.35,0,0,0,10.256-.07c3.35-1.19,4.925-3.85,5.425-7.21,0.67-4.52-.979-7.97-4.809-10.47a58.731,58.731,0,0,0-10.016-4.86,36.673,36.673,0,0,1-9.6-5.43,16.369,16.369,0,0,1-5.953-11.28,19.96,19.96,0,0,1,1.035-9.56,18.421,18.421,0,0,1,10.4-10.37,26.632,26.632,0,0,1,10.422-2.09c4.738-.06,9.475.03,14.071,1.32,3.409,0.96,2.639.15,2.878,3.54,0.262,3.72.452,7.44,0.67,11.16C442.088,9353.85,442.106,9354.42,442.136,9355.09Zm196.1,12.15a13.16,13.16,0,0,1-2.006-.03,1.493,1.493,0,0,1-.783-0.64c-1.492-2.15-2.9-4.37-4.447-6.48-2.417-3.3-5.826-3.94-9.564-3.15-3.318.7-5.016,3.74-4.286,7.07,0.57,2.59,2.457,3.95,4.582,5,2.261,1.12,4.645,1.98,6.967,2.98a31.306,31.306,0,0,1,7.556,4.23,12.58,12.58,0,0,1,4.9,8.86,15.088,15.088,0,0,1-2.408,10.2,16.133,16.133,0,0,1-9.38,6.58,37.213,37.213,0,0,1-14.783.72c-2.471-.31-4.91-0.87-7.369-1.29a1.055,1.055,0,0,1-.993-1.17q-0.255-6.135-.559-12.26a0.882,0.882,0,0,1,1.025-1.14,2.278,2.278,0,0,1,2.343,1.36c1.518,2.5,3.158,4.93,4.863,7.31,2.36,3.29,5.713,4.26,9.589,3.81a6.887,6.887,0,0,0,5.228-2.8c1.656-2.43,1.571-7.04-1.983-9.06a74.223,74.223,0,0,0-6.955-3.41,44.751,44.751,0,0,1-8.452-4.3c-4.536-3.24-6.174-7.75-5.5-13.11,0.861-6.86,5.309-10.56,11.546-12.49a31.936,31.936,0,0,1,12.685-.78c2.322,0.23,4.608.82,6.913,1.23a0.841,0.841,0,0,1,.763,1c0.139,3.69.332,7.37,0.5,11.06C638.247,9366.72,638.24,9366.9,638.24,9367.24Zm-134.762,34.63h-1q-12.173,0-24.345-.01c-0.421,0-1.014.27-1.114-.54-0.181-1.47-.018-1.93.842-2.17,1.054-.29,2.118-0.56,3.148-0.93a2.364,2.364,0,0,0,1.638-2.12c0.081-.85.129-1.71,0.13-2.56,0-9.78-.041-19.56.014-29.34a5.117,5.117,0,0,0-2.5-4.83c-1.011-.63-1.951-1.37-2.964-1.99a1.4,1.4,0,0,1-.51-1.77,1.466,1.466,0,0,1,1.063-.52c3.933-.49,7.87-0.94,11.806-1.39,1.908-.22,3.815-0.45,5.725-0.64a1.347,1.347,0,0,1,1.669,1.58c-0.036,1.41-.1,2.81-0.154,4.22-0.013.35,0,.71,0,1.37,0.516-.42.846-0.65,1.124-0.92a23.949,23.949,0,0,1,8.162-5.44,10.883,10.883,0,0,1,6.185-.73c3.724,0.75,5.372,3.15,5.265,7.09-0.09,3.33-1.954,5.75-4.318,6.19-4.273.8-6.8,0.02-8.6-3.22a3.5,3.5,0,0,0-.822-1.19,3.213,3.213,0,0,0-1.756-.75,7.534,7.534,0,0,0-4.521,2.18,1.062,1.062,0,0,0-.234.73q0,15.735.03,31.45c0.006,1.99.649,2.64,2.6,2.99,0.929,0.16,1.841.42,2.768,0.6a0.7,0.7,0,0,1,.68.87C503.444,9400.62,503.478,9401.17,503.478,9401.87Zm42.059-.04H519.418a18.99,18.99,0,0,1,.027-2.02,0.859,0.859,0,0,1,.551-0.54c0.954-.32,1.93-0.56,2.893-0.84a2.81,2.81,0,0,0,2.223-2.87c0.013-.65.091-1.29,0.091-1.93q0.007-14.475,0-28.96c0-.58-0.078-1.16-0.089-1.74a3.4,3.4,0,0,0-1.474-2.81c-1.257-.92-2.552-1.78-3.832-2.66a1.936,1.936,0,0,1-.583-2.08,0.759,0.759,0,0,1,.518-0.26q6.771-.75,13.544-1.49c1.727-.19,3.453-0.39,5.183-0.56,1.3-.12,1.641.26,1.6,1.53-0.125,4.24-.291,8.48-0.314,12.73-0.048,8.71-.017,17.41-0.01,26.12,0,0.83.062,1.65,0.107,2.47a2.511,2.511,0,0,0,2.06,2.47c0.969,0.27,1.928.57,2.906,0.8a0.765,0.765,0,0,1,.727.93C545.5,9400.66,545.537,9401.21,545.537,9401.83Zm-70.418-.02H449.211a0.762,0.762,0,0,1-.091-0.19c-0.1-2.19-.1-2.19,1.981-2.76,3.395-.93,3.756-1.31,3.769-4.88,0.035-9.9-.017-19.8.031-29.7a5.168,5.168,0,0,0-2.689-5.01c-0.768-.43-1.429-1.06-2.216-1.45-1.156-.56-1.344-1.43-1.042-2.64,1.807-.2,3.646-0.42,5.486-0.62q6.5-.72,13-1.43a6.786,6.786,0,0,1,1.183-.09,1.089,1.089,0,0,1,1.156,1.21q-0.195,19.89-.343,39.77c-0.025,3.54.263,3.86,3.673,4.8a2.6,2.6,0,0,0,.261.08C475.484,9399.47,475.484,9399.47,475.119,9401.81Zm-13.538-68.48c3.555,0.25,6.266,1.44,7.62,4.61a7.422,7.422,0,0,1-6.134,10.41,8.286,8.286,0,0,1-7.567-2.52,7.416,7.416,0,0,1,3.588-12.04A20.676,20.676,0,0,1,461.581,9333.33Zm70.315,0c3.555,0.25,6.267,1.44,7.622,4.61a7.424,7.424,0,0,1-6.132,10.41,8.264,8.264,0,0,1-7.568-2.52,7.415,7.415,0,0,1,3.585-12.04A20.676,20.676,0,0,1,531.9,9333.33Z" transform="translate(-402 -9271)"/>
</svg>
