<?xml version="1.0" encoding="utf-8"?>
<!-- Generator: Adobe Illustrator 16.0.0, SVG Export Plug-In . SVG Version: 6.00 Build 0)  -->
<!DOCTYPE svg PUBLIC "-//W3C//DTD SVG 1.1//EN" "http://www.w3.org/Graphics/SVG/1.1/DTD/svg11.dtd">
<svg version="1.1" id="Слой_1" xmlns="http://www.w3.org/2000/svg" xmlns:xlink="http://www.w3.org/1999/xlink" x="0px" y="0px"
	 width="143.998px" height="59.997px" viewBox="0 0 143.998 59.997" enable-background="new 0 0 143.998 59.997"
	 xml:space="preserve">
<g>
	<g>
		<path fill="#FFFFFF" d="M131.701,23.791l10.02-16.375l-17.619,7.289L111.806,0l1.407,19.209l-17.619,7.289l18.188,4.508
			c0.03-0.023,0.053-0.05,0.083-0.074c0,0,5.469-7.401,27.743-23.462c-0.617,0.541-20.56,17.973-26.128,42.711l0.011,0.109
			l10.02-16.376l18.488,4.584L131.701,23.791z M89.984,57.635c-0.403-0.133-0.797-0.302-1.187-0.47
			c-0.522-0.227-0.909-0.586-0.964-1.191c-0.051-0.565-0.089-1.135-0.09-1.702c-0.006-5.403-0.003-10.809-0.004-16.213
			c0-0.526-0.29-0.812-0.779-0.761c-2.662,0.277-5.323,0.555-7.983,0.844c-0.176,0.019-0.472,0.119-0.487,0.217
			c-0.051,0.319-0.15,0.688,0.275,0.9c0.441,0.221,0.842,0.53,1.29,0.733c0.827,0.376,1.13,1.038,1.13,1.9
			c0,0.167,0.009,0.333,0.009,0.5c0.002,4.07,0.005,8.142,0.002,12.214c-0.001,0.943,0.119,0.767-0.742,1.051
			c-1.206,0.396-2.425,0.707-3.715,0.514c-1.153-0.173-1.854-0.785-2.066-1.934c-0.101-0.541-0.139-1.102-0.14-1.654
			c-0.01-4.779-0.006-9.558-0.006-14.338c0-0.813-0.232-1.002-1.019-0.915c-1.337,0.146-2.676,0.263-4.014,0.399
			c-1.338,0.135-2.676,0.273-4.012,0.431c-0.099,0.013-0.24,0.161-0.26,0.266c-0.078,0.429,0.015,0.772,0.484,0.952
			c0.33,0.127,0.62,0.355,0.938,0.516c0.89,0.447,1.285,1.134,1.275,2.168c-0.033,3.834-0.015,7.67-0.005,11.504
			c0.002,0.666,0.021,1.336,0.103,1.995c0.219,1.771,1.035,3.138,2.702,3.888c1.054,0.473,2.165,0.574,3.303,0.509
			c2.107-0.12,3.939-1.003,5.689-2.109c0.52-0.328,1.027-0.675,1.629-1.07c0.022,0.233,0.042,0.339,0.04,0.444
			c-0.011,0.653-0.025,1.306-0.04,1.959c-0.015,0.647,0.216,0.854,0.843,0.763c2.553-0.368,5.105-0.733,7.658-1.099
			c0.218-0.031,0.481-0.011,0.458-0.338C90.28,58.193,90.478,57.795,89.984,57.635z M16.435,43.859
			c-1.47-1.072-3.097-1.836-4.754-2.543c-1.124-0.48-2.269-0.916-3.364-1.454c-1.921-0.942-3.062-2.397-2.793-4.702
			c0.142-1.218,0.627-2.199,1.717-2.818c0.792-0.451,1.659-0.533,2.543-0.574c1.72-0.082,3.104,0.467,4.192,1.904
			c1.016,1.342,1.902,2.747,2.659,4.246c0.061,0.12,0.184,0.281,0.29,0.291c0.363,0.038,0.732,0.015,1.134,0.015
			c-0.013-0.305-0.021-0.564-0.036-0.825c-0.099-1.691-0.184-3.385-0.302-5.074c-0.107-1.543,0.238-1.174-1.295-1.608
			c-2.068-0.588-4.2-0.629-6.332-0.603c-1.622,0.021-3.196,0.295-4.689,0.951c-2.167,0.951-3.804,2.451-4.68,4.715
			c-0.543,1.404-0.624,2.863-0.466,4.346c0.22,2.069,1.085,3.789,2.679,5.125c1.294,1.085,2.78,1.827,4.318,2.467
			c1.548,0.646,3.094,1.277,4.508,2.211c1.724,1.138,2.466,2.704,2.164,4.758c-0.225,1.531-0.934,2.737-2.441,3.277
			c-1.523,0.545-3.081,0.487-4.615,0.033c-1.153-0.342-1.958-1.18-2.566-2.174c-0.98-1.603-1.891-3.249-2.837-4.873
			c-0.076-0.131-0.199-0.311-0.316-0.324c-0.373-0.042-0.754-0.016-1.125-0.016C0.011,50.714-0.002,50.754,0,50.795
			c0.15,2.522,0.297,5.047,0.466,7.57c0.009,0.14,0.178,0.339,0.317,0.393c1.429,0.56,2.92,0.862,4.438,1.021
			c2.271,0.238,4.545,0.385,6.804-0.126c3.933-0.888,7.041-3.642,7.624-7.979C20.085,48.427,19.095,45.798,16.435,43.859z
			 M105.414,47.828c-1.023-0.834-2.199-1.402-3.399-1.923c-1.045-0.454-2.118-0.847-3.136-1.354
			c-0.956-0.477-1.805-1.094-2.062-2.274c-0.328-1.512,0.436-2.894,1.929-3.212c1.682-0.361,3.216-0.065,4.304,1.432
			c0.698,0.959,1.329,1.967,2.001,2.945c0.085,0.124,0.222,0.271,0.353,0.292c0.278,0.045,0.567,0.013,0.902,0.013
			c0-0.156,0.004-0.236,0-0.317c-0.078-1.677-0.165-3.353-0.228-5.03c-0.01-0.27-0.079-0.404-0.344-0.451
			c-1.037-0.187-2.065-0.454-3.11-0.559c-1.914-0.191-3.839-0.229-5.708,0.355c-2.807,0.875-4.809,2.559-5.196,5.674
			c-0.303,2.438,0.435,4.486,2.476,5.963c1.173,0.847,2.495,1.377,3.804,1.953c1.064,0.469,2.12,0.973,3.13,1.551
			c1.6,0.916,1.638,3.014,0.892,4.115c-0.56,0.828-1.405,1.161-2.353,1.273c-1.744,0.207-3.252-0.236-4.314-1.732
			c-0.768-1.08-1.505-2.186-2.188-3.322c-0.27-0.449-0.531-0.645-1.055-0.615c-0.399,0.021-0.479,0.158-0.461,0.518
			c0.094,1.857,0.175,3.713,0.252,5.57c0.013,0.313,0.131,0.48,0.446,0.533c1.106,0.19,2.204,0.446,3.316,0.584
			c2.23,0.275,4.461,0.3,6.652-0.326c1.748-0.5,3.2-1.451,4.221-2.992c0.928-1.4,1.248-2.953,1.084-4.635
			C107.457,50.178,106.687,48.865,105.414,47.828z M49.674,37.337c-0.946-0.195-1.883-0.026-2.783,0.33
			c-1.403,0.553-2.606,1.408-3.673,2.475c-0.126,0.125-0.274,0.227-0.506,0.416c0-0.301-0.005-0.461,0.001-0.623
			c0.021-0.637,0.053-1.275,0.068-1.914c0.014-0.523-0.238-0.771-0.75-0.721c-0.86,0.087-1.719,0.189-2.576,0.29
			c-1.771,0.208-3.543,0.412-5.313,0.633c-0.173,0.021-0.447,0.119-0.479,0.234c-0.075,0.278-0.107,0.597,0.229,0.807
			c0.456,0.282,0.879,0.618,1.334,0.902c0.814,0.51,1.132,1.227,1.126,2.198c-0.024,4.445-0.005,8.89-0.007,13.334
			c0,0.389-0.021,0.778-0.059,1.164c-0.044,0.471-0.301,0.811-0.736,0.965c-0.464,0.166-0.942,0.29-1.417,0.424
			c-0.387,0.108-0.46,0.314-0.379,0.984c0.045,0.369,0.313,0.246,0.502,0.246c3.651,0.007,7.304,0.004,10.955,0.004h0.451
			c0-0.316-0.016-0.566,0.005-0.814c0.02-0.242-0.075-0.351-0.307-0.396c-0.417-0.079-0.827-0.196-1.245-0.271
			c-0.88-0.16-1.169-0.455-1.172-1.359c-0.014-4.764-0.014-9.529-0.014-14.294c0-0.112,0.03-0.271,0.105-0.333
			c0.597-0.5,1.229-0.967,2.035-0.991c0.263-0.008,0.559,0.174,0.79,0.341c0.166,0.119,0.264,0.35,0.369,0.543
			c0.809,1.473,1.946,1.825,3.869,1.464c1.064-0.2,1.902-1.3,1.943-2.817C52.091,38.771,51.35,37.678,49.674,37.337z M64.268,58.267
			c-0.44-0.102-0.872-0.24-1.309-0.361c-0.567-0.156-0.895-0.516-0.927-1.123c-0.021-0.373-0.048-0.748-0.048-1.122
			c-0.004-3.958-0.018-7.917,0.004-11.875c0.011-1.929,0.085-3.858,0.142-5.787c0.017-0.573-0.137-0.747-0.722-0.69
			c-0.778,0.072-1.555,0.166-2.332,0.252c-2.032,0.225-4.063,0.447-6.096,0.677c-0.082,0.01-0.195,0.056-0.232,0.12
			c-0.143,0.247,0.016,0.771,0.263,0.942c0.575,0.401,1.158,0.794,1.724,1.21c0.422,0.311,0.653,0.736,0.664,1.277
			c0.005,0.264,0.039,0.526,0.039,0.789c0.004,4.389,0.004,8.777,0.002,13.168c0,0.291-0.035,0.582-0.041,0.874
			c-0.014,0.688-0.358,1.114-1,1.304c-0.434,0.129-0.873,0.24-1.303,0.382c-0.102,0.034-0.237,0.153-0.248,0.245
			c-0.031,0.299-0.012,0.602-0.012,0.919H64.59c0-0.282-0.017-0.531,0.005-0.776C64.616,58.431,64.511,58.325,64.268,58.267z
			 M32.114,58.139c-0.04-0.011-0.078-0.027-0.118-0.039c-1.533-0.425-1.664-0.572-1.652-2.181
			c0.043-6.026,0.096-12.053,0.154-18.078c0.004-0.391-0.209-0.516-0.52-0.548c-0.175-0.018-0.355,0.021-0.533,0.04
			c-1.95,0.215-3.899,0.432-5.85,0.65c-0.828,0.092-1.655,0.189-2.469,0.281c-0.136,0.549-0.051,0.943,0.469,1.199
			c0.354,0.176,0.652,0.465,0.998,0.66c0.885,0.506,1.215,1.264,1.21,2.277c-0.021,4.499,0.002,9-0.015,13.5
			c-0.005,1.621-0.168,1.795-1.695,2.217c-0.936,0.258-0.936,0.258-0.892,1.254c0.001,0.024,0.021,0.047,0.041,0.09h11.658
			C33.066,58.398,33.066,58.398,32.114,58.139z M27.479,35.16c2.314-0.279,3.678-2.566,2.76-4.733
			c-0.609-1.438-1.829-1.98-3.429-2.092c-0.291,0.051-0.721,0.083-1.122,0.207c-2.39,0.735-3.254,3.652-1.614,5.474
			C24.984,35.026,26.156,35.321,27.479,35.16z M59.121,35.16c2.314-0.279,3.678-2.566,2.76-4.733c-0.609-1.439-1.83-1.98-3.43-2.092
			c-0.291,0.051-0.721,0.083-1.121,0.207c-2.39,0.737-3.255,3.653-1.614,5.474C56.627,35.026,57.799,35.321,59.121,35.16z"/>
	</g>
</g>
</svg>
