<?xml version="1.0" encoding="utf-8"?>
<!-- Generator: Adobe Illustrator 16.0.0, SVG Export Plug-In . SVG Version: 6.00 Build 0)  -->
<!DOCTYPE svg PUBLIC "-//W3C//DTD SVG 1.1//EN" "http://www.w3.org/Graphics/SVG/1.1/DTD/svg11.dtd">
<svg version="1.1" id="Слой_1" xmlns="http://www.w3.org/2000/svg" xmlns:xlink="http://www.w3.org/1999/xlink" x="0px" y="0px"
	 width="143.997px" height="70px" viewBox="0 0 143.997 70" enable-background="new 0 0 143.997 70" xml:space="preserve">
<g>
	<g>
		<path fill-rule="evenodd" clip-rule="evenodd" fill="#FFFFFF" d="M49.661,54.131h3.538v1.411h0.413v-2.998h-0.413v1.293h-3.538
			v-1.293h-0.413v2.998h0.413V54.131z M58.566,55.249H55.44v-1.117h3.067v-0.294H55.44v-0.999h3.126v-0.294h-3.538v2.998h3.538
			V55.249z M61.457,55.249h1.179v0.294h0.413v-0.294h1.238c1.063,0,1.475-0.295,1.475-1.059v-0.353c0-0.706-0.354-1.058-1.475-1.058
			h-1.238v-0.295h-0.413v0.295h-1.179c-1.121,0-1.475,0.293-1.475,1.058v0.353C59.982,54.954,60.336,55.249,61.457,55.249z
			 M63.049,53.073h1.238c0.768,0,1.063,0.178,1.063,0.765v0.353c0,0.588-0.295,0.764-1.063,0.764h-1.238V53.073z M60.395,53.78
			c0-0.529,0.295-0.707,1.063-0.707h1.179v1.881h-1.179c-0.768,0-1.063-0.176-1.063-0.764V53.78z M68.947,55.542h0.413v-2.704h1.946
			v-0.294h-4.306v0.294h1.946V55.542z M72.84,55.542l1.238-1.234h2.006v1.234h0.412v-2.998h-2.653c-1.003,0-1.416,0.235-1.416,0.94
			c0,0.529,0.413,0.823,1.18,0.823l-1.356,1.234H72.84z M72.84,53.485c0-0.47,0.235-0.646,0.826-0.646h2.418v1.176h-2.418
			C73.075,54.014,72.84,53.896,72.84,53.485z M78.442,54.131h3.539v1.411h0.413v-2.998h-0.413v1.293h-3.539v-1.293H78.03v2.998
			h0.412V54.131z M84.459,54.778h2.831l0.53,0.765h0.472l-2.064-2.998h-0.648l-2.063,2.998h0.471L84.459,54.778z M85.874,52.721
			l1.18,1.763h-2.359L85.874,52.721z M89.708,55.542l1.298-1.234h2.005v1.234h0.413v-2.998H90.71c-1.002,0-1.356,0.235-1.356,0.94
			c0,0.529,0.354,0.823,1.18,0.823l-1.356,1.234H89.708z M89.708,53.485c0-0.47,0.295-0.646,0.825-0.646h2.478v1.176h-2.418
			C89.944,54.014,89.708,53.896,89.708,53.485z M97.848,54.131h0.648l2.595,1.411h0.767l-2.949-1.587l2.832-1.411h-0.708
			l-2.536,1.293h-0.648v-1.293h-0.413v2.998h0.413V54.131z M104.453,55.542h1.71c1.062,0,1.475-0.177,1.475-1.059v-0.94
			c0-0.822-0.472-1.059-1.475-1.059h-1.71c-1.18,0-1.534,0.295-1.534,1.059v0.94C102.919,55.249,103.332,55.542,104.453,55.542z
			 M103.332,53.543c0-0.588,0.354-0.764,1.121-0.764h1.71c0.826,0,1.062,0.176,1.062,0.764v0.94c0,0.588-0.235,0.765-1.062,0.765
			h-1.71c-0.826,0-1.121-0.177-1.121-0.765V53.543z M109.407,52.78h0.235l2.124,2.763h0.235l2.183-2.763h0.235v2.763h0.413v-2.998
			h-0.943l-2.005,2.527l-2.006-2.527h-0.885v2.998h0.413V52.78z M116.721,52.838h3.538v2.704h0.413v-2.998h-4.364v2.998h0.413
			V52.838z M122.736,54.778h2.831l0.472,0.765h0.531l-2.123-2.998h-0.59l-2.064,2.998h0.412L122.736,54.778z M124.152,52.721
			l1.179,1.763h-2.358L124.152,52.721z M128.162,54.131h3.539v1.411h0.413v-2.998h-0.413v1.293h-3.539v-1.293h-0.412v2.998h0.412
			V54.131z M137.363,52.78h0.118v2.763h0.413v-2.998h-0.768l-3.185,2.763h-0.059v-2.763h-0.413v2.998h0.708L137.363,52.78z
			 M139.664,55.542l1.238-1.234h2.005v1.234h0.413v-2.998h-2.713c-0.943,0-1.356,0.235-1.356,0.94c0,0.529,0.413,0.823,1.18,0.823
			l-1.357,1.234H139.664z M139.664,53.485c0-0.47,0.235-0.646,0.767-0.646h2.477v1.176h-2.418
			C139.84,54.014,139.664,53.896,139.664,53.485z M92.774,63.065H89.06v-2.881h-3.716l-0.035,2.464
			c-0.694-1.084-1.87-2.483-3.563-2.58c-2.006-0.118-4.777-0.353-6.134,0.116c-1.298,0.472-2.359,1.646-2.596,2.764
			c-0.041,0.184-0.083,0.408-0.117,0.658c0-0.104-0.001-0.206-0.001-0.305c0-1.823-2.064-3.352-5.897-3.586
			c-3.834-0.235-5.544,1.41-6.488,2.527c-0.118-1-0.825-1.469-1.533-1.94c-0.767-0.47-9.731-0.353-9.731-0.353l-0.118,8.464
			l3.598,0.118l0.118-2.352c0,0,2.654,0.234,4.896,0.118c1.197-0.062,1.929-0.905,2.34-1.831c0.016,0.188,0.038,0.385,0.078,0.596
			c0.354,1.939,2.89,3.351,4.424,3.645c1.592,0.235,3.833,0.235,6.134-0.529c1.57-0.481,2.013-1.758,2.136-3.08
			c0.08,0.903,0.395,1.822,1.226,2.375c1.534,1.059,4.07,1.939,6.488,1.47c2.021-0.442,3.915-1.175,4.689-2.57l-0.03,2.159h3.951
			V65.71h3.834v2.821h3.656V59.95h-3.893V63.065z M56.325,63.77c-0.59,0.588-3.479,0-3.479,0l0.118-1.41
			c0,0,1.533-0.117,2.536-0.117C56.443,62.243,56.915,63.182,56.325,63.77z M67.708,66.415c-1.062,0.354-3.243,0.706-3.598-1.938
			c-0.235-1.528,1.062-2.47,2.183-2.47c1.062,0,2.831,0.118,2.713,2.117C68.889,66.18,68.771,66.063,67.708,66.415z M85.269,65.474
			c-1.309,0-3.759,0-3.759,0s-1.062,1.411-2.359,1.294c0,0-1.238,0.353-2.064-0.822c-0.825-1.234-0.708-2.293,0.118-3.352
			c0.826-1.116,3.126-0.764,3.362-0.234c0.235,0.471,0.59,1.176,0.59,1.176l4.143-0.215L85.269,65.474z M101.799,65.474h5.662
			v-2.409h-5.427v-0.822h6.488v-2.175L97.848,59.95l0.117,8.875h10.793v-2.292h-6.959V65.474z M143.969,64.946
			c-0.117-0.822-1.002-1.527-1.828-1.998s-5.426-0.236-5.426-0.236v-2.409l-3.48,0.118v0.699l-0.707-0.817h-10.086
			c0,0-0.084,0.349-0.101,0.758c-1.21-0.849-3.896-0.745-4.323-0.64c-0.471,0.117-0.235-0.471-0.235-0.471h-3.716l-0.236,0.588
			c0,0-2.3,0-3.479,0.118c-1.238,0.118-2.064,1.469-2.064,2.997c0,1.587,1.593,2.527,2.418,2.762
			c0.826,0.236,3.362,0.354,3.362,0.354v2.057h3.951v-1.939c0,0,2.006-0.117,2.654-0.117c0.59,0,1.416-0.47,2.359-1.528
			c0.737-0.821,0.739-1.864,0.291-2.851c1.061,0.107,2.245,0.205,2.245,0.205v6.349h3.834v-6.349h3.479l0.354-0.461v6.927
			c0,0,6.017,0,6.96,0c1.003,0,1.946-0.528,2.772-1.234C143.852,67.121,144.087,65.828,143.969,64.946z M113.948,64.358
			c0,0-1.946,0.235-1.946-0.471c0-0.705,0.354-1.41,2.064-1.293L113.948,64.358z M119.847,64.005
			c-0.649,0.823-1.711,0.353-1.711,0.353l-0.118-1.646C119.315,62.594,120.437,63.182,119.847,64.005z M139.486,66.651
			c-0.59,0-2.359,0-2.359,0V65.24c0,0,1.652-0.411,2.713-0.177C140.961,65.358,140.076,66.651,139.486,66.651z M0,35.794
			l6.134,5.348V20.454H0V35.794z M7.313,42.259l5.897,5.583V13.636H7.313V42.259z M14.391,39.261h6.017V6.818h-6.017V39.261z
			 M21.586,32.561h6.252V0h-6.252V32.561z M28.723,39.261h5.957V6.465h-5.957V39.261z M36.154,47.842l5.898-5.701V13.518h-5.898
			V47.842z M49.13,20.337h-6.016v20.805l6.016-5.819V20.337z M14.391,70h6.017V39.967h-6.017V70z M21.586,70h5.898V33.501h-5.898V70
			z M28.723,70h5.957V40.084h-5.957V70z"/>
	</g>
</g>
</svg>
