<svg xmlns="http://www.w3.org/2000/svg" width="199" height="82" viewBox="0 0 199 82">
  <defs>
    <style>
      .cls-1 {
        fill: #005592;
        fill-rule: evenodd;
      }
    </style>
  </defs>
  <path id="logo.svg" class="cls-1" d="M265.007,56.514L282,76.61l-25.55-6.263L242.6,92.728l-0.014-.15c7.695-33.809,35.255-57.633,36.107-58.372-30.782,21.951-38.339,32.066-38.339,32.066-0.042.033-.074,0.069-0.115,0.1l-25.134-6.16,24.349-9.962L237.512,24l16.993,20.1,24.349-9.961Zm-69.593,45.08c-0.831.542-1.533,1.016-2.251,1.464a16.564,16.564,0,0,1-7.863,2.883,9.663,9.663,0,0,1-4.564-.7A6.222,6.222,0,0,1,177,99.931a22.341,22.341,0,0,1-.14-2.727c-0.015-5.241-.04-10.482.007-15.721a2.959,2.959,0,0,0-1.763-2.963c-0.44-.219-0.841-0.532-1.3-0.7a1.018,1.018,0,0,1-.67-1.3,0.553,0.553,0,0,1,.36-0.363c1.846-.213,3.694-0.4,5.543-0.59s3.7-.346,5.547-0.546c1.086-.118,1.407.143,1.407,1.252q0,9.8.009,19.6a12.468,12.468,0,0,0,.193,2.26,3.06,3.06,0,0,0,2.855,2.642,11.157,11.157,0,0,0,5.134-.7c1.19-.387,1.025-0.148,1.026-1.438q0.006-8.345,0-16.69c0-.228-0.012-0.455-0.012-0.683a2.564,2.564,0,0,0-1.562-2.6c-0.619-.279-1.172-0.7-1.783-1a0.948,0.948,0,0,1-.381-1.23,0.967,0.967,0,0,1,.675-0.3q5.514-.593,11.031-1.152a0.913,0.913,0,0,1,1.079,1.037q0,11.08,0,22.16c0,0.776.053,1.552,0.124,2.325a1.935,1.935,0,0,0,1.331,1.628c0.54,0.231,1.083.461,1.641,0.642,0.68,0.22.408,0.762,0.438,1.192,0.032,0.447-.332.419-0.633,0.462q-5.292.747-10.583,1.5c-0.867.123-1.186-.158-1.165-1.044s0.041-1.784.056-2.677C195.472,102.059,195.445,101.914,195.414,101.594ZM107.959,76.237c-0.555,0-1.065.031-1.567-.018a0.728,0.728,0,0,1-.4-0.4,37.761,37.761,0,0,0-3.676-5.8,6.394,6.394,0,0,0-5.793-2.6,7.654,7.654,0,0,0-3.515.784,4.706,4.706,0,0,0-2.372,3.853c-0.37,3.15,1.206,5.136,3.861,6.424,1.514,0.735,3.1,1.331,4.648,1.987a33.018,33.018,0,0,1,6.57,3.476c3.677,2.65,5.046,6.246,4.443,10.682-0.8,5.928-5.1,9.692-10.536,10.9a29,29,0,0,1-9.4.173,23.629,23.629,0,0,1-6.135-1.4,0.79,0.79,0,0,1-.438-0.537c-0.233-3.448-.436-6.9-0.643-10.347a1.745,1.745,0,0,1,.036-0.254,14.047,14.047,0,0,1,1.554.021,0.869,0.869,0,0,1,.437.443c1.309,2.219,2.565,4.471,3.921,6.66a6.326,6.326,0,0,0,3.546,2.971,10.177,10.177,0,0,0,6.379-.045,5.116,5.116,0,0,0,3.373-4.478,6.145,6.145,0,0,0-2.991-6.5,36.672,36.672,0,0,0-6.229-3.02,22.671,22.671,0,0,1-5.968-3.373,10.153,10.153,0,0,1-3.7-7A12.379,12.379,0,0,1,84,72.9a11.457,11.457,0,0,1,6.467-6.446,16.617,16.617,0,0,1,6.481-1.3,30.619,30.619,0,0,1,8.75.822c2.12,0.6,1.641.089,1.79,2.2,0.163,2.31.281,4.624,0.417,6.936C107.93,75.465,107.941,75.821,107.959,76.237Zm121.953,7.549a8.238,8.238,0,0,1-1.248-.019,0.91,0.91,0,0,1-.487-0.4c-0.928-1.338-1.8-2.716-2.765-4.026-1.5-2.046-3.623-2.448-5.948-1.957a3.5,3.5,0,0,0-2.665,4.391,4.6,4.6,0,0,0,2.849,3.108c1.406,0.694,2.889,1.232,4.333,1.852a19.61,19.61,0,0,1,4.7,2.629,7.819,7.819,0,0,1,3.049,5.5,9.363,9.363,0,0,1-1.5,6.334,10.03,10.03,0,0,1-5.833,4.089,23.127,23.127,0,0,1-9.193.445c-1.537-.187-3.054-0.538-4.582-0.8a0.658,0.658,0,0,1-.618-0.729q-0.159-3.808-.348-7.613a0.548,0.548,0,0,1,.637-0.708,1.417,1.417,0,0,1,1.458.841c0.944,1.552,1.964,3.064,3.024,4.54a5.937,5.937,0,0,0,5.963,2.368,4.28,4.28,0,0,0,3.251-1.741,4.028,4.028,0,0,0-1.233-5.624,45.687,45.687,0,0,0-4.325-2.12,27.933,27.933,0,0,1-5.256-2.669,8.1,8.1,0,0,1-3.421-8.148c0.536-4.259,3.3-6.558,7.18-7.756a19.785,19.785,0,0,1,7.889-.484c1.443,0.142,2.865.507,4.3,0.761a0.523,0.523,0,0,1,.475.618c0.086,2.293.206,4.582,0.314,6.873C229.916,83.461,229.912,83.572,229.912,83.785Zm-83.8,21.513h-0.624q-7.569,0-15.139-.007c-0.262,0-.631.168-0.693-0.337-0.113-.914-0.012-1.2.523-1.345,0.656-.183,1.317-0.351,1.958-0.578a1.47,1.47,0,0,0,1.018-1.319c0.051-.528.081-1.06,0.081-1.591,0-6.074-.025-12.149.009-18.224a3.183,3.183,0,0,0-1.556-3c-0.628-.389-1.213-0.848-1.843-1.234a0.87,0.87,0,0,1-.317-1.1,0.917,0.917,0,0,1,.661-0.32c2.446-.3,4.894-0.582,7.342-0.865,1.186-.136,2.372-0.278,3.56-0.4a0.839,0.839,0,0,1,1.038.984c-0.023.872-.066,1.745-0.1,2.617-0.008.22,0,.441,0,0.85,0.321-.26.526-0.4,0.7-0.57a14.956,14.956,0,0,1,5.076-3.38,6.794,6.794,0,0,1,3.846-.454c2.315,0.469,3.34,1.961,3.274,4.4-0.056,2.074-1.215,3.576-2.685,3.85-2.658.495-4.23,0.011-5.347-2a2.158,2.158,0,0,0-.511-0.743,2.037,2.037,0,0,0-1.092-.464,4.692,4.692,0,0,0-2.811,1.355,0.654,0.654,0,0,0-.146.456q0,9.767.019,19.534c0,1.235.4,1.639,1.619,1.856,0.577,0.1,1.145.262,1.721,0.372a0.439,0.439,0,0,1,.423.541C146.085,104.523,146.107,104.865,146.107,105.3Zm26.155-.027H156.02a11.848,11.848,0,0,1,.016-1.255,0.55,0.55,0,0,1,.343-0.336c0.593-.2,1.2-0.346,1.8-0.522a1.745,1.745,0,0,0,1.383-1.783c0.008-.4.056-0.8,0.056-1.195q0-9,0-17.993c0-.361-0.048-0.72-0.055-1.08a2.121,2.121,0,0,0-.917-1.747c-0.782-.568-1.587-1.1-2.383-1.653a1.2,1.2,0,0,1-.363-1.287,0.474,0.474,0,0,1,.323-0.165q4.21-.469,8.422-0.924c1.075-.117,2.148-0.243,3.223-0.345,0.809-.076,1.021.161,1,0.945-0.078,2.635-.181,5.272-0.2,7.909-0.029,5.409-.01,10.819,0,16.229,0,0.511.038,1.023,0.066,1.534a1.566,1.566,0,0,0,1.281,1.534c0.6,0.165,1.2.354,1.807,0.5a0.476,0.476,0,0,1,.453.578C172.24,104.545,172.262,104.885,172.262,105.271Zm-43.791-.007H112.359a0.432,0.432,0,0,1-.056-0.123c-0.06-1.36-.06-1.36,1.232-1.713,2.111-.577,2.336-0.814,2.344-3.031,0.021-6.149-.011-12.3.019-18.449a3.207,3.207,0,0,0-1.673-3.111c-0.477-.269-0.888-0.663-1.377-0.9A1.233,1.233,0,0,1,112.2,76.3c1.124-.128,2.268-0.261,3.412-0.388q4.041-.447,8.084-0.887a3.591,3.591,0,0,1,.736-0.054,0.67,0.67,0,0,1,.718.747q-0.12,12.354-.213,24.708c-0.015,2.2.164,2.4,2.284,2.981,0.055,0.015.108,0.037,0.163,0.053C128.7,103.809,128.7,103.809,128.471,105.264Zm-8.419-42.542c2.211,0.154,3.9.894,4.739,2.86a4.612,4.612,0,0,1-3.815,6.469,5.145,5.145,0,0,1-4.706-1.567A4.606,4.606,0,0,1,118.5,63,12.069,12.069,0,0,1,120.052,62.722Zm43.727,0c2.211,0.154,3.9.892,4.74,2.859a4.612,4.612,0,0,1-3.814,6.469A5.145,5.145,0,0,1,160,70.486a4.6,4.6,0,0,1,2.229-7.48A11.979,11.979,0,0,1,163.779,62.722Z" transform="translate(-83 -24)"/>
</svg>
