<?xml version="1.0" encoding="utf-8"?>
<!-- Generator: Adobe Illustrator 16.0.0, SVG Export Plug-In . SVG Version: 6.00 Build 0)  -->
<!DOCTYPE svg PUBLIC "-//W3C//DTD SVG 1.1//EN" "http://www.w3.org/Graphics/SVG/1.1/DTD/svg11.dtd">
<svg version="1.1" id="Слой_1" xmlns="http://www.w3.org/2000/svg" xmlns:xlink="http://www.w3.org/1999/xlink" x="0px" y="0px"
	 width="136.999px" height="25.993px" viewBox="0 0 136.999 25.993" enable-background="new 0 0 136.999 25.993"
	 xml:space="preserve">
<g>
	<g>
		<path fill-rule="evenodd" clip-rule="evenodd" fill="#FFFFFF" d="M2.551,4.617L2.551,4.617v0.001l0,0l0,0l0,0l0,0.001l0.001,0
			L2.551,4.623l0,0l0,0.001l0,0l0,0l0.001,0l0.001,0.001H2.552l0.001,0L2.552,4.629c0,0,0,0,0,0h0c0,0,0.001,0,0.001,0.001
			l0.001,0.001L2.553,4.633h0.001L2.553,4.635h0l0,0l0.001,0v0l0,0l0,0.001l0,0l0,0L2.555,4.64l0,0l0.001,0L2.555,4.643v0
			c0,0,0.001,0.001,0.001,0.001l0,0l0.001,0.001L2.556,4.648c0,0,0.001,0,0.001,0.001l0,0l0.001,0L2.557,4.651l0,0l0,0.001
			l0.001,0.001l0,0v0.001l0.001,0L2.559,4.658l0.002,0.001L2.56,4.661l0.002,0.001L2.561,4.663l0.001,0.001l0,0l0,0l0,0l0.001,0.001
			l0,0c0,0,0.001,0.001,0.001,0.001l0,0.001L2.564,4.67L2.563,4.671l0.001,0.001l0,0l0.002,0.001l0,0.001l0.001,0.001L2.566,4.678
			c0.001,0,0.001,0,0.002,0L2.567,4.679l0,0l0,0h0.001h0L2.568,4.682l0.003,0.002L2.57,4.685l0.003,0.002L2.572,4.688l0.001,0.001
			l0,0L2.574,4.69v0l0.002,0.001L2.575,4.693l0.002,0.001L2.576,4.696l0.001,0.001l5.601,3.775l0.009,0.005l12.04-7.473l0-0.001
			l0.002-0.001l0-0.001L20.23,1l0.002-0.001l-0.001-0.001l0.005-0.003l0,0c0,0,0.002-0.001,0.002-0.001l0,0l0,0l0,0
			c0,0,0.001-0.001,0.001-0.001l-0.001-0.001l0.003-0.001v0l0.001,0l0-0.001c0,0,0.002-0.001,0.002-0.001v0l0-0.001l0.002-0.001
			h-0.001l0.002-0.002l0-0.001l0.002-0.001l-0.001-0.002l0.003-0.002l0-0.001c0.001,0,0.002-0.001,0.003-0.002l-0.001-0.001
			c0,0,0.001,0,0.002-0.001l0-0.001l0.002-0.001l-0.001-0.001h0.002l-0.001-0.001c0,0,0.001,0,0.002-0.001l0,0L20.26,0.96l0,0
			l0.001-0.001L20.26,0.957l0.003-0.002l-0.001-0.001c0.001,0,0.002-0.001,0.003-0.001L20.264,0.95c0.001,0,0.002,0,0.002,0
			l-0.001-0.002c0,0,0.002-0.001,0.003-0.002l0-0.001l0.002-0.001l-0.001-0.001c0,0,0.002-0.001,0.002-0.001L20.27,0.94
			c0.001,0,0.001,0,0.002-0.001l0-0.001l0,0l0,0c0,0,0.001-0.001,0.001-0.001l0-0.001l0.002-0.001l-0.001-0.001l0.001-0.001v0
			c0,0,0,0,0.001,0l0,0c0,0,0.001-0.001,0.001-0.001l-0.001-0.001c0,0,0.001-0.001,0.002-0.001l0-0.001l0.001-0.001l-0.001-0.001
			c0,0,0.002-0.001,0.002-0.001h-0.001l0.001,0l-0.001-0.002l0.003-0.002V0.916l0,0l0,0l0,0c0,0,0.001,0,0.001-0.001l-0.001-0.001
			l0.002-0.001l0,0c0,0,0.001-0.001,0.001-0.001l-0.001-0.002l0.001,0l0,0c0,0,0.001-0.001,0.001-0.001l-0.001-0.001l0.001,0v0
			c0,0,0,0,0,0l0.001,0L20.285,0.9c0,0,0.002-0.001,0.002-0.001v0l-0.001-0.002c0,0,0.001-0.001,0.002-0.001l-0.001-0.002l0.001,0
			l0,0l0.001-0.001c0,0,0,0,0-0.001v0l-0.001-0.001c0,0,0.002-0.001,0.002-0.001l0-0.001h0l0-0.001l0,0l0,0
			c0,0,0.001-0.001,0.001-0.001L20.29,0.881l0.001,0l0-0.001l0,0L20.29,0.878l0.002-0.001l0,0l0,0l0-0.001l0,0v0l0.001,0
			l-0.001-0.002l0.001-0.001l0-0.001l0,0v0l0,0l0,0l-0.001-0.001l0.002-0.001l-0.001-0.002l0.001,0l0-0.001l0,0l0-0.001l0,0
			l-0.001-0.002l0.001,0l0-0.001h0l0,0c0,0,0.001-0.001,0.001-0.001l-0.001-0.001l0.001,0l0-0.001l0,0l0-0.001l0,0l-0.001-0.002
			c0,0,0,0,0.001,0l0-0.001h0l0-0.001l0,0l0,0l0,0l0-0.001l0,0L20.293,0.84l0.001-0.001l-0.001-0.002v0V0.836l-0.001-0.002l0.001,0
			l0-0.001h0v0l0-0.001l0,0l-0.001-0.001l0.001,0l-0.001-0.002h0v0l-0.001-0.001l0.001,0v0l0,0l0,0L20.292,0.82l0,0l0,0l0,0l0,0l0,0
			l-0.001-0.002l0,0V0.813v0L20.29,0.811h0l-0.01-0.018l0.001,0c-0.001,0-0.001-0.001-0.002-0.001l-0.008-0.015l0,0l0-0.001
			l-0.01,0.005c-0.425-0.248-0.863-0.476-1.313-0.676c-0.08-0.036-0.16-0.071-0.241-0.105l-0.867,0.501l-0.252,0.146L17.286,0.82
			l-0.842,0.486l-1.642,0.947l-0.182,0.105l-1.653,0.954c0.068,0.25,0.153,0.494,0.239,0.742c-0.086-0.248-0.171-0.492-0.239-0.741
			l-1.819,1.049L8.192,6.069L6.728,5.224L6.401,5.036c0,0,0,0,0,0L6.082,4.851L5.706,4.634L5.279,4.388L5.161,4.319l-0.347-0.2
			l-0.16-0.093l-0.32-0.185L4.183,3.754c0,0.013,0.001,0.025,0.001,0.038c0-0.012-0.002-0.025-0.002-0.038L3.927,3.606L3.584,3.409
			L3.51,3.366L3.503,3.372L3.494,3.383l-0.001,0L3.482,3.395L3.479,3.4L3.473,3.406l-0.02,0.022L3.447,3.435L3.443,3.439
			L3.433,3.451L3.432,3.453L3.423,3.461L3.416,3.47L3.413,3.474L3.402,3.485L3.4,3.487L3.385,3.505L3.383,3.507
			C3.279,3.625,3.178,3.745,3.078,3.866C2.929,4.091,2.803,4.327,2.69,4.571c0.113-0.244,0.24-0.48,0.388-0.705
			C2.906,4.075,2.741,4.29,2.582,4.508L2.58,4.507L2.574,4.518C2.573,4.52,2.571,4.521,2.57,4.523l0.001,0L2.57,4.525l0,0.001
			L2.569,4.528L2.56,4.543l0,0l0,0l0,0l0,0v0L2.558,4.549h0L2.557,4.552l0,0l0,0h0L2.556,4.555l0,0l0,0.001l0,0l0,0h0L2.555,4.56v0
			h0L2.554,4.563h0l0,0.001v0.001L2.553,4.566l0,0l0,0.001l0,0l0,0.001l0,0L2.552,4.572h0l0,0.001v0.001v0l0.001,0L2.551,4.578l0,0
			l0,0.001l0,0l0,0.001h0l0,0.001h0l0,0.001l0,0l0,0.001l0,0L2.55,4.586l0.001,0L2.55,4.589l0,0l0,0.001h0l0,0.001v0l0.001,0
			L2.55,4.594l0,0l0,0.001l0,0l0,0.001l0,0l0,0.001l0.001,0L2.55,4.6v0c0,0,0,0,0.001,0L2.55,4.603l0,0l0,0.001h0l0,0.001l0,0
			l0,0.001l0,0l0,0.001l0,0l0,0h0.001L2.55,4.61l0.001,0L2.55,4.613l0,0l0,0v0l0,0L2.551,4.617C2.55,4.616,2.551,4.616,2.551,4.617z
			 M18.376,1.499c0.183,0.006,0.363,0.027,0.542,0.057l-0.001,0.001C18.738,1.526,18.558,1.505,18.376,1.499
			C18.375,1.499,18.375,1.499,18.376,1.499c-0.098-0.135-0.19-0.25-0.279-0.354C18.187,1.249,18.279,1.362,18.376,1.499z
			 M16.081,1.865c-0.415,0.125-0.836,0.265-1.266,0.421c0.133,0.343,0.287,0.693,0.434,1.057c0.433-0.149,0.858-0.285,1.277-0.406
			c0,0-0.001,0.001-0.002,0.001c-0.417,0.12-0.843,0.256-1.274,0.405c-0.147-0.364-0.301-0.713-0.435-1.057
			C15.245,2.129,15.666,1.99,16.081,1.865z M11.35,5.927C11.35,5.927,11.35,5.927,11.35,5.927l-0.02-0.145
			C11.336,5.83,11.343,5.878,11.35,5.927z M9.852,6.149C8.329,6.467,7.376,6.478,6.5,6.771l-0.001,0
			C7.375,6.477,8.329,6.467,9.852,6.149z M4.26,5.039C4.269,5.191,4.275,5.34,4.277,5.487h0c-0.004-0.325-0.031-0.663-0.057-1
			C4.232,4.67,4.249,4.855,4.26,5.039z M1.093,7.176L1.093,7.176L1.093,7.176l0,0.002h0l0,0.001L1.094,7.18l-0.001,0l0,0l0,0v0
			l0.002,0.001L1.094,7.185l0,0l0,0l0,0l0,0.001h0l0,0.001l0,0l0,0.001l0.001,0v0c0,0,0,0,0,0v0.001l0,0l0,0.001l0,0l0,0
			c0.001,0,0.001,0.001,0.001,0.001l0,0l0,0.001v0.001l0.001,0v0c0,0,0,0,0.001,0.001l-0.001,0l0,0l0,0c0.001,0,0.001,0,0.001,0.001
			v0.001v0l0.001,0L1.098,7.207L1.1,7.208L1.099,7.209L1.1,7.21l0,0.001l0,0l0,0l0,0l0,0l0.002,0.001L1.101,7.217
			c0.001,0,0.001,0,0.001,0v0.001v0c0,0,0,0,0,0l0,0L1.103,7.22l0,0l0.002,0.001L1.104,7.223c0,0,0.001,0,0.001,0.001L1.104,7.226
			l0.001,0v0l0.001,0.001l0,0l0.002,0.001L1.106,7.231l0.002,0.001L1.107,7.233l0,0l0,0L1.11,7.236l0,0.001
			c0,0,0.001,0.001,0.002,0.001L1.11,7.239L1.112,7.24l0,0v0.001v0l0.002,0.001L1.112,7.245l0.002,0.001l0,0.001l0.002,0.001
			L1.115,7.25L1.117,7.25l0,0l0.002,0.001L1.117,7.253L1.12,7.255L1.119,7.257v0l0.882,0.577l6.177,4.042l0.008,0.005l14.616-8.961
			l-0.001-0.001l0.003-0.002l-0.001-0.001l0.002-0.001l0,0l0.001-0.001V2.913l0.002-0.001l0-0.001c0.001,0,0.002-0.001,0.003-0.002
			l-0.001-0.001l0.002-0.001l-0.001-0.001c0,0,0.002-0.001,0.003-0.002l-0.001-0.001c0.001-0.001,0.002-0.002,0.003-0.002l0-0.001
			l0.001-0.001l-0.001-0.001c0,0,0.001,0,0.002-0.001l-0.001-0.001c0.001,0,0.002-0.001,0.003-0.002l0,0l0,0l0,0l0,0
			c0,0,0.001-0.001,0.002-0.001l-0.001-0.001c0,0,0.001,0,0.001,0l-0.001-0.002c0.001,0,0.002-0.001,0.003-0.002l0-0.001l0,0
			l0-0.001c0,0,0.002-0.001,0.002-0.001l0,0c0,0,0.001-0.001,0.001-0.001l-0.001-0.001l0.001,0l0,0l0.001-0.001l-0.001-0.001
			c0.001,0,0.001-0.001,0.002-0.002l0,0l0.001-0.001v0l0-0.001l0.001-0.001L22.83,2.865c0,0,0.001,0,0.002-0.001l0-0.001l0,0
			l-0.001-0.001l0.002-0.001l-0.001-0.001c0-0.001,0.001-0.001,0.002-0.001l-0.001-0.001l0.001,0l-0.001-0.001
			c0,0,0.001,0,0.002-0.001l0-0.001l0.001-0.001l-0.001-0.001l0.001,0v0l0-0.001l0.001-0.001l0-0.001l0,0V2.844l0,0
			c0,0,0.001-0.001,0.001-0.001l-0.001-0.001c0-0.001,0.001-0.001,0.001-0.001l-0.001-0.001l0.002-0.001l0-0.001l0,0l0,0
			c0,0,0,0,0,0l0,0l0.001-0.001l0-0.001l0,0l0,0c0,0,0,0,0,0v0l-0.001-0.001c0,0,0.001,0,0.001,0v0l-0.001-0.001
			c0,0,0.001-0.001,0.002-0.001L22.84,2.824l0.001,0L22.84,2.822l0.001,0L22.84,2.82l0.002-0.001l-0.001-0.001l0.001,0l0-0.001l0,0
			l-0.001-0.002l0.001,0l0-0.001l0,0l-0.001-0.001l0.002-0.001l0,0l0,0l-0.001-0.002l0.001,0v0l0-0.001l0,0l0-0.001h0l0-0.001l0,0
			L22.842,2.8l0.001,0l-0.001-0.001l0.001,0v0l-0.001-0.001l0.001,0l0-0.001l0,0l0-0.001l0,0L22.842,2.79l0.001,0l-0.001-0.002
			l0.001,0l0,0l0,0v0l0-0.001h0l0-0.001l0,0l-0.001-0.002l0.001,0l-0.002-0.003c0,0,0.001,0,0.001,0l0-0.001l0,0l0-0.001l0,0l0,0
			l0,0v0l0-0.001h0l0-0.001h0L22.84,2.768l0.001,0l0-0.001l0,0L22.84,2.765h0.001l-0.001-0.002l0,0L22.839,2.76l0.001,0
			l-0.001-0.001l0.001,0l0-0.001l0,0l-0.001-0.002h0l0-0.001l0,0l-0.002-0.003c0,0,0.001,0,0.001,0v0V2.747l-0.001-0.002h0
			l-0.011-0.02l0.001,0l-0.004-0.003L22.817,2.71l-0.001-0.001l-0.003,0.002l-0.056-0.053L22.739,2.64l-0.012-0.011l-0.006-0.005
			c-0.345-0.324-0.704-0.63-1.079-0.917l-0.288,0.167l-0.365,0.211l-0.215,0.124c0,0,0,0,0,0l-0.45,0.258l-0.498,0.288L19.26,3.083
			c0.002,0.006,0.005,0.012,0.007,0.018c-0.002-0.005-0.005-0.012-0.007-0.018l-1.532,0.884c0.229-0.044,0.453-0.072,0.677-0.101
			c-0.224,0.029-0.447,0.057-0.677,0.101l-0.052,0.03l-0.707,0.408l-1.157,0.668l-2.054,1.186l-1.074,0.62l-1.105,0.638
			c0.077,0.499,0.16,1.013,0.249,1.535l-0.001,0c-0.088-0.522-0.171-1.036-0.248-1.535L8.192,9.473L7.893,9.3L5.967,8.187
			c0,0,0,0,0,0.001L5.633,7.994c0,0-0.001,0-0.001,0L4.979,7.617c0,0,0,0,0,0.001L4.901,7.572c0,0,0,0-0.001,0l-0.206-0.12v0.001
			L4.355,7.257L3.977,7.039L3.545,6.79L3.504,6.766L3.061,6.51L3.024,6.489L2.548,6.213L2.169,5.995L1.906,5.843L1.771,5.766
			C1.689,5.911,1.609,6.059,1.532,6.207C1.389,6.483,1.253,6.765,1.128,7.051L1.12,7.069l0,0L1.1,7.103L1.098,7.107l0.001,0
			L1.098,7.109h0L1.097,7.112l0.001,0L1.096,7.115v0h0l0,0.001l0,0l0,0.001L1.095,7.12l0,0l0,0.001h0L1.094,7.124l0,0l0,0v0.001l0,0
			l0,0.001v0.001L1.093,7.131v0l0,0l0,0l0,0l0,0v0h0L1.092,7.137c0,0,0,0,0,0l0,0v0c0,0,0,0,0.001,0L1.092,7.14l0,0l0,0.001
			c0,0,0,0,0,0l0,0v0h0l0,0.001l0,0l0,0.001l0,0l0,0.001l0.001,0L1.092,7.149l0,0l0,0.001l0,0l0,0.001l0,0l0,0.001c0,0,0,0,0.001,0
			L1.092,7.155v0l0.001,0L1.092,7.158v0l0.001,0L1.092,7.16l0.001,0L1.092,7.163v0l0,0l0,0v0l0.001,0L1.092,7.167v0l0.001,0
			L1.092,7.169v0l0.001,0L1.092,7.171l0,0l0,0.001l0,0l0,0.001h0l0,0.001L1.093,7.176z M19.544,3.792
			C19.544,3.792,19.544,3.792,19.544,3.792c-0.243-0.005-0.493,0.011-0.746,0.032C19.051,3.802,19.301,3.787,19.544,3.792z
			 M2.028,6.457c-0.042,0.142-0.085,0.282-0.13,0.424c0,0,0,0,0.001,0C1.85,7.03,1.803,7.176,1.75,7.322
			C1.851,7.037,1.94,6.748,2.028,6.457z M0.218,9.998L0.218,9.998L0.218,9.998v0.001l0,0l0,0l0,0l0,0v0l-0.001,0.001l0.001,0
			l-0.001,0.001v0h0l0,0.001l0,0l0,0.001l0.001,0l-0.002,0.003l0,0l0,0.001l0,0l0,0v0l0.001,0l-0.001,0.001v0l0,0l0,0l0,0l0,0.001
			l0.001,0l-0.001,0.002l0.001,0l-0.002,0.003c0,0,0,0,0,0l0,0.001l0.001,0l-0.001,0.002l0,0l0,0.001l0,0l0,0.001l0.001,0
			l-0.001,0.001l0,0l0,0.001c0,0,0,0,0,0l0,0l0,0l0,0.001l0.001,0L0.215,10.04v0h0l0,0.001l0,0l0,0.001c0,0,0,0,0,0l0,0l0.001,0v0
			l0,0l0,0.001l0,0l0,0.001l0,0l0,0.001h0l0,0.001l0,0l0,0.001c0,0,0,0,0.001,0l-0.001,0.001v0l0.001,0l-0.001,0.001l0,0l0,0.001
			l0.001,0.001l0,0l0,0l0,0.001l0.001,0l-0.001,0.001l0,0l0,0.001l0.001,0l-0.001,0.002l0,0l0,0.001l0.001,0.001l0,0
			c0,0,0.001,0,0.001,0l-0.001,0.002l0.001,0l-0.001,0.001v0l0.001,0l-0.001,0.001l0.001,0.001l0,0.001l0,0l0,0l0,0l0,0l0.001,0
			l-0.001,0.002c0,0,0.001,0,0.001,0.001l0,0l0,0l0,0v0h0l0,0.001l0.001,0.001v0l0.001,0L0.221,10.09l0,0l0,0.001l0.002,0.001
			l-0.001,0.001c0,0,0,0,0.001,0l-0.001,0.001l0.001,0v0.001l0,0l0,0.001c0,0,0,0,0.001,0l-0.001,0.002c0,0,0.001,0.001,0.002,0.001
			l-0.001,0l0,0l0,0l0.001,0.001l0,0l0.001,0l-0.001,0.002l0,0l0,0.001l0.001,0v0c0,0,0.001,0,0.001,0.001l0,0l0.001,0.001
			l-0.001,0.002c0,0,0,0,0.001,0v0.001l0,0l0,0c0,0,0.001,0,0.001,0.001l0,0L0.23,10.12l-0.001,0.002c0,0,0.001,0,0.001,0.001l0,0
			l0.001,0v0l0,0l0,0.001l0.002,0.001l-0.001,0.001c0,0,0.001,0,0.001,0.001l0,0.001l0.002,0.001l-0.001,0.001
			c0,0,0.002,0.001,0.002,0.001l-0.001,0.002l0.001,0.001l0,0l0.002,0.001l-0.001,0.002l0.001,0.001l0,0l0.001,0.001l0,0
			l0.001,0.001l0,0l0.001,0.001l0,0.001h0.001L0.24,10.15l0.002,0.001l0,0l0,0.001l7.937,5.126l0.008,0.005L24.699,5.228l0-0.001
			l0.002-0.001L24.7,5.224l0.003-0.002l0,0l0.001-0.001l0-0.001l0.002-0.001l0-0.001c0.001,0,0.002-0.001,0.003-0.002l0-0.001h0l0,0
			c0,0,0.001-0.001,0.001-0.001V5.212l0.001-0.001l0.002-0.001l-0.001-0.001c0.001-0.001,0.002-0.002,0.003-0.002V5.205l0.002-0.001
			l0,0l0,0l0,0L24.719,5.2l-0.001-0.001l0.002-0.001V5.196l0.001,0L24.72,5.194l0.003-0.002c0,0,0,0,0-0.001l0,0
			c0,0,0.002-0.001,0.002-0.001l-0.001-0.001c0,0,0.001,0,0.001,0l0,0c0,0,0.001-0.001,0.001-0.001l0,0l0.001-0.001l-0.001-0.001
			c0,0,0.001,0,0.002-0.001l0,0l0,0l0,0c0,0,0.001,0,0.002-0.001l-0.001-0.001l0.001,0l0-0.001c0,0,0.001,0,0.001-0.001
			l-0.001-0.001l0.002-0.001l0,0c0,0,0.001-0.001,0.001-0.001l0-0.001l0.001-0.001l-0.001-0.002l0.002-0.001l-0.001-0.001
			c0,0,0.001,0,0.001,0v0c0-0.001,0.001-0.001,0.001-0.001v0l0-0.001c0,0,0.001-0.001,0.001-0.001V5.159l0,0l0.001-0.001
			l-0.001-0.001c0,0,0.001,0,0.002-0.001l-0.001-0.002l0.001,0l-0.001-0.001c0,0,0.001,0,0.002-0.001l0-0.001l0,0l0.001-0.001
			l0-0.001h0V5.146l0,0c0,0,0,0,0,0l0-0.001c0,0,0.001-0.001,0.001-0.001l0-0.001l0.001-0.001l0-0.001l0,0l0-0.001l0,0l0-0.001
			h0.001l0,0l0,0l0-0.001l0,0l0-0.001l0,0l0,0c0,0,0,0,0,0l0-0.001l0,0v0l0.001,0l0-0.001l0,0l-0.001-0.002l0.001,0l-0.001-0.001
			c0,0,0.001,0,0.002-0.001v0l-0.001-0.002l0.001,0l0-0.001l0.001-0.001v0l0-0.001h0l-0.001-0.002c0,0,0.001-0.001,0.001-0.001
			l-0.001-0.001c0,0,0.001,0,0.001,0l0-0.001l0,0l-0.001-0.002l0.001,0l-0.001-0.002l0.001,0l0-0.001l0,0l0,0
			c0,0,0.001-0.001,0.001-0.001l-0.001-0.001l0.001,0l-0.001-0.002l0.001,0l0-0.001l0,0l0-0.001l0,0l0-0.001l0,0l-0.001-0.002
			l0.001,0l0-0.001h0l-0.001-0.002l0.001,0l0-0.001l0,0l0-0.001h0v0l0,0l0,0l0-0.001l0,0l0-0.001h0l0-0.001h0l-0.001-0.002h0v0
			l0-0.001l0,0l0,0l0,0l0-0.001l0,0l-0.001-0.001c0,0,0.001,0,0.001,0v0l0,0c0,0,0,0,0,0l-0.001-0.001l0.001,0l0-0.001l0,0
			l-0.001-0.002l0-0.001l0,0l0-0.001l0,0l-0.001-0.002v0l0-0.001h0l-0.001-0.002l0.001,0l-0.001-0.002l0,0l-0.001-0.001l0.001,0l0,0
			h0l-0.001-0.002v0l0,0l0,0l0-0.001l0,0l-0.011-0.018l0.005-0.003l-0.005-0.008l-0.002-0.003l-0.007-0.009l-0.001-0.002
			l-0.008-0.012L24.707,4.98h-0.001l-0.007-0.011l-0.001-0.001l-0.007-0.011L24.69,4.955l-0.007-0.009l-0.002-0.003l-0.006-0.008
			L24.674,4.93l-0.009-0.012L24.66,4.91l-0.004-0.004l-0.004-0.007l-0.008-0.011L24.64,4.881l-0.003-0.005l-0.005-0.007
			l-0.003-0.004l-0.006-0.009l-0.002-0.002l-0.006-0.01l-0.002-0.001l-0.007-0.011h-0.001l-0.008-0.012L24.59,4.808V4.806
			l-0.008-0.009l-0.001-0.002l-0.007-0.01l-0.002-0.002l-0.008-0.012l-0.006-0.008l-0.003-0.004L24.551,4.75l-0.004-0.005
			c-0.104-0.15-0.211-0.298-0.321-0.445c-0.069-0.091-0.141-0.183-0.212-0.271h-0.001l-0.004-0.005l-0.003-0.006l-0.002-0.001
			L23.998,4.01l-0.013-0.015l-0.034-0.042L23.949,3.95v0l-0.006-0.007L23.94,3.94l-0.002-0.003l-0.004-0.004L23.933,3.93
			l-0.004-0.005l-0.003-0.002l-0.072-0.089l-0.101,0.059l-0.465,0.267c0.178,0.092,0.35,0.178,0.521,0.263
			c-0.171-0.084-0.343-0.17-0.521-0.262l-0.695,0.401l-0.092,0.053l-0.97,0.56c0.117,0.33,0.229,0.648,0.33,0.96
			c-0.102-0.312-0.213-0.63-0.331-0.96L20.915,5.53L20.25,5.914l-0.262,0.151h-0.001l-0.562,0.324l-0.893,0.516l-1.927,1.112v0
			l-0.339,0.197l-1.754,1.011c0.088,0.341,0.174,0.685,0.255,1.036c-0.082-0.351-0.167-0.695-0.255-1.035l-1.149,0.664l-1.262,0.729
			c0.01,0.058,0.021,0.115,0.032,0.173c-0.011-0.058-0.022-0.115-0.033-0.173l-3.909,2.257L7.459,12.45L5.38,11.25l-1.003-0.579
			l-0.434-0.25l-0.41-0.237L3.118,9.946L2.689,9.698L2.309,9.479L2.242,9.441L1.781,9.173l-0.17-0.097L1.333,8.915L1.267,9.218
			l0.065-0.303l-0.415-0.24L0.595,8.489L0.58,8.536v0L0.575,8.552L0.57,8.568L0.565,8.583L0.563,8.594L0.561,8.599L0.545,8.651
			L0.542,8.663L0.537,8.678V8.68C0.493,8.833,0.451,8.985,0.412,9.14v0.001l-0.008,0.03v0L0.4,9.188L0.397,9.2L0.396,9.204
			L0.391,9.229L0.389,9.237L0.385,9.253L0.383,9.258l-0.002,0.01L0.377,9.285L0.376,9.287L0.373,9.301
			C0.356,9.37,0.34,9.441,0.324,9.51C0.307,9.592,0.289,9.673,0.271,9.754C0.42,9.651,0.578,9.556,0.746,9.469
			C0.578,9.557,0.42,9.651,0.272,9.754C0.257,9.83,0.242,9.904,0.228,9.979l0,0l0,0L0.227,9.982H0.214v0.011L0.218,9.998
			L0.218,9.998z M19.762,7.875l-0.021,0l0.001,0.011l0,0l-0.002-0.011L19.762,7.875z M18.832,8.413
			C18.831,8.413,18.831,8.413,18.832,8.413c-0.025-0.164-0.053-0.328-0.083-0.491C18.779,8.084,18.806,8.248,18.832,8.413z
			 M5.224,12.843c0.004-0.11,0.018-0.245,0.026-0.367C5.242,12.598,5.229,12.732,5.224,12.843
			C5.224,12.843,5.224,12.843,5.224,12.843z M26.955,12.115c-0.005-0.165-0.013-0.331-0.023-0.496
			c-0.01-0.154-0.022-0.309-0.037-0.462l-0.001-0.012l-0.001-0.007l-0.002-0.019v-0.001l-0.002-0.018l-0.006-0.061l-0.002-0.014
			l-0.001-0.014l-0.001-0.005l-0.002-0.019l-0.001-0.001l-0.002-0.016l-0.001-0.01v-0.009l-0.003-0.018v-0.001l-0.002-0.019
			l-0.001-0.007l-0.001-0.011l-0.002-0.016v-0.003l-0.003-0.019v-0.004l-0.004-0.026v-0.006l-0.003-0.018v-0.002l-0.002-0.017
			l-0.001-0.01l-0.002-0.009l-0.002-0.018v0l-0.002-0.019l-0.001-0.007l-0.002-0.011l-0.002-0.014l-0.001-0.004l-0.002-0.02v-0.004
			l-0.002-0.014l-0.002-0.012l-0.001-0.006l-0.003-0.019v-0.001L26.827,10.6l-0.001-0.01l-0.001-0.009l-0.003-0.018v-0.001
			l-0.003-0.019l-0.001-0.006l-0.001-0.012l-0.002-0.014l-0.001-0.005l-0.003-0.019v-0.003l-0.003-0.015l-0.002-0.011l-0.001-0.008
			l-0.003-0.019l-0.006-0.04l-0.003-0.021l-0.001-0.007l-0.002-0.012l-0.004-0.021l-0.003-0.02l-0.002-0.014l-0.001-0.006
			l-0.004-0.02l-0.006-0.04l-0.001,0l-0.003-0.02l-0.004-0.021l-0.003-0.019l-0.002-0.008l-0.002-0.012l-0.003-0.021l-0.004-0.02
			l-0.002-0.015l-0.001-0.005l-0.008-0.04l-0.011-0.06l-0.004-0.019L26.721,9.95l-0.008-0.04L26.71,9.895L26.709,9.89l-0.004-0.02
			l-0.004-0.019c-0.046-0.233-0.098-0.464-0.156-0.693c-0.1-0.401-0.219-0.797-0.354-1.186l-0.006-0.019l-0.007-0.019l-0.004-0.01
			l-0.003-0.01c-0.143-0.021-0.3-0.035-0.47-0.047c-0.171-0.013-0.354-0.02-0.548-0.024c0.39,0.009,0.731,0.031,1.018,0.071
			l-0.014-0.038l-0.006-0.016l-0.008-0.022L26.13,7.8l-0.001-0.003l-0.014-0.035c-0.184-0.499-0.396-0.987-0.639-1.461L24.716,6.74
			l-1.021,0.589l-0.614,0.354l0.046,0.169c-0.015-0.057-0.03-0.113-0.046-0.168l-0.3,0.173l-0.384,0.221l-0.753,0.435
			c0.055,0.372,0.095,0.748,0.121,1.137c-0.295,0.013-0.594,0.02-0.894,0.02c0.025,0.621,0.017,1.272-0.02,1.989
			c-0.024,0.487,0.021,0.986,0.089,1.501c-0.068-0.515-0.113-1.013-0.089-1.501c0.036-0.717,0.045-1.367,0.019-1.989
			c0.301,0,0.6-0.007,0.895-0.02c-0.026-0.389-0.066-0.765-0.121-1.136l-0.816,0.47l-0.91,0.526l-0.275,0.158
			c0.095-0.001,0.189-0.001,0.283-0.002l-0.283,0.003L19,10.04l-1.848,1.066l-1.328,0.767l-0.668,0.385l-1.148,0.663l-1.31,0.756
			l-4.506,2.6L7.485,15.87l-2.231-1.288L5.146,14.52c-0.001,0-0.001,0-0.002-0.001l-0.62-0.358c0.015,0.382,0.022,0.791,0.052,1.25
			c-0.03-0.459-0.037-0.867-0.052-1.25l-0.583-0.337l-0.593-0.342l-0.447-0.257h0l-0.159-0.092l-0.468-0.27l-0.428-0.247
			l-0.434-0.251l-0.456-0.262l-0.471-0.272L0.03,11.566c-0.016,0.232-0.025,0.467-0.029,0.703v0.053L0,12.363v0.083
			c0,0.083,0.001,0.166,0.002,0.249l0.001,0.029v0.013l0.001,0.041c0.018,0.719,0.092,1.436,0.221,2.143v0.003
			c0.146,0.79,0.356,1.552,0.627,2.28s0.6,1.424,0.983,2.081l0.001,0.001c0.243,0.418,0.507,0.821,0.791,1.208
			C2.91,20.879,3.214,21.25,3.535,21.6c0.322,0.354,0.662,0.689,1.02,1.006h0c0.354,0.313,0.725,0.609,1.109,0.885V23.49
			l0.086,0.062l0.012,0.008l0.013,0.009l0.012,0.009l0.013,0.009l0.012,0.009h0.001l0.012,0.008l0.013,0.01l0.012,0.008l0.013,0.008
			l0.013,0.01l0.012,0.008l0.013,0.008l0.025,0.018l0.012,0.008l0.013,0.008l0.012,0.01H5.96l0.012,0.008l0.013,0.008l0.013,0.01
			l0.012,0.008H6.01l0.012,0.008l0.013,0.009l0.013,0.008l0.013,0.009l0.025,0.016l0.012,0.008l0.025,0.018l0.037,0.025H6.16
			l0.012,0.008L6.21,23.86l0.025,0.018l0.127,0.078l0.013,0.01l0.102,0.063l0.014,0.008l0.012,0.008
			c0.261,0.157,0.526,0.307,0.797,0.447l0.094,0.049l0.014,0.007h0.001l0.013,0.007l0.014,0.006l0.013,0.008l0.014,0.006h0.001
			c0.179,0.09,0.359,0.176,0.541,0.258h0.001l0.109,0.048h0.001l0.013,0.007L8.14,24.89l0.014,0.007l0.014,0.006
			c-0.39-0.463-0.777-0.891-1.153-1.311c0.188,0.211,0.379,0.422,0.57,0.639c0.193,0.219,0.388,0.441,0.583,0.672h0.001l0.013,0.006
			l0.014,0.006c0.23,0.098,0.463,0.191,0.698,0.275l0.014,0.007l0.015,0.004l0.014,0.006l0.015,0.005l0.014,0.006l0.015,0.004
			l0.014,0.006l0.015,0.004l0.014,0.006l0.043,0.014l0.038,0.014l0.011,0.004l0.008,0.003l0.018,0.007h0.002l0.019,0.007
			l0.004,0.001l0.016,0.005c0.368,0.126,0.747,0.235,1.131,0.329c0.087,0.021,0.174,0.043,0.262,0.063l0.014,0.002l0.003,0.002
			h0.004l0.151,0.032l0.007,0.001l0.015,0.004l0.02,0.004l0.017,0.004l0.016,0.002l0.021,0.005c0.681,0.136,1.381,0.219,2.093,0.249
			c0.057,0.002,0.114,0.004,0.171,0.006h0.752c0.434-0.013,0.869-0.047,1.308-0.103l0.021-0.001
			c-0.049-0.121-0.103-0.269-0.159-0.434c-0.056-0.166-0.116-0.353-0.178-0.549h0c0.061,0.197,0.122,0.383,0.177,0.549c0,0,0,0,0,0
			c0.056,0.165,0.11,0.312,0.159,0.433v0.001c0.47-0.061,0.937-0.146,1.397-0.256h0.001l0.086-0.021l0.129-0.032l0.043-0.01h0.001
			l0.042-0.012l0.043-0.012h0.001l0.042-0.012l0.043-0.011h0.001l0.042-0.013l0.043-0.012l0.042-0.012l0.043-0.013h0.001
			l0.042-0.013c0.242-0.068,0.482-0.146,0.72-0.23c0.896-0.313,1.756-0.722,2.565-1.217c0.281-0.173,0.556-0.355,0.822-0.547
			l0.018-0.014l0.018-0.012l0.017-0.013l0.035-0.025l0.017-0.013l0.018-0.012l0.018-0.014c0.058-0.043,0.114-0.086,0.171-0.129
			c0.249-0.189,0.49-0.389,0.725-0.595v-0.001l0.016-0.013l0.032-0.028l0.016-0.014v-0.002l0.031-0.027l0.017-0.016l0.031-0.027
			l0.016-0.016c0.053-0.046,0.104-0.095,0.156-0.143c0.33-0.312,0.646-0.639,0.942-0.979c0.239-0.396,0.447-0.823,0.633-1.273
			c0.357-0.324,0.686-0.656,0.969-0.996l0.044-0.08l0.021-0.039l0.011-0.019c0.149-0.274,0.289-0.554,0.421-0.838l0.01-0.021
			l0.009-0.02l0.019-0.041l0.01-0.021l0.009-0.021l0.009-0.02l0.01-0.021l0.009-0.021l0.009-0.021l0.009-0.02h0.001l0.009-0.021
			l0.018-0.041l0.009-0.02l0.009-0.021l0.026-0.062l0.035-0.083c0.068-0.164,0.134-0.332,0.196-0.5
			c0.021-0.057,0.041-0.111,0.061-0.168l0.022-0.063l0.008-0.021V16.91l0.007-0.021l0.007-0.021l0.008-0.021l0.015-0.042
			l0.007-0.023c0.033-0.099,0.065-0.197,0.097-0.299c-0.377,0.214-0.789,0.465-1.229,0.738c0.219-0.137,0.432-0.268,0.638-0.392
			c0.204-0.124,0.403-0.239,0.591-0.347l0.036-0.118l0.004-0.011l0.025-0.086l0.003-0.012l0.016-0.055l0.003-0.01l0.021-0.076
			l0.006-0.021c0.028-0.101,0.055-0.204,0.08-0.306c0.06-0.234,0.113-0.47,0.158-0.706c0.061-0.303,0.11-0.609,0.148-0.918
			l0.002-0.02l0.001-0.004l0.002-0.014l0.002-0.016V14.11l0.006-0.054l0.001-0.002l0.001-0.016l0.002-0.013l0.001-0.005l0.002-0.019
			v-0.006l0.002-0.012l0.002-0.017v-0.001l0.002-0.017c0.041-0.381,0.066-0.767,0.075-1.157c0.002-0.106,0.004-0.215,0.004-0.323
			c0-0.111-0.001-0.222-0.004-0.333V12.115z M20.24,15.098c0.114-0.051,0.231-0.08,0.347-0.124
			c-0.286,0.109-0.569,0.236-0.851,0.382C19.904,15.269,20.071,15.174,20.24,15.098z M19.108,20.814
			c-0.052,0.027-0.107,0.06-0.159,0.087c-0.23,0.121-0.458,0.235-0.685,0.348C18.543,21.11,18.824,20.965,19.108,20.814z
			 M19.365,17.6c0.027-0.661,0.006-1.348-0.041-2.033c-0.042-0.686-0.107-1.371-0.167-2.036c0.06,0.665,0.123,1.35,0.169,2.036
			c0,0,0,0-0.001,0C19.371,16.252,19.393,16.939,19.365,17.6c-0.025,0.662-0.102,1.301-0.257,1.893
			c0.026-0.016,0.053-0.03,0.08-0.047c-0.32,0.192-0.639,0.382-0.956,0.566c0.291-0.17,0.583-0.344,0.875-0.52
			C19.264,18.9,19.34,18.262,19.365,17.6c-0.645,0.425-1.295,0.883-1.936,1.307C18.07,18.481,18.721,18.025,19.365,17.6z
			 M17.263,21.714c0.296-0.126,0.596-0.265,0.898-0.414C17.858,21.449,17.559,21.589,17.263,21.714
			c-0.55,0.233-1.089,0.421-1.614,0.546c-0.524,0.123-1.037,0.182-1.534,0.154C15.107,22.469,16.161,22.18,17.263,21.714z
			 M12.86,23.089c0.077,0.206,0.158,0.419,0.24,0.632c0.459-0.035,0.916-0.073,1.366-0.087c-0.451,0.014-0.907,0.052-1.366,0.089
			C13.019,23.508,12.938,23.295,12.86,23.089z M13.855,21.586L13.855,21.586c0.031,0.087,0.069,0.202,0.112,0.344
			C13.925,21.79,13.886,21.672,13.855,21.586z M14.584,18.326L14.584,18.326c-0.347,0.133-0.704,0.242-1.072,0.322
			C13.881,18.567,14.238,18.459,14.584,18.326z M13.736,20.502c-0.7,0.08-1.39,0.068-2.068-0.018
			c-0.677-0.086-1.34-0.244-1.985-0.463c0.646,0.217,1.309,0.377,1.985,0.463C12.347,20.569,13.036,20.583,13.736,20.502z
			 M9.316,24.39c-0.163-0.204-0.321-0.409-0.477-0.616c0,0,0.001,0,0.001,0C8.996,23.982,9.154,24.186,9.316,24.39z M12.011,24.392
			c-0.898-0.017-1.794-0.118-2.631-0.409C10.217,24.274,11.112,24.375,12.011,24.392z M10.95,22.108
			c-0.073-0.177-0.142-0.346-0.203-0.504c-0.058-0.002-0.116-0.01-0.173-0.014c0.122,0.007,0.243,0.009,0.364,0.012
			c-0.064-0.002-0.127,0.003-0.191,0.001C10.809,21.762,10.877,21.93,10.95,22.108z M11.182,22.652L11.182,22.652
			c0.083,0.188,0.168,0.378,0.258,0.572C11.35,23.032,11.264,22.839,11.182,22.652z M2.433,16.209
			c-0.186-0.881-0.278-1.635-0.46-2.363C2.154,14.574,2.247,15.329,2.433,16.209z M1.757,16.851c0.126,0.411,0.27,0.826,0.437,1.243
			C2.026,17.677,1.883,17.262,1.757,16.851z M2.769,19.352c-0.213-0.407-0.396-0.814-0.558-1.22
			C2.374,18.538,2.556,18.945,2.769,19.352C2.769,19.352,2.769,19.352,2.769,19.352z M4.543,20.18
			c-0.132-0.273-0.257-0.559-0.371-0.861c-0.679-1.648-0.923-2.813-1.048-3.74c0.13-0.088,0.272-0.161,0.43-0.217
			c0.157-0.057,0.331-0.092,0.526-0.103c-0.391,0.022-0.696,0.146-0.956,0.319c0.125,0.926,0.369,2.092,1.048,3.738
			C4.286,19.622,4.411,19.907,4.543,20.18L4.543,20.18c0.133,0.271,0.272,0.527,0.42,0.775C4.815,20.709,4.676,20.452,4.543,20.18z
			 M4.945,17.724c0.131,0.537,0.292,1.111,0.533,1.774C5.237,18.834,5.076,18.26,4.945,17.724z M5.2,17.457
			c0.234,0.197,0.509,0.447,0.865,0.695c-0.2-0.673-0.341-1.286-0.463-1.868c0.122,0.582,0.265,1.195,0.463,1.868h0
			c0.1,0.337,0.214,0.688,0.347,1.057c-0.133-0.368-0.247-0.72-0.347-1.057C5.709,17.905,5.434,17.655,5.2,17.457z M5.943,21.045
			c0,0,0.001,0,0.001,0.001c0.142,0.262,0.29,0.51,0.445,0.751C6.234,21.555,6.086,21.306,5.943,21.045z M6.9,23.069
			c0,0,0.001,0,0.002,0c0.181,0.216,0.365,0.432,0.553,0.647C7.267,23.497,7.082,23.284,6.9,23.069z M6.43,21.263
			c0.288,0.108,0.632,0.237,1.127,0.563C7.062,21.502,6.718,21.373,6.43,21.263z M7.547,20.786
			c-0.054-0.029-0.109-0.069-0.164-0.101c0.1,0.056,0.199,0.111,0.298,0.162C7.636,20.824,7.592,20.81,7.547,20.786z M6.742,15.84
			c0.287,0.206,0.599,0.406,0.97,0.572l0,0.001h0c0.313,0.707,0.655,1.343,0.995,1.937c0.388,0.182,0.805,0.33,1.247,0.441
			c-0.442-0.11-0.859-0.26-1.247-0.441c-0.34-0.594-0.683-1.23-0.995-1.937C7.341,16.248,7.029,16.047,6.742,15.84z M8.481,24.532
			c-0.19-0.233-0.376-0.461-0.561-0.685c0,0,0.001,0,0.001,0.001C8.106,24.072,8.292,24.299,8.481,24.532
			c0.406,0.146,0.883,0.346,1.326,0.473C9.364,24.878,8.888,24.678,8.481,24.532z M12.314,24.959
			c-0.862-0.049-1.716-0.172-2.489-0.389C10.599,24.788,11.452,24.91,12.314,24.959z M10.283,25.149
			c0.729,0.166,1.527,0.287,2.338,0.346C11.811,25.436,11.012,25.316,10.283,25.149z M13.512,24.978
			c0.396-0.009,0.786-0.03,1.164-0.062C14.298,24.948,13.908,24.969,13.512,24.978z M14.655,24.286
			c0.482-0.027,0.974-0.113,1.472-0.24C15.629,24.173,15.138,24.258,14.655,24.286z M15.955,23.432
			c0.505-0.121,1.018-0.293,1.533-0.5C16.973,23.14,16.46,23.311,15.955,23.432z M17.766,24.135
			c0.489-0.197,0.973-0.422,1.443-0.665c0.473-0.241,0.932-0.501,1.373-0.763C19.701,23.235,18.743,23.739,17.766,24.135z
			 M21.175,14.763c0.035,0.269,0.065,0.543,0.085,0.823C21.24,15.306,21.21,15.032,21.175,14.763
			C21.175,14.763,21.175,14.763,21.175,14.763z M21.263,15.611c0.02,0.288,0.029,0.583,0.022,0.884
			C21.292,16.194,21.283,15.899,21.263,15.611z M24.538,7.836c0.165,0.498,0.307,1,0.414,1.508
			C24.845,8.835,24.702,8.335,24.538,7.836L24.538,7.836z M23.631,12.651c0.286-0.078,0.563-0.161,0.829-0.242
			c-0.012-0.435-0.031-0.868-0.051-1.31c0.02,0.442,0.039,0.875,0.053,1.309c0,0-0.001,0-0.002,0
			C24.193,12.49,23.915,12.574,23.631,12.651L23.631,12.651z M23.578,11.307c0.004-0.625-0.036-1.214-0.114-1.786
			C23.542,10.092,23.582,10.682,23.578,11.307z M23.632,15.418c-0.052,0.498-0.144,1.025-0.294,1.594
			C23.488,16.442,23.58,15.917,23.632,15.418z M21.805,17.933C21.805,17.932,21.805,17.932,21.805,17.933
			c0.183-0.649,0.269-1.247,0.294-1.81C22.073,16.684,21.988,17.284,21.805,17.933c-0.072,0.271-0.136,0.536-0.19,0.795
			C21.669,18.469,21.73,18.204,21.805,17.933z M21.846,21.917c0.03-0.229,0.06-0.458,0.088-0.69c0-0.001,0-0.001,0.001-0.001
			C21.905,21.458,21.877,21.688,21.846,21.917z M22.124,19.784c-0.248,0.152-0.496,0.303-0.745,0.451c0,0,0,0,0-0.001
			C21.628,20.086,21.876,19.938,22.124,19.784c0.247-0.153,0.494-0.307,0.739-0.46C22.618,19.477,22.371,19.631,22.124,19.784z
			 M24.447,17.649c-0.232,0.146-0.47,0.299-0.711,0.451S23.249,18.41,23,18.565c0.249-0.155,0.495-0.313,0.735-0.465
			c0.053-0.256,0.104-0.512,0.158-0.767c0-0.001,0-0.001,0.001-0.001c-0.055,0.256-0.106,0.514-0.158,0.768L24.447,17.649
			L24.447,17.649z M25.037,14.776c-0.223,0.1-0.45,0.205-0.685,0.313l0.686-0.314C25.037,14.775,25.037,14.776,25.037,14.776z
			 M25.834,10.688c-0.204,0.06-0.426,0.126-0.665,0.196C25.408,10.814,25.63,10.748,25.834,10.688
			c0.048,0.41,0.071,0.827,0.071,1.248C25.905,11.515,25.882,11.098,25.834,10.688z M34.064,22.67h102.915v-1.387H34.064V22.67z
			 M113.599,17.213c-0.056-0.014-0.113-0.04-0.261-0.082c-0.149-0.04-0.264-0.103-0.346-0.183c-0.08-0.08-0.13-0.194-0.15-0.344
			c-0.021-0.15-0.03-0.345-0.03-0.589v-5.367h5.436v5.367c0,0.243-0.011,0.439-0.029,0.589c-0.021,0.149-0.072,0.264-0.153,0.344
			c-0.082,0.08-0.195,0.143-0.343,0.183c-0.147,0.041-0.206,0.068-0.261,0.082v0.453h4.585v-0.453
			c-0.056-0.014-0.112-0.04-0.262-0.082c-0.148-0.04-0.263-0.103-0.345-0.183c-0.079-0.08-0.131-0.194-0.15-0.344
			c-0.021-0.15-0.03-0.345-0.03-0.589l0.001-2.819l-0.021,0.063V7.961l0.021,0.061V5.203c0-0.242,0.009-0.438,0.029-0.588
			c0.02-0.148,0.071-0.263,0.15-0.344c0.082-0.081,0.196-0.141,0.345-0.183c0.147-0.04,0.206-0.067,0.262-0.08V3.552h-3.799v0.001
			h-0.786v0.455c0.055,0.014,0.112,0.04,0.261,0.08c0.147,0.042,0.263,0.103,0.343,0.183c0.081,0.081,0.132,0.196,0.153,0.344
			c0.02,0.149,0.029,0.346,0.029,0.589v4.514h-5.436V5.203c0-0.242,0.009-0.438,0.03-0.588c0.021-0.148,0.07-0.263,0.15-0.344
			c0.082-0.081,0.196-0.141,0.346-0.183c0.147-0.04,0.205-0.067,0.26-0.08l0.001-0.456h-3.798v0.001h-0.788v0.455
			c0.056,0.014,0.113,0.04,0.262,0.08c0.147,0.042,0.262,0.103,0.343,0.183c0.082,0.081,0.132,0.196,0.153,0.344
			c0.019,0.144,0.029,0.333,0.029,0.565l0.001,0.325c0,0.004-0.001,0.008-0.001,0.014l0.001,9.735c0,0.016-0.001,0.034-0.001,0.051
			l0.001,0.735c0,0.233-0.012,0.421-0.03,0.564c-0.021,0.149-0.071,0.264-0.152,0.344c-0.082,0.08-0.196,0.143-0.344,0.183
			c-0.146,0.041-0.205,0.068-0.262,0.082v0.453h4.586V17.213z M97.787,15.932c0.183-0.816,0.508-1.942,0.98-3.377h4.464l0.607,1.806
			c0.269,0.811,0.485,1.495,0.646,2.049c0.163,0.553,0.256,0.973,0.283,1.257h3.578c-0.148-0.285-0.332-0.666-0.556-1.145
			c-0.221-0.481-0.49-1.152-0.797-2.02l-3.215-9.247c-0.148-0.419-0.246-0.761-0.293-1.025c-0.048-0.264-0.084-0.49-0.112-0.679
			h-4.019v0.456c0.055,0.014,0.112,0.04,0.261,0.08c0.149,0.042,0.264,0.103,0.344,0.183c0.08,0.081,0.131,0.196,0.152,0.344
			c0.011,0.086,0.02,0.191,0.024,0.309c-0.013,0.324-0.068,0.658-0.177,0.92l-2.243,5.576c-0.416,1.042-0.775,1.915-1.071,2.617
			c-0.296,0.703-0.549,1.292-0.757,1.765c-0.209,0.473-0.391,0.852-0.547,1.137c-0.153,0.281-0.291,0.528-0.414,0.729h2.547
			C97.501,17.329,97.606,16.752,97.787,15.932z M101.03,5.925l1.899,5.698h-3.84L101.03,5.925z M54.3,17.543
			c0.709-0.078,1.339-0.279,1.89-0.596c0.555-0.317,0.998-0.792,1.335-1.42c0.337-0.631,0.507-1.491,0.507-2.586
			c0-0.785-0.112-1.452-0.335-1.998c-0.223-0.548-0.58-0.994-1.071-1.338c-0.491-0.345-1.132-0.594-1.918-0.751
			c-0.789-0.154-1.75-0.232-2.88-0.232h-1.174V5.256c0-0.366,0.074-0.595,0.224-0.689c0.148-0.095,0.457-0.143,0.93-0.143h1.697
			c0.524,0,0.951,0.02,1.281,0.06c0.331,0.042,0.604,0.137,0.82,0.285c0.215,0.15,0.389,0.372,0.525,0.67
			c0.135,0.297,0.269,0.695,0.404,1.195h0.748V3.552h-9.64v0.001h-0.787v0.455c0.057,0.014,0.112,0.04,0.261,0.08
			c0.148,0.042,0.263,0.103,0.343,0.183c0.082,0.081,0.132,0.196,0.153,0.344c0.02,0.145,0.03,0.335,0.03,0.569v2.838h0.001v5.176
			l-0.001-0.001v2.839c0,0.232-0.011,0.424-0.03,0.569c-0.021,0.149-0.071,0.264-0.151,0.344c-0.082,0.08-0.196,0.143-0.345,0.183
			c-0.146,0.041-0.204,0.068-0.261,0.082v0.453h5.292C52.875,17.667,53.593,17.627,54.3,17.543z M51.32,16.725
			c-0.188-0.051-0.333-0.126-0.434-0.234s-0.165-0.25-0.193-0.426c-0.026-0.176-0.04-0.4-0.04-0.668V9.494h1.214
			c1.09,0,1.861,0.28,2.313,0.841c0.45,0.562,0.676,1.478,0.676,2.748c0,0.839-0.077,1.501-0.232,1.988
			c-0.154,0.488-0.359,0.859-0.616,1.116c-0.256,0.255-0.549,0.423-0.879,0.496c-0.329,0.075-0.67,0.111-1.021,0.111
			C51.771,16.794,51.51,16.772,51.32,16.725z M128.703,12.332c0.277,0.38,0.54,0.742,0.788,1.086
			c0.249,0.345,0.492,0.682,0.728,1.014c0.236,0.332,0.481,0.68,0.737,1.045c0.271,0.379,0.509,0.751,0.719,1.114
			c0.208,0.365,0.399,0.724,0.576,1.075l4.748,0.041c-0.499-0.516-0.983-1.027-1.455-1.541c-0.472-0.516-0.855-0.939-1.153-1.28
			c-0.431-0.485-0.834-0.944-1.211-1.376c-0.377-0.433-0.734-0.859-1.07-1.279c-0.338-0.418-0.657-0.842-0.961-1.266
			c-0.304-0.428-0.603-0.883-0.899-1.37l0.223-0.284c0.336-0.431,0.734-0.929,1.192-1.49c0.456-0.562,0.929-1.115,1.413-1.663
			c0.486-0.548,0.972-1.054,1.456-1.521c0.486-0.466,0.922-0.821,1.314-1.064V3.552h-3.293c-0.109,0.284-0.273,0.632-0.497,1.045
			c-0.222,0.412-0.482,0.855-0.776,1.328c-0.297,0.473-0.607,0.965-0.932,1.47c-0.322,0.506-0.645,0.99-0.97,1.45
			c-0.323,0.461-0.623,0.886-0.897,1.278c-0.276,0.391-0.51,0.708-0.698,0.953C128.122,11.535,128.427,11.955,128.703,12.332z
			 M124.501,16.605c-0.02,0.149-0.071,0.264-0.151,0.344c-0.082,0.08-0.196,0.143-0.346,0.183c-0.147,0.041-0.203,0.068-0.26,0.082
			l0.001,0.453h4.585v-0.453c-0.056-0.014-0.112-0.04-0.261-0.082c-0.148-0.04-0.264-0.103-0.344-0.183
			c-0.082-0.08-0.133-0.194-0.152-0.344c-0.021-0.15-0.029-0.345-0.029-0.589V5.203c0-0.242,0.009-0.438,0.029-0.588
			c0.02-0.148,0.069-0.263,0.152-0.344c0.08-0.081,0.195-0.141,0.344-0.183c0.146-0.04,0.204-0.067,0.261-0.08V3.552h-3.799v0.001
			h-0.786v0.455c0.056,0.014,0.111,0.04,0.259,0.08c0.149,0.042,0.264,0.103,0.346,0.183c0.08,0.081,0.132,0.196,0.151,0.344
			c0.019,0.149,0.03,0.346,0.03,0.589v10.812C124.531,16.259,124.52,16.456,124.501,16.605z M69.749,14.382h-0.93
			c-0.106,0.553-0.212,0.993-0.313,1.318c-0.1,0.324-0.246,0.567-0.433,0.729c-0.189,0.161-0.455,0.264-0.8,0.305
			c-0.342,0.038-0.818,0.06-1.424,0.06c-0.566,0-1.007-0.021-1.325-0.06c-0.315-0.041-0.554-0.115-0.715-0.225
			c-0.163-0.109-0.264-0.266-0.304-0.475c-0.042-0.211-0.061-0.477-0.061-0.803v-4.442h1.898c0.162,0,0.354,0.009,0.577,0.021
			c0.222,0.015,0.45,0.033,0.685,0.061c0.236,0.026,0.463,0.071,0.679,0.132c0.216,0.062,0.398,0.138,0.545,0.234V9.432
			c-0.146,0.094-0.329,0.17-0.545,0.224c-0.216,0.055-0.442,0.099-0.679,0.132c-0.234,0.033-0.463,0.055-0.685,0.061
			c-0.223,0.008-0.415,0.012-0.577,0.012h-1.898V5.173c0-0.311,0.044-0.513,0.13-0.607c0.088-0.095,0.274-0.143,0.557-0.143h1.517
			c0.525,0,0.951,0.02,1.283,0.06c0.329,0.042,0.602,0.137,0.816,0.285c0.217,0.15,0.391,0.372,0.526,0.67
			c0.136,0.297,0.27,0.695,0.404,1.195h0.748V3.552h-8.973v0.001h-0.787v0.455c0.056,0.014,0.113,0.04,0.261,0.08
			c0.147,0.042,0.262,0.103,0.344,0.183c0.081,0.081,0.132,0.196,0.152,0.344c0.02,0.149,0.03,0.346,0.03,0.589v10.812
			c0,0.243-0.011,0.439-0.03,0.589c-0.021,0.149-0.071,0.264-0.151,0.344c-0.083,0.08-0.197,0.143-0.345,0.183
			c-0.147,0.041-0.205,0.068-0.262,0.082v0.453h10.083V14.382z M76.194,17.213c-0.056-0.014-0.114-0.04-0.262-0.082
			c-0.147-0.04-0.262-0.103-0.343-0.183c-0.082-0.08-0.13-0.194-0.152-0.344c-0.02-0.15-0.029-0.345-0.029-0.589V12.07h1.394
			c0.728,0,1.42-0.055,2.083-0.163c0.656-0.108,1.241-0.322,1.746-0.639c0.504-0.319,0.906-0.768,1.202-1.349
			c0.298-0.581,0.446-1.351,0.446-2.311c0-0.92-0.143-1.651-0.425-2.192c-0.283-0.54-0.665-0.95-1.142-1.227
			c-0.479-0.276-1.028-0.452-1.648-0.526c-0.62-0.075-1.26-0.112-1.918-0.112h-4.771v0.001H71.59v0.455
			c0.055,0.014,0.112,0.04,0.26,0.08c0.149,0.042,0.264,0.103,0.344,0.183c0.082,0.081,0.132,0.196,0.153,0.344
			c0.02,0.149,0.029,0.346,0.029,0.589v10.812c0,0.243-0.01,0.439-0.029,0.589c-0.021,0.149-0.071,0.264-0.153,0.344
			c-0.08,0.08-0.194,0.143-0.344,0.183c-0.147,0.041-0.205,0.068-0.26,0.082v0.453h4.604V17.213z M75.408,5.193
			c0-0.133,0.01-0.252,0.029-0.354c0.022-0.1,0.068-0.183,0.141-0.243c0.075-0.061,0.19-0.104,0.345-0.134
			c0.154-0.025,0.367-0.039,0.636-0.039c0.363,0,0.705,0.047,1.021,0.143c0.316,0.094,0.591,0.261,0.828,0.496
			c0.235,0.237,0.418,0.553,0.545,0.943c0.128,0.392,0.191,0.886,0.191,1.481c0,1.189-0.171,2.106-0.514,2.749
			c-0.345,0.642-0.947,0.961-1.809,0.961h-1.414V5.193z M35.67,16.075c0.546,0.615,1.236,1.086,2.073,1.41
			c0.833,0.324,1.831,0.485,2.989,0.485c0.579,0,1.112-0.04,1.595-0.122c0.485-0.08,0.928-0.184,1.326-0.314
			c0.396-0.128,0.75-0.266,1.061-0.414c0.31-0.148,0.578-0.291,0.808-0.426l-0.445-0.872c-0.24,0.108-0.479,0.214-0.706,0.313
			c-0.229,0.102-0.476,0.193-0.739,0.274c-0.262,0.081-0.561,0.146-0.897,0.192c-0.337,0.049-0.728,0.071-1.172,0.071
			c-0.862,0-1.565-0.163-2.112-0.486c-0.545-0.325-0.974-0.772-1.282-1.337c-0.311-0.569-0.523-1.238-0.637-2.01
			c-0.115-0.77-0.173-1.609-0.173-2.514c0-0.703,0.033-1.416,0.102-2.139c0.066-0.723,0.229-1.372,0.483-1.947
			c0.257-0.575,0.634-1.046,1.134-1.411c0.498-0.366,1.179-0.545,2.039-0.545c0.783,0,1.458,0.212,2.031,0.638
			c0.573,0.425,0.927,1.071,1.063,1.936h0.888V4.039c-0.256-0.122-0.557-0.227-0.898-0.314c-0.344-0.089-0.705-0.157-1.081-0.204
			c-0.378-0.047-0.749-0.083-1.111-0.112c-0.364-0.025-0.694-0.04-0.99-0.04c-1.24,0-2.297,0.17-3.174,0.508
			c-0.875,0.337-1.592,0.827-2.152,1.47c-0.558,0.642-0.971,1.427-1.23,2.352c-0.264,0.926-0.396,1.979-0.396,3.153
			c0,1.108,0.133,2.102,0.396,2.982C34.719,14.714,35.125,15.459,35.67,16.075z M91.12,17.543c0.706-0.078,1.335-0.279,1.889-0.596
			c0.553-0.317,0.997-0.792,1.334-1.42c0.336-0.631,0.505-1.491,0.505-2.586c0-0.785-0.112-1.452-0.335-1.998
			c-0.221-0.548-0.578-0.994-1.07-1.338c-0.491-0.345-1.131-0.594-1.919-0.751c-0.789-0.154-1.749-0.232-2.88-0.232h-1.173V5.256
			c0-0.366,0.074-0.595,0.222-0.689c0.149-0.095,0.459-0.143,0.931-0.143h1.697c0.524,0,0.953,0.02,1.283,0.06
			c0.33,0.042,0.602,0.137,0.818,0.285c0.216,0.15,0.392,0.372,0.525,0.67c0.135,0.297,0.269,0.695,0.403,1.195H94.1V3.552h-9.639
			v0.001h-0.787v0.455c0.056,0.014,0.113,0.04,0.261,0.08c0.148,0.042,0.263,0.103,0.344,0.183c0.082,0.081,0.132,0.196,0.151,0.344
			c0.021,0.149,0.031,0.346,0.031,0.589v10.812c0,0.243-0.011,0.439-0.031,0.589c-0.02,0.149-0.069,0.264-0.151,0.344
			c-0.081,0.08-0.195,0.143-0.344,0.183c-0.147,0.041-0.205,0.068-0.261,0.082v0.453h5.292
			C89.695,17.667,90.411,17.627,91.12,17.543z M88.139,16.725c-0.189-0.051-0.335-0.126-0.436-0.234s-0.164-0.25-0.192-0.426
			c-0.026-0.176-0.04-0.4-0.04-0.668V9.494h1.211c1.093,0,1.864,0.28,2.315,0.841c0.449,0.562,0.678,1.478,0.678,2.748
			c0,0.839-0.078,1.501-0.233,1.988c-0.154,0.488-0.36,0.859-0.617,1.116c-0.254,0.255-0.547,0.423-0.877,0.496
			c-0.331,0.075-0.671,0.111-1.021,0.111C88.59,16.794,88.326,16.772,88.139,16.725z M24.266,20.096
			c-0.181,0.446-0.388,0.873-0.625,1.262c0.151-0.174,0.299-0.351,0.441-0.532l0.014-0.017l0.013-0.016l0.013-0.018h0.001
			l0.012-0.016l0.014-0.018l0.013-0.016l0.013-0.017l0.001-0.003l0.012-0.015l0.013-0.017l0.013-0.018l0.013-0.016l0.001-0.002
			l0.012-0.015l0.013-0.017l0.013-0.018l0.013-0.016l0.001-0.002l0.012-0.016l0.012-0.017l0.014-0.017l0.012-0.018h0.001
			l0.012-0.018l0.013-0.016l0.012-0.018l0.013-0.017h0.001l0.012-0.018l0.012-0.017l0.013-0.018l0.013-0.017l0.012-0.017
			l0.013-0.019l0.012-0.016l0.013-0.018l0.013-0.02l0.025-0.035l0.013-0.019l0.025-0.035l0.012-0.02
			c0.155-0.224,0.303-0.451,0.443-0.684l0.079-0.132l0.012-0.019l0.011-0.02l0.011-0.019l0.012-0.019l0.011-0.019l0.001-0.001
			l0.01-0.02l0.012-0.018l0.021-0.039l0.001-0.001l0.01-0.018l0.011-0.02l0.011-0.019l0.01-0.02
			C24.947,19.45,24.623,19.78,24.266,20.096z"/>
	</g>
</g>
</svg>
