<?xml version="1.0" encoding="utf-8"?>
<!-- Generator: Adobe Illustrator 16.0.0, SVG Export Plug-In . SVG Version: 6.00 Build 0)  -->
<!DOCTYPE svg PUBLIC "-//W3C//DTD SVG 1.1//EN" "http://www.w3.org/Graphics/SVG/1.1/DTD/svg11.dtd">
<svg version="1.1" id="Слой_1" xmlns="http://www.w3.org/2000/svg" xmlns:xlink="http://www.w3.org/1999/xlink" x="0px" y="0px"
	 width="132.997px" height="26.994px" viewBox="0 0 132.997 26.994" enable-background="new 0 0 132.997 26.994"
	 xml:space="preserve">
<g>
	<g>
		<path fill-rule="evenodd" clip-rule="evenodd" fill="#FFFFFF" d="M0,26.994h24.211V2.726H0V26.994z M7.362,6.566
			c0-1.896,2.769-1.896,2.769,0v9.719c0,1.308,1.859,1.382,1.859,0V6.566c0-1.896,2.739-1.911,2.77,0v9.828
			c0,2.248-1.661,3.732-3.694,3.732c-2.036,0-3.703-1.521-3.703-3.732V6.566z M5.5,6.573v13.581
			c-0.005,0.432,0.366,0.918,0.861,0.905h12.766l-3.307-7.868c-0.085-0.299-0.144-0.601-0.144-0.9c0-0.331,0.144-0.866,0.361-1.299
			l3.033-5.047c0.223-0.457,0.68-0.761,1.215-0.783c0.757-0.034,1.403,0.491,1.437,1.303c0.004,0.162-0.035,0.517-0.115,0.676
			l-2.77,4.533c-0.301,0.509-0.259,0.909-0.119,1.294l4.211,10.886H5.5c-1.565,0-2.777-1.269-2.777-2.781L2.707,6.58
			C2.752,4.708,5.447,4.672,5.5,6.573z M33.595,15.222c0,2.562-0.256,3.982-2.321,3.982c-0.387,0-0.645,0-1.032-0.145v4.416
			c0.774,0.293,1.292,0.422,1.938,0.422c5.803,0,6.062-4.577,6.062-7.111V9.776h3.353v13.7h4.631V5.127H33.595V15.222z
			 M107.855,3.981c1.935,0,3.869-0.709,4.772-2.838L109.92,0c-0.39,1.418-1.545,1.562-2.064,1.562c-0.388,0-1.677-0.143-1.936-1.562
			l-2.708,1.143C103.988,3.272,106.048,3.981,107.855,3.981z M120.354,5.127v10.095c0,2.562-0.259,3.982-2.32,3.982
			c-0.388,0-0.646,0-1.036-0.145v4.416c0.778,0.293,1.291,0.422,1.938,0.422c5.806,0,6.063-4.577,6.063-7.111V9.746h3.354v13.73
			h4.645V5.127H120.354z M104.501,16.076V5.127h-4.514v18.349h4.514l6.45-11.094v11.094h4.514V5.127h-4.514L104.501,16.076z
			 M80.783,5.127h-5.421l-5.033,7.677V5.127h-4.628v18.349h4.628v-7.965l4.777,7.965h5.933l-6.579-9.529L80.783,5.127z
			 M88.649,4.546c-6.063,0-8.901,4.837-8.901,9.676c0,4.982,2.838,9.965,8.901,9.965c6.18,0,9.018-4.982,9.018-9.965
			C97.667,9.384,94.829,4.546,88.649,4.546z M88.649,19.639c-2.063,0-4.128-1.855-4.128-5.417c0-3.55,2.064-5.258,4.128-5.258
			c2.193,0,4.24,1.708,4.24,5.258C92.89,17.784,90.843,19.639,88.649,19.639z M56.542,12.804l-3.224-7.677h-5.547l6.32,13.222
			l-2.322,5.127h5.03l7.483-18.349h-5.031L56.542,12.804z"/>
	</g>
</g>
</svg>
