<svg xmlns="http://www.w3.org/2000/svg" width="512.5" height="352" viewBox="0 0 512.5 352">
  <defs>
    <style>
      .cls-1 {
        fill: #eef1f5;
        fill-rule: evenodd;
        opacity: 0.5;
      }
    </style>
  </defs>
  <path id="lquo.svg" class="cls-1" d="M1202.75,3524.5a112,112,0,1,1-112,112l-0.5-16c0-123.71,100.29-224,224-224v64a158.952,158.952,0,0,0-113.14,46.86,163.429,163.429,0,0,0-15.91,18.51A112.841,112.841,0,0,1,1202.75,3524.5Zm288,0a112,112,0,1,1-112,112l-0.5-16c0-123.71,100.29-224,224-224v64a158.952,158.952,0,0,0-113.14,46.86,162.419,162.419,0,0,0-15.91,18.51A112.841,112.841,0,0,1,1490.75,3524.5Z" transform="translate(-1090.25 -3396.5)"/>
</svg>
