<svg xmlns="http://www.w3.org/2000/svg" width="199" height="82" viewBox="0 0 199 82">
  <defs>
    <style>
      .cls-1 {
        fill: #fff;
        fill-rule: evenodd;
      }
    </style>
  </defs>
  <path id="menu-logo.svg" class="cls-1" d="M1062.01,9791.51l16.99,20.1-25.55-6.26-13.85,22.38-0.01-.15c7.69-33.81,35.25-57.64,36.11-58.37-30.79,21.95-38.34,32.06-38.34,32.06-0.04.03-.08,0.07-0.12,0.1l-25.13-6.16,24.35-9.96-1.95-26.25,17,20.09,24.34-9.96Zm-69.6,45.08c-0.831.55-1.533,1.02-2.251,1.47a16.533,16.533,0,0,1-7.863,2.88,9.628,9.628,0,0,1-4.564-.7,6.214,6.214,0,0,1-3.735-5.31,22.326,22.326,0,0,1-.14-2.72c-0.015-5.25-.04-10.49.007-15.73a2.958,2.958,0,0,0-1.763-2.96,14.042,14.042,0,0,0-1.3-.7,1.02,1.02,0,0,1-.67-1.3,0.556,0.556,0,0,1,.36-0.37c1.845-.21,3.694-0.4,5.543-0.59s3.7-.34,5.547-0.54c1.085-.12,1.407.14,1.407,1.25q0,9.795.009,19.59a12.531,12.531,0,0,0,.193,2.27,3.07,3.07,0,0,0,2.855,2.64,11.1,11.1,0,0,0,5.134-.71c1.19-.38,1.025-0.14,1.026-1.43q0.006-8.355,0-16.69c0-.23-0.012-0.46-0.012-0.69a2.551,2.551,0,0,0-1.562-2.59c-0.619-.28-1.172-0.71-1.783-1.01a0.947,0.947,0,0,1-.381-1.23,0.965,0.965,0,0,1,.675-0.29q5.514-.6,11.034-1.16a0.918,0.918,0,0,1,1.08,1.04q0,11.085,0,22.16c0,0.78.05,1.55,0.12,2.33a1.926,1.926,0,0,0,1.34,1.62,16.439,16.439,0,0,0,1.64.65c0.68,0.22.4,0.76,0.44,1.19,0.03,0.45-.34.42-0.64,0.46l-10.581,1.5c-0.867.13-1.186-.15-1.165-1.04s0.041-1.79.056-2.68C992.472,9837.06,992.445,9836.91,992.414,9836.59Zm-87.455-25.35c-0.555,0-1.065.03-1.567-.02a0.763,0.763,0,0,1-.4-0.4,37.563,37.563,0,0,0-3.676-5.8,6.39,6.39,0,0,0-5.793-2.61,7.639,7.639,0,0,0-3.515.79,4.7,4.7,0,0,0-2.373,3.85c-0.37,3.15,1.207,5.14,3.861,6.43,1.515,0.73,3.1,1.33,4.648,1.98a32.774,32.774,0,0,1,6.57,3.48c3.677,2.65,5.046,6.24,4.443,10.68-0.805,5.93-5.1,9.69-10.536,10.9a29.086,29.086,0,0,1-9.4.18,23.51,23.51,0,0,1-6.134-1.4,0.77,0.77,0,0,1-.439-0.54c-0.233-3.44-.435-6.89-0.643-10.34a1.774,1.774,0,0,1,.037-0.26,13.452,13.452,0,0,1,1.554.03,0.826,0.826,0,0,1,.437.44c1.309,2.22,2.565,4.47,3.921,6.66a6.336,6.336,0,0,0,3.546,2.97,10.158,10.158,0,0,0,6.379-.05,5.1,5.1,0,0,0,3.373-4.47,6.156,6.156,0,0,0-2.991-6.51,37.078,37.078,0,0,0-6.228-3.02,22.59,22.59,0,0,1-5.969-3.37,10.169,10.169,0,0,1-3.7-7,12.385,12.385,0,0,1,.644-5.94,11.448,11.448,0,0,1,6.467-6.45,16.753,16.753,0,0,1,6.481-1.3,31,31,0,0,1,8.75.82c2.12,0.6,1.641.09,1.79,2.2,0.163,2.31.281,4.63,0.417,6.94C904.93,9810.47,904.941,9810.82,904.959,9811.24Zm121.951,7.55a8.522,8.522,0,0,1-1.25-.02,0.881,0.881,0,0,1-.48-0.4c-0.93-1.34-1.8-2.72-2.77-4.03-1.5-2.04-3.62-2.45-5.95-1.95a3.492,3.492,0,0,0-2.66,4.39,4.589,4.589,0,0,0,2.85,3.1c1.4,0.7,2.89,1.24,4.33,1.86a19.5,19.5,0,0,1,4.7,2.62,7.842,7.842,0,0,1,3.05,5.51,9.352,9.352,0,0,1-1.5,6.33,10.015,10.015,0,0,1-5.83,4.09,23.155,23.155,0,0,1-9.19.45c-1.54-.19-3.06-0.54-4.59-0.8a0.663,0.663,0,0,1-.62-0.73q-0.15-3.81-.34-7.61a0.545,0.545,0,0,1,.63-0.71,1.412,1.412,0,0,1,1.46.84c0.95,1.55,1.97,3.06,3.03,4.54a5.922,5.922,0,0,0,5.96,2.37,4.259,4.259,0,0,0,3.25-1.74,4.035,4.035,0,0,0-1.23-5.63,46.845,46.845,0,0,0-4.33-2.12,27.3,27.3,0,0,1-5.25-2.67,8.09,8.09,0,0,1-3.43-8.14c0.54-4.26,3.31-6.56,7.18-7.76a19.646,19.646,0,0,1,7.89-.48c1.45,0.14,2.87.5,4.3,0.76a0.526,0.526,0,0,1,.48.62c0.08,2.29.2,4.58,0.31,6.87C1026.92,9818.46,1026.91,9818.57,1026.91,9818.79Zm-83.8,21.51h-0.624q-7.569,0-15.139-.01c-0.262,0-.631.17-0.693-0.34-0.113-.91-0.012-1.19.523-1.34,0.656-.18,1.317-0.35,1.958-0.58a1.47,1.47,0,0,0,1.018-1.32c0.051-.53.081-1.06,0.081-1.59,0-6.07-.025-12.15.009-18.22a3.194,3.194,0,0,0-1.556-3.01c-0.628-.39-1.213-0.84-1.843-1.23a0.869,0.869,0,0,1-.317-1.1,0.912,0.912,0,0,1,.661-0.32c2.446-.31,4.894-0.59,7.342-0.87,1.186-.13,2.372-0.28,3.56-0.39a0.837,0.837,0,0,1,1.038.98c-0.023.87-.066,1.75-0.1,2.62-0.008.22,0,.44,0,0.85,0.321-.26.526-0.4,0.7-0.57a14.775,14.775,0,0,1,5.076-3.38,6.79,6.79,0,0,1,3.846-.46c2.315,0.47,3.34,1.96,3.274,4.41-0.056,2.07-1.215,3.57-2.685,3.85-2.658.49-4.23,0.01-5.347-2a2.191,2.191,0,0,0-.511-0.75,2.081,2.081,0,0,0-1.092-.46,4.689,4.689,0,0,0-2.811,1.35,0.678,0.678,0,0,0-.146.46q0,9.765.019,19.54c0,1.23.4,1.63,1.619,1.85,0.577,0.1,1.145.26,1.721,0.37a0.44,0.44,0,0,1,.423.54C943.085,9839.52,943.107,9839.87,943.107,9840.3Zm26.155-.03H953.02a11.742,11.742,0,0,1,.016-1.25,0.558,0.558,0,0,1,.343-0.34c0.593-.19,1.2-0.35,1.8-0.52a1.743,1.743,0,0,0,1.383-1.78c0.007-.4.056-0.8,0.056-1.2q0-9,0-17.99c0-.36-0.048-0.72-0.055-1.08a2.119,2.119,0,0,0-.917-1.75c-0.782-.57-1.587-1.1-2.383-1.65a1.2,1.2,0,0,1-.363-1.29,0.453,0.453,0,0,1,.323-0.16c2.807-.32,5.615-0.62,8.422-0.93,1.074-.12,2.148-0.24,3.223-0.34,0.809-.08,1.021.16,1,0.94-0.078,2.64-.181,5.27-0.2,7.91-0.029,5.41-.01,10.82,0,16.23,0,0.51.038,1.02,0.066,1.53a1.575,1.575,0,0,0,1.281,1.54c0.6,0.16,1.2.35,1.807,0.49a0.478,0.478,0,0,1,.453.58C969.24,9839.54,969.262,9839.88,969.262,9840.27Zm-43.791-.01H909.359a0.379,0.379,0,0,1-.056-0.12c-0.061-1.36-.06-1.36,1.232-1.71,2.111-.58,2.336-0.82,2.344-3.03,0.021-6.15-.011-12.3.019-18.45a3.2,3.2,0,0,0-1.673-3.11c-0.477-.27-0.888-0.67-1.377-0.91a1.225,1.225,0,0,1-.649-1.63c1.124-.13,2.268-0.26,3.412-0.39q4.041-.45,8.084-0.89a3.055,3.055,0,0,1,.736-0.05,0.664,0.664,0,0,1,.718.74q-0.12,12.36-.213,24.71c-0.015,2.2.164,2.4,2.284,2.98l0.163,0.06C925.7,9838.81,925.7,9838.81,925.471,9840.26Zm-8.419-42.54c2.211,0.16,3.9.9,4.739,2.86a4.613,4.613,0,0,1-3.815,6.47,5.126,5.126,0,0,1-4.706-1.57A4.606,4.606,0,0,1,915.5,9798,13.4,13.4,0,0,1,917.052,9797.72Zm43.727,0c2.211,0.16,3.9.89,4.74,2.86a4.612,4.612,0,0,1-3.814,6.47,5.145,5.145,0,0,1-4.706-1.56,4.614,4.614,0,0,1,2.23-7.49A13.4,13.4,0,0,1,960.779,9797.72Z" transform="translate(-880 -9759)"/>
</svg>
