<svg xmlns="http://www.w3.org/2000/svg" width="512" height="352" viewBox="0 0 512 352">
  <defs>
    <style>
      .cls-1 {
        fill: #eef1f5;
        fill-rule: evenodd;
        opacity: 0.5;
      }
    </style>
  </defs>
  <path id="rquo.svg" class="cls-1" d="M1487.61,2212a112,112,0,1,1,111.89-112l0.5,16c0,123.71-100.19,224-223.78,224v-64a158.75,158.75,0,0,0,113.03-46.86,162.233,162.233,0,0,0,15.89-18.51A112.488,112.488,0,0,1,1487.61,2212Zm-287.72,0a112,112,0,1,1,111.89-112l0.5,16c0,123.71-100.19,224-223.78,224v-64a158.716,158.716,0,0,0,113.03-46.86,163.335,163.335,0,0,0,15.9-18.51A112.713,112.713,0,0,1,1199.89,2212Z" transform="translate(-1088 -1988)"/>
</svg>
