<?xml version="1.0" encoding="utf-8"?>
<!-- Generator: Adobe Illustrator 19.2.1, SVG Export Plug-In . SVG Version: 6.00 Build 0)  -->
<svg version="1.1" id="Layer_1" xmlns="http://www.w3.org/2000/svg" xmlns:xlink="http://www.w3.org/1999/xlink" x="0px" y="0px"
	 viewBox="0 0 1920 1080" style="enable-background:new 0 0 1920 1080;" xml:space="preserve">
<style type="text/css">
	.st0{fill:#FFFFFF;}
</style>
<path class="st0" d="M-0.6,0.5v1080h1920V0.5H-0.6z M620.9,874.7c-111.9,0-218.4-35.2-296.1-104.7l97.5-116.4
	c62.3,49.6,131.8,75.8,204.9,75.8c46.9,0,72.2-16.2,72.2-45.1c0-26.2-20.8-40.6-106.5-60.5c-134.5-30.7-238.3-68.6-238.3-200.4
	c0-117.3,93-202.2,244.6-202.2c107.4,0,191.4,28.9,260,83.9l-87.6,123.7c-57.8-40.6-121-62.3-176.9-62.3
	c-42.4,0-63.2,18.1-63.2,42.4c0,28.9,21.7,41.5,109.2,61.4c145.3,31.6,235.6,78.5,235.6,198.6C876.4,798,774.4,874.7,620.9,874.7z"
	/>
</svg>
